<?xml version="1.0" encoding="UTF-8" standalone="no"?>
<svg
   xmlns:dc="http://purl.org/dc/elements/1.1/"
   xmlns:cc="http://creativecommons.org/ns#"
   xmlns:rdf="http://www.w3.org/1999/02/22-rdf-syntax-ns#"
   xmlns:svg="http://www.w3.org/2000/svg"
   xmlns="http://www.w3.org/2000/svg"
   xmlns:sodipodi="http://sodipodi.sourceforge.net/DTD/sodipodi-0.dtd"
   xmlns:inkscape="http://www.inkscape.org/namespaces/inkscape"
   fill="none"
   height="152.854"
   viewBox="0 0 512.00159 152.854"
   width="512.00159"
   version="1.1"
   id="svg306"
   sodipodi:docname="img.01.svg"
   inkscape:version="1.0.2 (e86c870879, 2021-01-15)">
  <metadata
     id="metadata312">
    <rdf:RDF>
      <cc:Work
         rdf:about="">
        <dc:format>image/svg+xml</dc:format>
        <dc:type
           rdf:resource="http://purl.org/dc/dcmitype/StillImage" />
        <dc:title></dc:title>
      </cc:Work>
    </rdf:RDF>
  </metadata>
  <defs
     id="defs310" />
  <sodipodi:namedview
     pagecolor="#ffffff"
     bordercolor="#666666"
     borderopacity="1"
     objecttolerance="10"
     gridtolerance="10"
     guidetolerance="10"
     inkscape:pageopacity="0"
     inkscape:pageshadow="2"
     inkscape:window-width="1920"
     inkscape:window-height="1016"
     id="namedview308"
     showgrid="false"
     inkscape:zoom="1"
     inkscape:cx="252.00787"
     inkscape:cy="87.177"
     inkscape:window-x="0"
     inkscape:window-y="27"
     inkscape:window-maximized="1"
     inkscape:current-layer="svg306"
     fit-margin-top="0"
     fit-margin-left="0"
     fit-margin-right="0"
     fit-margin-bottom="0" />
  <g
     id="g373"
     transform="matrix(0.65238583,0,0,0.65238583,-21.910949,-0.06523858)">
    <path
       d="m 651.4,116.6 20.5,4 c 0,0 27.5,26.5 -28,46.5 -55.5,20 174.5,25 174.5,25 l -452,2.5 c 57.6,-3.8 91,-7.5 178.5,-28 59.6,-14 104.8,-29.8 106.5,-50 z"
       fill="#fafbfc"
       id="path188" />
    <path
       d="m 101.2,232.1 c 31.48,0 57,-2.507 57,-5.6 0,-3.093 -25.52,-5.6 -57,-5.6 -31.48,0 -57,2.507 -57,5.6 0,3.093 25.52,5.6 57,5.6 z m 140,0 c 13.918,0 25.2,-2.507 25.2,-5.6 0,-3.093 -11.282,-5.6 -25.2,-5.6 -13.918,0 -25.2,2.507 -25.2,5.6 0,3.093 11.282,5.6 25.2,5.6 z m 152.9,2.3 c 36.064,0 65.3,-4.701 65.3,-10.5 0,-5.799 -29.236,-10.5 -65.3,-10.5 -36.064,0 -65.3,4.701 -65.3,10.5 0,5.799 29.236,10.5 65.3,10.5 z"
       fill="#cacfd6"
       id="path190" />
    <path
       d="m 793.8,191 -129.4,-2.8 -13.5,-40 c 3.5,-1.3 7.9,-3.2 11.6,-5.2 7.4,-4.1 8.2,-14.8 5.1,-21.8 -2.2,-0.9 -8,-1.1 -8,-1.1 0,0 1.1,5 0.5,9.6 -0.4,3.3 -8.1,7.2 -12.4,9.1 L 632,92.2 c 2.4,-1.4 26,-28.5 26,-28.5 h 10.6 l 45.4,51.2 15,-7.7 z"
       fill="#f0f3f5"
       id="path192" />
    <path
       d="m 667.7,121.2 c 0,0 7,18.3 -7.8,23.7 -14.8,5.4 -61.7,21.2 -54,28.2 17.4,16 83.2,17.8 83.2,17.8 0,0 -4.5,-27.7 -8,-39.9 z"
       fill="#e1e4e8"
       id="path194" />
    <path
       d="m 62.7,176.1 18.2,-27 1.7,13.4 13.3,-22.6 3.1,8.7 6.3,-15.2 7,21.1 11,-31.8 8.2,26.3 11.5,-15.6 c 0,0 -12.4,4.3 -12.4,3.2 0,-1.1 16.8,-22.1 16.8,-22.1 0,0 -15.4,5.5 -15.4,4.3 0,-1.1 13.1,-12.6 17.5,-19.8 4.5,-7.2 12.5,-32.2 12.5,-32.2 0,0 12.8,30.8 19.6,34.2 2.2,-4.9 9.2,-19 9.2,-19 l -13.9,5.8 c 0,0 21,-41.8 23.5,-51.3 2.5,-9.5 1.9,-6.2 6.6,2 3.2,7 7,29.9 18.6,43 11,9.8 -7.9,2.8 -7.9,2.8 l 17.1,31 15,-27.6 8.9,21.4 13.3,-27.8 -15,10 c 0,0 13.4,-18.7 16.3,-33.4 2.9,-14.8 6.4,-38.2 6.4,-38.2 l 18.9,34.2 c 0,0 18,-47.4 18.7,-53.8 2.1,22.6 30.7,76.7 30.7,76.7 0,0 11,-22.5 12,-30.8 3.5,8.3 48.4,145.2 48.4,145.2 0,0 -126.8,7.8 -176.3,8 -49.5,0.2 -144.3,0.8 -153,-4 -8.7,-4.8 -16.4,-19.1 -16.4,-19.1 z"
       fill="#eef1f3"
       id="path196" />
    <path
       d="m 407.4,190.5 c 0,0 72,-6.5 81,-12.8"
       stroke="#e1e4e8"
       stroke-miterlimit="10"
       stroke-width="1.307"
       id="path198" />
    <path
       d="m 256.301,207.6 c 0,0 4.9,-1.4 5.6,1.1 0.8,2.4 -5.6,12.2 -5.6,12.2 0,0 7.3,-0.6 7.6,0.9 -5.3,0.8 -11.6,0.7 -12,1 -0.4,0.3 4.4,-15.2 4.4,-15.2 z"
       fill="#f66a0a"
       id="path200" />
    <path
       d="m 271.7,198.6 c -0.5,-1 -8.5,0 -8.5,0 v -4.8 c 0,0 6.1,-1.8 6.4,-3.2 0.9,-3.5 -6.3,-0.9 -7.5,-0.6 -5.1,1.1 -9.9,3.6 -13.8,7.2 -5.4,5 -8.7,12.1 -9.2,19.4 -0.1,1.5 0,3.1 0.4,4.6 -1.6,1.3 -4.1,2.8 -6,1.6 -2.8,-2 5.9,-16.6 5.5,-23.5 -0.3,-5.8 -5.1,-19.3 -17.2,-19.4 -9.7,-0.1 -15.2,3.9 -18.9,12.4 -3.7,8.5 -6.1,12.9 -10.1,12.5 -4,-0.4 -5.7,0.3 -8.9,-5.8 0.3,4.1 3.5,12.6 12,12.4 8.5,-0.2 12.2,-4.4 16,-7.9 3.7,-3.6 10.3,-5 10.6,-0.2 0.3,4.7 -3.7,16.3 -3.1,20.1 0.6,3.8 2.3,6 9.2,5.8 5.9,-0.2 10,-4.3 11.7,-6.1 0.7,1.1 1.8,2.1 3.1,2.4 0.2,0.1 0.4,0.1 0.6,0.2 0.5,0.3 -1,2.3 -1.2,2.8 -0.2,0.5 9.2,0.9 13.6,0.5 0.5,0 0.9,-0.1 1.3,-0.4 0.5,-0.5 0.2,-1.5 -0.3,-1.9 -0.6,-0.4 -1.3,-0.5 -2.1,-0.6 -2.4,-0.2 -4.9,-0.4 -7.3,-0.6 3.5,-2.1 6.7,-4.6 9.6,-7.5 1.4,-1.4 2.8,-3.4 2.3,-5.3 -0.4,-1.6 -1.9,-2.6 -3.3,-3.4 -0.2,-2.6 -0.5,-5.2 -0.1,-7.8 0.3,-2.1 0.8,-3.6 2.1,-4.9 0,0 0.7,6.4 2.5,7.2 1.8,0.8 8.1,-2.6 8.1,-2.6 0,0 1,2.4 1.3,2.3 0.1,-0.2 1.7,-3.8 1.2,-4.9 z"
       fill="#ff9c57"
       id="path202" />
    <path
       d="m 267.401,187.2 c -0.9,-0.5 -1.4,-3.2 -0.7,-3.5 0.7,-0.3 2.5,0.7 2.5,2.2 0.5,-0.2 1.6,-0.5 1.8,-0.8 -0.4,-0.4 -0.7,-0.3 -1,-1.4 -0.4,-1.5 0.8,-1.9 1.3,-1.4 0.6,0.4 1.3,1.8 1,2.7 1.7,-0.9 3.8,-0.4 5.4,0.6 1.6,1 2.6,2.7 3,4.5 0.1,0.4 0.2,0.9 0.5,1.2 0.7,0.6 1.8,-0.2 2.6,0.1 0.7,0.2 -0.2,3.1 -0.8,3.5 -1.7,1.1 -3.7,1.9 -5.8,2.2 -1.9,0.3 -4,0.2 -5.6,-0.9 -0.8,-0.5 -1.4,-1.3 -1.9,-2 -2,-3.1 -1.5,-3.7 -2.3,-7 z"
       fill="#ff9c57"
       id="path204" />
    <path
       d="m 256.901,199.3 c -1.4,1.7 -2.5,3.8 -3.6,5.7 -1.6,2.7 -3.2,5.5 -4.2,8.5 2.5,-1.5 4.9,-3 7.6,-4.1 -0.1,0 -0.2,-0.1 -0.2,-0.1 -0.2,-2.6 -0.5,-5.2 -0.1,-7.8 0.1,-0.9 0.3,-1.6 0.5,-2.2 z"
       fill="#f66a0a"
       id="path206" />
    <path
       d="m 224.3,225.7 c -0.4,-3.7 9,-11.9 2.8,-13.7 -0.4,-0.1 -0.6,-0.6 -0.4,-0.9 1.8,-2.5 5.2,-4.5 6,-7.4 0.8,-2.9 -1.2,-5.3 -3.9,-6 -1,-0.3 -2.4,-0.5 -3.2,-1.3 -0.9,-1 -0.8,-2.6 -2,-3.4 -1.9,-1.2 -4.9,0.1 -6.6,1 -2.8,1.5 -4.9,3.9 -7.1,6.1 -3.7,3.7 -8,8.5 -13.6,8.9 -6.2,0.5 -9.5,-4.5 -12.3,-9.2 0.6,4.3 3.9,11.8 11.9,11.6 8.5,-0.2 12.2,-4.4 16,-7.9 3.7,-3.6 10.3,-5 10.6,-0.2 0.3,4.7 -3.7,16.3 -3.1,20.1 0.6,3.8 2.3,6 9.2,5.8 0.5,0 1.1,-0.1 1.6,-0.2 -2.9,0.3 -5.6,0.1 -5.9,-3.3 z"
       fill="#ff7000"
       id="path208" />
    <path
       d="m 277.101,187.8 c 1,0.7 1.7,1.6 2.4,2.6 1.2,2 2.7,2.6 4.6,2.2 0.1,-0.7 0.1,-1.2 -0.2,-1.3 -0.9,-0.3 -1.9,0.5 -2.6,-0.1 -0.3,-0.3 -0.4,-0.7 -0.5,-1.2 -0.4,-1.8 -1.5,-3.5 -3,-4.5 -1,-0.7 -2.3,-1.1 -3.6,-1 -0.6,0.2 -1.2,0.3 -1.7,0.4 -0.4,0.1 -0.8,0.2 -1.2,0.2 -0.4,0.2 -0.8,0.3 -1.2,0.5 0.1,0.1 0.2,0.2 0.2,0.3 2.2,0 4.7,0.5 6.8,1.9 z M 232,188.4 c 4.8,6.2 5.3,14.5 4.3,22.2 1.5,-4.1 3,-8.4 2.8,-11.3 -0.3,-5.8 -5.1,-19.3 -17.2,-19.4 h -0.7 c 4.3,1.8 8.4,5.4 10.8,8.5 z"
       fill="#ffd1ac"
       opacity="0.8"
       id="path210" />
    <path
       d="m 255.3,226 -3.6,-0.3 c 0.8,0.4 1.4,1 1.8,1.8 0.3,0.6 0.3,1.1 0.2,1.5 1,0 2,-0.1 2.7,-0.1 0.5,0 0.9,-0.1 1.3,-0.4 0.5,-0.5 0.2,-1.5 -0.3,-1.9 -0.6,-0.5 -1.4,-0.6 -2.1,-0.6 z"
       fill="#f66a0a"
       id="path212" />
    <path
       d="m 283.8,192.4 a 0.9,0.9 0 1 0 0,-1.8 0.9,0.9 0 0 0 0,1.8 z"
       fill="#2f363d"
       id="path214" />
    <path
       d="m 256.501,209.2 c -3.1,0 -6.4,3.6 -7.7,4.7 7.1,-4.6 9.6,-2.5 10,1 0.1,0.6 0,1.1 -0.1,1.7 0.9,-1.2 1.5,-2.6 1.1,-4 -0.4,-1.6 -1.7,-3.4 -3.3,-3.4 z m 6.7,-10.6 v -4.4 c -0.7,0.1 -1.2,0.5 -1.6,1.5 -0.3,0.7 -0.4,3.2 0,3.8 0.8,1 4.5,-0.2 5.8,-0.4 1.5,-0.2 3,-0.3 4.5,-0.1 0,-0.2 0,-0.3 -0.1,-0.4 -0.7,-1 -8.6,0 -8.6,0 z"
       fill="#ffd1ac"
       opacity="0.8"
       id="path216" />
    <path
       d="m 132.2,208.6 c 0,0 1.1,8.5 3.3,10.8 2.2,2.4 11.3,8.7 11.8,7.4 -4.4,-5.5 -9.2,-19.3 -9.2,-19.3 z m -29.1,0.6 c -0.1,0 -0.2,0.1 -0.2,0.2 -0.1,0.2 0,0.4 0.1,0.5 1,1.8 1.8,3.7 2.4,5.7 0.4,1.4 1.1,3.4 2.5,2.7 2.3,-1.2 0.4,-4.2 0,-6.8 0.3,1.6 5.3,-0.3 7,-2.6 2.1,-3 -2.9,-3.5 -4.7,-3 -2.5,0.6 -4.9,2.2 -7.1,3.3 z"
       fill="#ff7000"
       id="path218" />
    <path
       d="m 122.5,190.8 c -3,-0.3 -6.2,-0.2 -9,1 -2.7,1.2 -4.8,3.3 -6.8,5.5 -0.6,0.7 -1.2,1.4 -2,1.8 -0.8,0.4 -1.6,0.6 -2.5,0.6 -4.1,0.1 -7.9,-2.1 -10.7,-5.1 -2.8,-3 -4.7,-6.7 -6.8,-10.2 -3.3,-5.6 -7.4,-11.2 -13.1,-14.3 -8,-4.3 -18.4,-3 -25.7,2.5 -7.4,5.4 -11.7,14.4 -12.3,23.4 -0.1,2 0.3,4.6 2.2,5.1 1,-1.9 2,-3.9 3,-5.8 1.5,-2.9 3.1,-5.8 5.6,-7.8 2.5,-2 6.4,-2.7 9,-0.9 2.1,1.5 2.9,4.1 3.2,6.6 0.3,2.5 0.1,5.1 0.7,7.6 1.4,6 7.3,10.2 13.3,11.4 4.4,0.9 9,0.4 13.1,-1.2 6.9,-2.7 12.9,-8.8 20.3,-8.3 1,2.6 3.5,4.4 6.2,5.1 2.7,0.7 5.5,0.6 8.3,0.5 -1.2,1.5 -2.4,2.9 -3.6,4.4 1.9,3.8 4.5,7.3 7.6,10.3 1.5,-3.8 0.3,-7.7 -2.1,-11 0.4,-0.9 1.8,-2.4 2.8,-2.7 2.7,1.5 9.9,1.1 13,0.6 -0.1,2.2 0.3,7.3 1.7,9.5 1.4,2.2 6,6.8 8.6,8.2 1.6,0.9 6.7,2.1 7.4,0.6 -6.2,-2.6 -12.3,-9 -12.3,-15.7 0,-3.3 2.8,-5.4 2.7,-8.2 -0.1,-2.4 -4,-5.2 -5.7,-6.6 -4.5,-3.8 -10.2,-6.2 -16.1,-6.9 z"
       fill="#ff9c57"
       id="path220" />
    <path
       d="m 88.2,201.9 c -2.4,0 -4.9,0.5 -6.8,-1.4 -0.7,-0.7 -1,-1.7 -1.5,-2.5 -1.4,-2.2 -3.2,-2.5 -5.7,-2.3 -3.1,0.2 -4.2,-1 -5.4,-3.8 -3.5,-7.9 -12.4,-14 -20.9,-9.4 -6.6,3.5 -10.6,11.2 -12.3,18.2 0,0.1 -0.1,0.1 -0.1,0.2 0.1,0.1 0.3,0.1 0.4,0.2 1,-1.9 2,-3.9 3,-5.8 1.5,-2.9 3.1,-5.8 5.6,-7.8 2.5,-2 6.4,-2.7 9,-0.9 2.1,1.5 2.9,4.1 3.2,6.6 0.3,2.5 0.1,5.1 0.7,7.6 1.4,6 7.3,10.2 13.3,11.4 4.4,0.9 9,0.4 13.1,-1.2 4.9,-1.9 9.4,-5.5 14.2,-7.3 -3,-1.4 -6.3,-1.8 -9.8,-1.8 z"
       fill="#ff7000"
       id="path222" />
    <path
       d="m 121.1,199.3 c 0.1,0 5.9,3.9 5.8,5.7 -0.1,1.8 -5.2,4.6 -5.2,4.6 0,0 2.5,-3.2 2,-5.1 -0.5,-1.9 -2.6,-5.2 -2.6,-5.2 z"
       fill="#ffd1ac"
       opacity="0.6"
       id="path224" />
    <path
       d="m 142.6,201 c -0.6,2 -1.7,3.8 -2.2,5.8 -0.7,2.9 0,5.3 1.4,7.4 -0.1,-0.6 -0.2,-1.2 -0.2,-1.8 0,-3.3 2.8,-5.4 2.7,-8.2 0.1,-1.1 -0.7,-2.2 -1.7,-3.2 z"
       fill="#fb8532"
       id="path226" />
    <path
       d="m 146.6,197 c 1.5,-0.6 2.7,0.9 1.7,4.6 h 1.9 c -0.3,-1 -0.5,-2.1 -0.3,-3.1 0.2,-1 0.8,-1.5 1.8,-1.5 1,0.1 1.4,0.9 1.4,2 0,1 -0.2,2 -0.7,2.9 2.3,1.6 3.6,4.5 3.2,7.3 -0.1,1 -0.4,2 -0.5,2.9 0,1 0.4,2.1 1.3,2.5 0.5,0.2 1.1,0.2 1.6,0.4 0.5,0.2 1.1,0.6 1,1.2 -0.1,0.5 -0.5,0.8 -0.9,1 -3.1,1.5 -7,1.6 -10.1,0 -2.8,-1.3 -5,-4 -5.4,-7 -0.3,-2 0.4,-4 1.6,-5.6 0.5,-0.5 1.9,-1.2 2.1,-1.9 -0.6,-1 -1.7,-4.9 0.3,-5.7 z"
       fill="#ff9c57"
       id="path228" />
    <path
       d="m 158.2,216.7 a 0.9,0.9 0 1 0 0,-1.8 0.9,0.9 0 0 0 0,1.8 z"
       fill="#2f363d"
       id="path230" />
    <path
       d="m 76.2,180.6 c 3.5,3.9 6.1,8.4 9.4,12.5 3.5,4.2 7.7,6.9 12.9,8.2 0.4,-0.1 0.7,-0.1 1.1,-0.2 -3.6,-0.3 -6.9,-2.4 -9.4,-5.1 -2.8,-3 -4.7,-6.7 -6.8,-10.2 -3.3,-5.6 -7.4,-11.2 -13.1,-14.3 -4,-2.1 -8.5,-2.9 -13,-2.4 7.3,1.4 14.2,6.1 18.9,11.5 z m 56.9,16.3 c 3.2,1.8 5.7,4.5 7.9,7.3 0.2,-0.8 0.4,-1.5 0.7,-2.3 -1.7,-1.9 -3.5,-3.6 -5.7,-5 -4.8,-3.2 -10.4,-4.1 -15.9,-5 0.6,0.3 1.3,0.6 1.9,0.9 3.6,1.4 7.6,2.1 11.1,4.1 z"
       fill="#ffd1ac"
       opacity="0.6"
       id="path232" />
    <path
       d="m 446.3,174.2 c -0.2,-1.1 51.6,-60.7 56,-64.8 4.4,-4.1 44.3,-51 47.1,-52.6 1.8,-3.9 -4.1,-7.2 -6.7,-5.4 -2.4,4.8 -44.3,54.3 -48.1,58.4 -3.8,4.1 -34.2,36.9 -47.5,47.4 -2.9,8 -5.5,9.3 -7.6,11.7 -0.4,1.2 0.1,2.9 2.5,4.5 2.5,1.5 4.3,0.8 4.3,0.8 z"
       fill="#f9c513"
       id="path234" />
    <path
       d="m 535.6,68.1 c -3.8,3.7 -18,20.5 -21.7,24.9 -8,9.5 -41,46.8 -49.4,56.2 -3.9,4.4 -18.9,19.8 -22.8,23.7 0.2,0.1 0.3,0.2 0.5,0.4 2.4,1.6 4.2,0.9 4.2,0.9 -0.2,-1.1 51.6,-60.7 56,-64.8 4.5,-4.1 44.3,-51 47.1,-52.6 0.5,-1.2 0.4,-2.3 -0.2,-3.2 -4.2,5.2 -9,9.9 -13.7,14.5 z"
       fill="#ffdf5d"
       id="path236" />
    <path
       d="m 440.7,167.7 c -0.4,0.4 -0.7,0.7 -1,1.1 -0.4,1.2 0.1,2.9 2.5,4.5 2.4,1.6 4.2,0.9 4.2,0.9 0,-0.1 0.2,-0.4 0.7,-1 -1.6,-2.5 -3.7,-4.4 -6.4,-5.5 z"
       fill="#dbab09"
       id="path238" />
    <g
       stroke="#0366d6"
       stroke-miterlimit="10"
       stroke-width="1.633"
       id="g266">
      <path
         d="m 393.2,59.7 c -2.4,-8.4 -9.4,-11.7 -11.8,-12.2 -0.5,-0.1 -0.9,0.4 -0.8,0.9 l 3.1,11.3 c 0,0 -6.4,8.9 -6.4,18.2 0,9.3 1,12.9 0,15.8 -1,2.9 -2.2,9.3 2.2,16.3 8.2,13.1 20.9,16.5 20.9,16.5"
         id="path240" />
      <path
         d="m 380.9,47.6 c 0,0 5.7,-6.4 19.8,-1.4 0,0 14.1,-7.5 31.1,-1.1 17,6.4 21.6,16.8 21.6,16.8"
         id="path242" />
      <path
         d="m 437.6,69 c 0,0 10.6,-9.1 19.7,-7.1 8.6,6.6 3,23.8 1,26.3"
         id="path244" />
      <path
         d="m 444.9,68.3 c 0,0 7.5,-4.5 9.1,-2.8 1.9,2 1.2,13 0.5,17.1 M 377.2,78 c 0,0 0.8,-11.9 7.1,-9.9 6.3,2 9.8,15.4 16.7,17.2 6.8,1.8 31.8,-6 40.6,1.5 8.8,7.6 4.8,16.4 3.3,19.4 -1.5,3 -6.3,10.7 -6.3,10.7 0,0 6.3,5.9 -6.8,10.2"
         id="path246" />
      <path
         d="m 460.6,82.7 c 0,0 3,17.8 -4.9,28.5 -8.5,11.6 -26.9,19.7 -44,17.9"
         id="path248" />
      <path
         d="m 412.2,130.9 c 0,0 -1.2,-5.4 -6.1,-5.8 -4.9,-0.3 -16.7,7.7 -22.8,17.1 -6.1,9.4 -5.1,13.8 1.8,18.9 5.2,3.8 18.3,6.7 30.1,5.5 l 14.3,-1.4 c 0,0 1.2,0.3 1.5,1.8 0,0.9 -2.2,7.6 1.5,8.1 3.7,0.6 4.2,-2.2 4.2,-4.9 3.1,-1.8 10.2,-5.9 10.5,-17.4 0.3,-11.6 -8.3,-18.6 -18,-17.2 -9.7,1.5 -25.5,7.5 -34.3,5.5 m 13,-9.9 c 0,0 -5,5.8 -5.1,10.1 m 17.8,-3.9 -5.4,-8.1 m -2,3.5 1.3,6.2 m -13.925,-23.338 c 0.497,-0.861 -0.767,-2.522 -2.824,-3.709 -2.056,-1.188 -4.126,-1.452 -4.623,-0.591 -0.498,0.861 0.767,2.521 2.823,3.708 2.057,1.188 4.127,1.453 4.624,0.592 z"
         id="path250" />
      <path
         d="m 399.1,126.6 c 0,0 -35.4,10 -51.5,18 -16.1,8 -51.6,28 -50.2,33.6 1.5,5.6 31.3,-5.3 40.9,-9.5 10.8,-4.8 42.1,-21.3 42.1,-21.3 m 13,17.3 c 0,0 -12.2,15.1 -19.3,19.4 -6.9,4.2 -26,14.3 -27.5,17 -2.2,4 -4.8,18.2 9.3,25.3 6.1,3.1 20.4,4.2 26.4,0.7 6,-3.5 5.7,-4.8 5.1,-5.4 -1.5,-1.3 -17.4,7.8 -24.3,6.8"
         id="path252" />
      <path
         d="m 358.7,206.6 c 0.5,-0.5 15.3,-2.5 21.5,3 5,4.5 4.6,12.6 3.8,12.8 m -3.8,-12.8 c 0,0 11.9,-6.4 20.1,-18.6 8.2,-12.2 12,-24.3 12,-24.3 m 2.9,-0.2 14.1,47.6 c 0,0 4.1,8.8 11,8.3 6.8,-0.5 20.5,-5.2 26.3,-12.8 2.9,-3.8 6.3,-10.3 4.9,-12.6 -1.6,-2.5 -3.7,-1.3 -4.9,-0.9 -1.8,-0.7 -13.9,-1.6 -17.5,4.6 m -13.5,-26.5 c 0,0 10.6,22.8 15.4,30.4 m 5.5,-94.6 c 0,0 26.6,-14.2 36.2,-17.2 9.7,-3 18.5,-6.4 23.3,-1.2 4.8,5.2 0.9,15.9 -2.3,19.9 -3.7,4.5 -10,9.5 -18.3,9.5 0,0 -10.4,0.7 -11.2,-9 -2.3,1.1 -5.8,0.9 -3.7,-2.6 3,-5 9,-11.3 25.1,-13.2"
         id="path254" />
      <path
         d="m 416.1,129.3 c 0,0 11.6,2.4 28.8,-0.8 17.2,-3.2 39.6,-15 39.6,-15"
         id="path256" />
      <path
         d="m 364.6,81.8 c 7.3,3 12.5,11.8 12.5,11.8 m -12.5,-3 c 3.5,0.3 9.5,2.5 11.8,6.2"
         stroke-linecap="round"
         id="path258" />
      <path
         d="m 444.3,117.3 c 4.6,0.5 17.6,6.7 21.2,11.6"
         id="path260" />
      <path
         d="m 463.4,126.7 c 0.9,0.8 1.6,1.5 2.1,2.2 m -19.9,-8.3 c 3.4,2 10.4,8.7 12.3,13.5"
         stroke-linecap="round"
         id="path262" />
      <path
         d="m 322.102,166.524 c 6.887,-3.976 11.888,-8.208 11.17,-9.451 -0.718,-1.244 -6.883,0.972 -13.77,4.948 -6.888,3.977 -11.889,8.208 -11.171,9.452 0.718,1.243 6.883,-0.972 13.771,-4.949 z m 32.601,-18.87 c 6.512,-3.024 11.433,-6.247 10.991,-7.199 -0.442,-0.952 -6.079,0.728 -12.591,3.752 -6.512,3.024 -11.433,6.247 -10.991,7.199 0.442,0.952 6.079,-0.728 12.591,-3.752 z M 391.3,133.1 c -1.4,0.7 -4.8,2.2 -6.2,2.7 -6.1,2.2 -11.3,3.4 -11.6,2.6 -0.3,-0.8 4.4,-3.2 10.5,-5.4 4.3,-1.6 8.9,-2.6 10.9,-2.8 m 25.2,52.9 c 0,0 1.6,2.1 2.7,1.8 1.1,-0.3 1.5,-7.8 0,-12.3 -1.5,-4.5 -3.6,-6.5 -3.9,-6.4 m 4.2,27 c 0.1,0.4 4.7,0.3 7.4,9.4 2.7,9.1 2,14.3 0,13.6 m 50.6,-107.6 c -6.9,0 -16.3,7.5 -15.7,8.7 1.3,2.5 13.6,-1.1 13.6,-1.1 m -38.7,13 c 0,0 20.8,-7.2 21.6,-9.3 0.8,-2.1 -15.1,-0.2 -15.7,0.2"
         id="path264" />
    </g>
    <path
       d="m 619,86.2 c -10,5.8 -20.9,9 -33.4,12 -18,4.3 -37,6.4 -37,6.4 l 26.5,-36.8 36.2,-15.6 15.6,23.6 c 0,0 -2,2.8 -7.9,10.4 z"
       fill="#e1e4e8"
       id="path268" />
    <path
       d="m 652.4,137.4 c -13.5,6.1 -137.8,40.5 -171.3,42.3 l 57.8,-71.1 h 10.9 c 10.8,0 22,-2.8 31.7,-4 9.7,-1.2 33.1,-7.2 43.9,-16.4 3.2,-2.7 6.8,-9.6 6.8,-9.6 l 27,40.4 c -0.1,0 6.7,12.4 -6.8,18.4 z"
       fill="#e1e4e8"
       id="path270" />
    <path
       d="m 575.1,67.8 25.3,-39.7 18.6,37 -9.6,-3.5 -5.3,17.7 -7,-14.2 -8.9,16.7 0.5,-11.2 -9.7,8.7 v -8.7 l -13.5,16.5 z"
       fill="#f6f8fa"
       id="path272" />
    <path
       d="m 686.9,205.7 7.9,-59.4 2.5,-71 c 0,0 3.4,-1.3 7.6,1.1 4.3,2.4 5.7,5.7 5.7,5.7 l -7.6,57.1 1.6,66.6 -8.4,7.3 z"
       fill="#f9c513"
       id="path274" />
    <path
       d="m 710.5,82 c 0,0 -1.4,-3.3 -5.7,-5.7 -0.4,-0.2 -0.8,-0.4 -1.1,-0.5 -0.7,5.4 -0.2,10.9 -0.1,16.4 0,6.2 -0.5,12.4 -1.4,18.6 -1.6,12.7 -2.7,25.5 -2.9,38.2 -0.1,6.5 0.5,12.9 0.6,19.3 0.1,6 -0.4,12.1 -1.4,18 -1.3,8.1 -3.5,16 -5.9,23.8 l 3.5,2.8 8.4,-7.3 -1.6,-66.6 z"
       fill="#dbab09"
       id="path276" />
    <path
       d="m 676.8,93.9 c -1.2,0.1 -3.8,47 -3.8,47 l 48.9,5.3 4.1,-56.9 z"
       fill="#ffea7f"
       id="path278" />
    <path
       d="m 725.9,89.4 -4,56.9 6.1,6.8 7.8,-50.5 z"
       fill="#f9c513"
       id="path280" />
    <path
       d="m 692.1,128.2 -9.2,-13.5 12.2,-8.3 v 7.1 l 16.6,-1.6 -2.3,15.3 -16.3,-6 z"
       fill="#dbab09"
       id="path282" />
    <path
       d="m 690.6,125.6 -8.9,-12.6 11.9,-7.8 v 6.7 l 16,-1.6 -2.3,14.3 -15.7,-5.5 z"
       fill="#ffd33d"
       id="path284" />
    <path
       d="m 708.4,216.1 c 0,0 3,-31.3 1.9,-35.8 -0.7,2.6 -13.3,22.9 -13.3,22.9 v -19.9 c 0,0 -2.8,9.1 -3.7,11.9 -0.9,-4.2 -7.5,-16.8 -6.5,-15.4 1,1.4 1.2,14.7 0,14.7 -0.9,-0.2 -4.4,-12.4 -8,-16.4 1.4,1.4 2.3,11.7 3.5,16.8 -0.5,-1.9 -9.9,-8.4 -14.5,-9.4 0.5,3 7.3,8.7 8.7,12.6 1.4,3.9 -0.9,8.4 -0.9,8.4 l 8.7,6.5 z"
       fill="#cccfd2"
       id="path286" />
    <path
       d="m 692.2,215.7 c -0.2,-0.7 4.8,-16.9 4.8,-16.9 0,0 15,-9.2 17.6,-10.8 2.6,-1.5 6.4,-1.3 6.4,-1.3 l 8.1,-3.1 c 0,0 22.5,5.9 23.1,6.2 0.7,0.2 4.6,7.5 6.4,9.9 1.8,2.4 2.6,4 2.9,7.9 l 0.2,4 -11.9,12.8 h -13.6 c 0,0 -9.7,3.7 -11.9,3.1 -2.2,-0.7 -10.1,-2.6 -13,-5.1 -2.8,-2.5 -19.1,-6.7 -19.1,-6.7 z"
       fill="#c0c4c8"
       id="path288" />
    <path
       d="m 721.9,189.4 c 0,0 -1.2,-11.4 9.5,-23.5 m 0.6,0.7 a 1.5005001,1.5005001 0 1 0 -10e-4,-3.001 1.5005001,1.5005001 0 0 0 10e-4,3.001 z m 6,3.7 a 1.4,1.4 0 1 0 0,-2.8 1.4,1.4 0 0 0 0,2.8 z"
       stroke="#c2ccd7"
       stroke-miterlimit="10"
       stroke-width="1.307"
       id="path290" />
    <path
       d="m 726.2,173.1 c 0,0 3,1.7 5.7,0 2.7,-1.7 5.1,-3.8 5.1,-3.8"
       stroke="#c2ccd7"
       stroke-miterlimit="10"
       stroke-width="1.307"
       id="path292" />
    <path
       d="m 711.2,178.2 c -0.5,-1.7 -0.8,-3.4 -0.4,-5.1 0.2,-0.8 0.7,-1.7 1.5,-1.7 0.4,0 0.7,0.2 1,0.5 0.7,0.5 1.3,1.2 1.8,1.9 4.2,5 7.4,10.9 9.4,17.2 -0.2,-3.1 1.4,-6.2 3.8,-8.2 2.4,-2 5.4,-3.2 8.4,-4 1.1,-0.3 2.5,-0.5 3.3,0.4 0.6,0.6 0.7,1.5 0.4,2.2 -0.2,0.8 -0.8,1.4 -1.3,1.9 -1.3,1.2 -3,2.1 -4.5,3 -3.4,1.9 -6.6,4.1 -9.6,6.6 -0.3,0.2 -0.6,0.5 -0.9,0.5 -0.2,0 -0.4,0 -0.7,-0.1 -6.4,-1.8 -10.5,-9.3 -12.2,-15.1 z"
       fill="#bcc7d1"
       opacity="0.5"
       id="path294" />
    <path
       d="m 717.3,210 c 3.1,-3 7.8,-6.5 11.2,-8.6 2.8,0.6 5.4,0.1 7.6,0.4 4.6,-4 9.9,-8.7 14.6,-12.6 -5.4,-1.4 -21.4,-5.7 -21.4,-5.7 l -8.1,3.1 c 0,0 -3.7,-0.2 -6.4,1.3 -2.1,1.2 -12.1,7.4 -16,9.8 2.4,3.9 14.6,9.4 18.5,12.3 z"
       fill="#e4e9ee"
       id="path296" />
    <path
       d="m 673,141 v 4 l 55,8.1 -6.1,-6.8 z"
       fill="#dbab09"
       id="path298" />
    <path
       d="m 648.1,74.9 c 0.5,-1.4 15.7,-19 15.7,-19 L 680.7,77 h -2.8 l 7.5,8 c 0,0 -9.8,0.9 -11.2,-1.9 -1,2 -3.7,5.5 -4.9,5.1 -1.2,-0.4 -7.6,-8.6 -7.6,-8.6 0,0 -6.5,11.8 -7.5,11.4 -1,-0.4 -3.3,-15.2 -3.3,-15.2 l -3.8,3.3 2,-3.3 z"
       fill="#fafbfc"
       id="path300" />
    <path
       d="m 750.6,189.3 c -5.4,-1.4 -21.4,-5.7 -21.4,-5.7 l -8.1,3.1 c 0,0 -3.7,-0.2 -6.4,1.3 -2.1,1.2 -12.1,7.4 -16,9.8"
       stroke="#e1e4e8"
       stroke-miterlimit="10"
       stroke-width="0.327"
       id="path302" />
    <path
       d="m 146,199.5 c 1.9,-0.2 0.8,3.2 1.9,3.6 0.8,0.3 1.9,-0.4 2.9,0.1 1,0.4 1.8,1.4 2.3,2.3 0.7,1.4 0.7,2.8 0.6,4.3 -0.1,2.1 0.1,4.1 2.4,4.7 -0.7,-0.5 -1.1,-1.5 -1.1,-2.4 0,-1 0.3,-2 0.5,-2.9 0.4,-2.8 -0.9,-5.7 -3.2,-7.3 0.5,-0.9 0.7,-1.8 0.7,-2.9 0,-1 -0.4,-1.9 -1.4,-2 -1,-0.1 -1.6,0.5 -1.8,1.5 -0.2,1 0.1,2.1 0.3,3.1 h -1.9 c 1.1,-3.7 -0.2,-5.2 -1.7,-4.6 -1,0.4 -1.2,1.5 -1.1,2.6 0.2,-0.1 0.4,-0.1 0.6,-0.1 z"
       fill="#ffd1ac"
       opacity="0.6"
       id="path304" />
  </g>
</svg>
