<svg xmlns="http://www.w3.org/2000/svg" fill="none" height="152.854" width="512.002"><path d="m403.053 76.003 13.374 2.61s17.94 17.288-18.267 30.335c-36.207 13.048 113.842 16.31 113.842 16.31l-294.879 1.631c37.578-2.479 59.367-4.893 116.451-18.267 38.882-9.133 68.37-19.44 69.48-32.62z" fill="#fafbfc"/><path d="M44.11 151.354c20.538 0 37.186-1.636 37.186-3.654s-16.648-3.653-37.186-3.653c-20.537 0-37.185 1.635-37.185 3.653s16.648 3.654 37.185 3.654zm91.335 0c9.08 0 16.44-1.636 16.44-3.654s-7.36-3.653-16.44-3.653c-9.08 0-16.44 1.635-16.44 3.653s7.36 3.654 16.44 3.654zm99.75 1.5c23.527 0 42.6-3.067 42.6-6.85 0-3.783-19.073-6.85-42.6-6.85-23.528 0-42.601 3.067-42.601 6.85 0 3.783 19.073 6.85 42.6 6.85z" fill="#cacfd6"/><path d="m495.953 124.54-84.419-1.826-8.807-26.096c2.283-.848 5.154-2.087 7.568-3.392 4.827-2.675 5.35-9.655 3.327-14.222-1.435-.587-5.22-.718-5.22-.718s.718 3.262.327 6.263c-.261 2.153-5.284 4.697-8.09 5.937l-10.242-30.401c1.566-.914 16.962-18.593 16.962-18.593h6.915l29.619 33.402 9.785-5.023z" fill="#f0f3f5"/><path d="M413.687 79.004s4.567 11.939-5.089 15.461c-9.655 3.523-40.252 13.831-35.228 18.398 11.351 10.438 54.278 11.612 54.278 11.612s-2.936-18.07-5.219-26.03z" fill="#e1e4e8"/><path d="m18.994 114.82 11.873-17.615 1.11 8.742 8.676-14.743 2.022 5.675 4.11-9.916 4.567 13.765 7.176-20.745 5.35 17.157 7.502-10.177s-8.09 2.805-8.09 2.088c0-.718 10.96-14.418 10.96-14.418s-10.046 3.588-10.046 2.805c0-.717 8.546-8.22 11.417-12.917 2.935-4.697 8.155-21.007 8.155-21.007s8.35 20.094 12.786 22.312c1.436-3.197 6.002-12.396 6.002-12.396l-9.068 3.784s13.7-27.27 15.331-33.467c1.631-6.198 1.24-4.045 4.306 1.305 2.088 4.566 4.567 19.506 12.134 28.052 7.177 6.394-5.154 1.827-5.154 1.827l11.156 20.224 9.786-18.006 5.806 13.961 8.677-18.136-9.786 6.524s8.742-12.2 10.634-21.79c1.892-9.655 4.175-24.921 4.175-24.921l12.33 22.311S184.634 4.175 185.091 0c1.37 14.744 20.028 50.038 20.028 50.038s7.177-14.679 7.829-20.093c2.283 5.414 31.575 94.726 31.575 94.726s-82.722 5.089-115.015 5.219c-32.293.13-94.14.522-99.815-2.61-5.676-3.131-10.7-12.46-10.7-12.46z" fill="#eef1f3"/><path d="M243.871 124.214s46.972-4.24 52.843-8.35" stroke="#e1e4e8" stroke-miterlimit="10" stroke-width=".85267373"/><path d="M145.296 135.37s3.197-.913 3.654.718c.521 1.565-3.654 7.959-3.654 7.959s4.763-.392 4.958.587c-3.457.522-7.567.457-7.828.652-.261.196 2.87-9.916 2.87-9.916z" fill="#f66a0a"/><path d="M155.342 129.499c-.326-.653-5.545 0-5.545 0v-3.132s3.98-1.174 4.175-2.087c.587-2.284-4.11-.588-4.893-.392a19.349 19.349 0 0 0-9.003 4.697c-3.522 3.262-5.675 7.894-6.001 12.657-.066.978 0 2.022.26 3-1.043.849-2.674 1.827-3.914 1.044-1.827-1.304 3.85-10.83 3.588-15.33-.195-3.785-3.327-12.592-11.22-12.657-6.329-.065-9.917 2.544-12.33 8.09-2.415 5.545-3.98 8.415-6.59 8.154-2.61-.26-3.719.196-5.806-3.783.196 2.674 2.283 8.22 7.828 8.09 5.546-.131 7.96-2.871 10.439-5.155 2.413-2.348 6.72-3.262 6.915-.13.196 3.066-2.414 10.634-2.022 13.113.39 2.479 1.5 3.914 6.001 3.784 3.85-.13 6.524-2.806 7.633-3.98.457.718 1.175 1.37 2.023 1.566.13.065.26.065.391.13.326.196-.652 1.5-.783 1.827-.13.326 6.002.587 8.873.326.326 0 .587-.065.848-.26.326-.327.13-.98-.196-1.24-.391-.261-.848-.327-1.37-.392-1.566-.13-3.197-.26-4.762-.391a32.402 32.402 0 0 0 6.263-4.893c.913-.913 1.826-2.218 1.5-3.458-.26-1.044-1.24-1.696-2.153-2.218-.13-1.696-.326-3.392-.065-5.088.196-1.37.522-2.35 1.37-3.197 0 0 .457 4.175 1.631 4.697 1.174.522 5.284-1.696 5.284-1.696s.653 1.566.848 1.5c.066-.13 1.11-2.479.783-3.196z" fill="#ff9c57"/><path d="M152.538 122.061c-.587-.326-.914-2.087-.457-2.283.457-.196 1.631.457 1.631 1.435.326-.13 1.044-.326 1.174-.522-.26-.26-.456-.195-.652-.913-.261-.979.522-1.24.848-.913.391.26.848 1.174.652 1.761 1.11-.587 2.48-.26 3.523.392 1.044.652 1.696 1.761 1.957 2.935.066.261.13.587.327.783.456.392 1.174-.13 1.696.065.456.13-.13 2.023-.522 2.284a9.511 9.511 0 0 1-3.784 1.435c-1.24.196-2.61.13-3.653-.587-.522-.326-.914-.848-1.24-1.305-1.305-2.022-.978-2.414-1.5-4.567z" fill="#ff9c57"/><path d="M145.688 129.955c-.914 1.11-1.631 2.48-2.349 3.719-1.044 1.761-2.088 3.588-2.74 5.545 1.631-.978 3.197-1.957 4.958-2.675-.065 0-.13-.065-.13-.065-.13-1.696-.327-3.392-.066-5.088a6.715 6.715 0 0 1 .327-1.436z" fill="#f66a0a"/><path d="M124.42 147.178c-.262-2.414 5.87-7.763 1.826-8.937-.261-.066-.392-.392-.261-.588 1.174-1.63 3.392-2.935 3.914-4.827.522-1.892-.783-3.458-2.544-3.915-.652-.195-1.566-.326-2.088-.848-.587-.652-.522-1.696-1.304-2.218-1.24-.783-3.197.065-4.306.653-1.827.978-3.197 2.544-4.632 3.98-2.414 2.413-5.22 5.544-8.873 5.805-4.044.327-6.197-2.935-8.024-6.002.391 2.806 2.544 7.699 7.763 7.568 5.546-.13 7.96-2.87 10.439-5.154 2.413-2.348 6.72-3.262 6.915-.13.196 3.066-2.414 10.634-2.022 13.113.39 2.479 1.5 3.914 6.001 3.784.327 0 .718-.066 1.044-.13-1.892.195-3.653.064-3.849-2.154z" fill="#ff7000"/><path d="M158.866 122.453c.652.456 1.109 1.044 1.566 1.696.782 1.305 1.761 1.696 3 1.435.066-.456.066-.783-.13-.848-.587-.196-1.24.326-1.696-.065-.196-.196-.261-.457-.326-.783-.261-1.174-.979-2.283-1.958-2.936a3.67 3.67 0 0 0-2.348-.652c-.392.13-.783.196-1.11.26-.26.066-.521.131-.782.131-.261.13-.522.196-.783.327.065.065.13.13.13.195 1.436 0 3.067.326 4.437 1.24zm-29.423.391c3.131 4.045 3.457 9.46 2.805 14.483.978-2.675 1.957-5.48 1.827-7.372-.196-3.784-3.328-12.59-11.222-12.656h-.456c2.805 1.174 5.48 3.523 7.046 5.545z" fill="#ffd1ac" opacity=".8"/><path d="m144.643 147.374-2.348-.196a2.56 2.56 0 0 1 1.174 1.175c.196.391.196.717.13.978.653 0 1.305-.065 1.762-.065.326 0 .587-.065.848-.261.326-.326.13-.979-.196-1.24-.391-.326-.913-.391-1.37-.391z" fill="#f66a0a"/><path d="M163.236 125.454a.587.587 0 1 0 0-1.174.587.587 0 0 0 0 1.174z" fill="#2f363d"/><path d="M145.427 136.414c-2.023 0-4.176 2.348-5.024 3.066 4.632-3 6.263-1.63 6.524.652.065.392 0 .718-.065 1.11.587-.783.978-1.697.718-2.61-.261-1.044-1.11-2.218-2.153-2.218zm4.37-6.915v-2.87c-.456.064-.782.325-1.043.978-.196.456-.261 2.087 0 2.479.522.652 2.936-.13 3.784-.261.978-.13 1.957-.196 2.935-.065 0-.13 0-.196-.065-.261-.456-.653-5.61 0-5.61 0z" fill="#ffd1ac" opacity=".8"/><path d="M64.334 136.022s.718 5.546 2.153 7.046c1.436 1.566 7.372 5.676 7.698 4.828-2.87-3.588-6.001-12.591-6.001-12.591zm-18.984.392a.14.14 0 0 0-.13.13c-.066.13 0 .261.065.327a18.693 18.693 0 0 1 1.566 3.718c.26.913.717 2.218 1.63 1.762 1.501-.783.261-2.74 0-4.437.196 1.044 3.458-.195 4.567-1.696 1.37-1.957-1.892-2.283-3.066-1.957-1.631.391-3.197 1.435-4.632 2.153z" fill="#ff7000"/><path d="M58.006 124.41c-1.957-.196-4.044-.13-5.871.652-1.762.783-3.132 2.153-4.436 3.588-.392.457-.783.914-1.305 1.175a3.537 3.537 0 0 1-1.631.391c-2.675.065-5.154-1.37-6.98-3.327-1.827-1.957-3.067-4.37-4.437-6.654-2.153-3.654-4.828-7.307-8.546-9.33-5.22-2.805-12.004-1.957-16.766 1.632C3.206 116.059.4 121.93.009 127.802c-.065 1.305.196 3.001 1.435 3.328.653-1.24 1.305-2.545 1.958-3.784.978-1.892 2.022-3.784 3.653-5.089 1.63-1.305 4.175-1.761 5.871-.587 1.37.979 1.892 2.675 2.088 4.306.196 1.63.065 3.327.457 4.958.913 3.914 4.762 6.654 8.676 7.437 2.871.587 5.872.261 8.547-.783 4.501-1.761 8.416-5.74 13.243-5.415.653 1.697 2.284 2.87 4.045 3.328 1.761.456 3.588.391 5.415.326-.783.978-1.566 1.892-2.349 2.87 1.24 2.48 2.936 4.763 4.958 6.72.979-2.48.196-5.024-1.37-7.176.261-.588 1.175-1.566 1.827-1.762 1.761.979 6.459.718 8.481.392-.065 1.435.196 4.762 1.11 6.197.912 1.435 3.913 4.436 5.61 5.35 1.043.587 4.37 1.37 4.827.391-4.045-1.696-8.024-5.871-8.024-10.242 0-2.153 1.827-3.523 1.761-5.35-.065-1.566-2.61-3.392-3.718-4.306-2.936-2.479-6.655-4.044-10.504-4.501z" fill="#ff9c57"/><path d="M35.63 131.651c-1.566 0-3.197.327-4.437-.913-.456-.457-.652-1.109-.978-1.63-.914-1.436-2.088-1.632-3.719-1.501-2.022.13-2.74-.653-3.523-2.48-2.283-5.153-8.09-9.133-13.635-6.132-4.305 2.284-6.915 7.307-8.024 11.874 0 .065-.065.065-.065.13.065.065.195.065.26.13.653-1.239 1.305-2.544 1.958-3.783.978-1.892 2.022-3.784 3.653-5.089 1.631-1.305 4.175-1.761 5.872-.587 1.37.979 1.892 2.675 2.087 4.306.196 1.63.066 3.327.457 4.958.913 3.914 4.762 6.654 8.677 7.437 2.87.587 5.871.261 8.546-.783 3.197-1.24 6.132-3.588 9.264-4.762-1.957-.914-4.11-1.175-6.394-1.175z" fill="#ff7000"/><path d="M57.093 129.955c.065 0 3.85 2.545 3.784 3.719-.065 1.174-3.393 3-3.393 3s1.631-2.087 1.305-3.326c-.326-1.24-1.696-3.393-1.696-3.393z" fill="#ffd1ac" opacity=".6"/><path d="M71.12 131.064c-.392 1.305-1.11 2.48-1.436 3.784-.457 1.892 0 3.458.913 4.828-.065-.392-.13-.783-.13-1.174 0-2.153 1.827-3.523 1.761-5.35.066-.718-.456-1.435-1.109-2.088z" fill="#fb8532"/><path d="M73.729 128.455c.978-.392 1.761.587 1.109 3h1.24c-.196-.652-.327-1.37-.196-2.022.13-.652.522-.978 1.174-.978.652.065.913.587.913 1.305 0 .652-.13 1.304-.456 1.891 1.5 1.044 2.348 2.936 2.087 4.763-.065.652-.26 1.305-.326 1.892 0 .652.261 1.37.848 1.63.326.131.718.131 1.044.262.326.13.718.391.652.783-.065.326-.326.521-.587.652-2.022.979-4.566 1.044-6.589 0-1.827-.848-3.262-2.61-3.523-4.567-.195-1.305.261-2.61 1.044-3.653.326-.326 1.24-.783 1.37-1.24-.391-.652-1.109-3.196.196-3.718z" fill="#ff9c57"/><path d="M81.296 141.307a.587.587 0 1 0 0-1.175.587.587 0 0 0 0 1.175z" fill="#2f363d"/><path d="M27.8 117.756c2.284 2.544 3.98 5.48 6.133 8.154 2.284 2.74 5.024 4.502 8.416 5.35.261-.065.457-.065.718-.13-2.349-.196-4.502-1.566-6.133-3.328-1.826-1.957-3.066-4.37-4.436-6.654-2.153-3.653-4.828-7.307-8.546-9.33-2.61-1.37-5.546-1.891-8.481-1.565 4.762.914 9.264 3.98 12.33 7.503zm37.122 10.634c2.087 1.174 3.718 2.935 5.153 4.762.13-.522.261-.979.457-1.5-1.109-1.24-2.283-2.35-3.718-3.262-3.132-2.088-6.785-2.675-10.373-3.262.391.195.848.391 1.24.587 2.348.913 4.957 1.37 7.24 2.675z" fill="#ffd1ac" opacity=".6"/><path d="M269.249 113.58c-.13-.717 33.663-39.6 36.533-42.274 2.871-2.675 28.901-33.272 30.728-34.316 1.174-2.544-2.675-4.697-4.371-3.523-1.566 3.132-28.9 35.425-31.38 38.1-2.479 2.675-22.312 24.073-30.988 30.923-1.892 5.219-3.588 6.067-4.958 7.633-.261.783.065 1.892 1.63 2.935 1.632.979 2.806.522 2.806.522z" fill="#f9c513"/><path d="M327.507 44.362c-2.48 2.414-11.743 13.374-14.157 16.245-5.219 6.197-26.748 30.531-32.228 36.664-2.544 2.87-12.33 12.917-14.874 15.461.13.066.196.13.326.261 1.566 1.044 2.74.587 2.74.587-.13-.717 33.663-39.6 36.534-42.274 2.935-2.675 28.9-33.272 30.727-34.316.326-.783.261-1.5-.13-2.087-2.74 3.392-5.872 6.458-8.938 9.46z" fill="#ffdf5d"/><path d="M265.595 109.34c-.26.26-.456.457-.652.717-.26.783.065 1.892 1.631 2.936s2.74.587 2.74.587c0-.065.13-.26.457-.652-1.044-1.631-2.414-2.87-4.176-3.588z" fill="#dbab09"/><g stroke="#0366d6" stroke-miterlimit="10" stroke-width="1.633"><path d="M234.607 38.882c-1.566-5.48-6.132-7.633-7.698-7.959-.326-.065-.587.261-.522.587l2.022 7.372s-4.175 5.806-4.175 11.874c0 6.067.653 8.415 0 10.307-.652 1.892-1.435 6.068 1.435 10.634 5.35 8.546 13.635 10.765 13.635 10.765" stroke-width="1.0653528700000001"/><path d="M226.583 30.988s3.718-4.175 12.917-.913c0 0 9.199-4.893 20.29-.718 11.09 4.176 14.09 10.96 14.09 10.96" stroke-width="1.0653528700000001"/><path d="M263.573 44.95s6.915-5.937 12.852-4.633c5.61 4.306 1.957 15.527.652 17.158" stroke-width="1.0653528700000001"/><path d="M268.336 44.493s4.892-2.936 5.936-1.827c1.24 1.305.783 8.481.326 11.156M224.17 50.82s.522-7.764 4.632-6.459c4.11 1.305 6.393 10.047 10.895 11.221 4.436 1.175 20.746-3.914 26.487.979 5.74 4.958 3.131 10.699 2.153 12.656-.98 1.957-4.11 6.98-4.11 6.98s4.11 3.85-4.437 6.655" stroke-width="1.0653528700000001"/><path d="M278.578 53.887s1.957 11.613-3.197 18.593c-5.545 7.568-17.549 12.852-28.705 11.678" stroke-width="1.0653528700000001"/><path d="M247.002 85.332s-.782-3.523-3.98-3.784c-3.196-.195-10.894 5.024-14.873 11.156-3.98 6.132-3.328 9.003 1.174 12.33 3.392 2.48 11.938 4.371 19.637 3.588l9.329-.913s.783.196.978 1.174c0 .587-1.435 4.958.979 5.285 2.414.391 2.74-1.436 2.74-3.197 2.022-1.174 6.654-3.85 6.85-11.352.196-7.567-5.415-12.134-11.743-11.22-6.328.978-16.636 4.892-22.377 3.587m8.481-6.458s-3.262 3.784-3.327 6.589m11.613-2.544-3.523-5.285m-1.305 2.284.848 4.044m-9.084-15.225c.324-.562-.5-1.645-1.843-2.42-1.341-.775-2.692-.947-3.016-.385-.325.561.5 1.644 1.842 2.419 1.342.775 2.692.948 3.017.386z" stroke-width="1.0653528700000001"/><path d="M238.456 82.527s-23.094 6.524-33.598 11.743c-10.503 5.219-33.663 18.267-32.75 21.92.98 3.653 20.42-3.458 26.683-6.198 7.046-3.131 27.466-13.896 27.466-13.896m8.48 11.287s-7.958 9.85-12.59 12.656c-4.502 2.74-16.962 9.33-17.941 11.09-1.435 2.61-3.131 11.874 6.067 16.506 3.98 2.022 13.309 2.74 17.223.457 3.914-2.284 3.719-3.132 3.327-3.523-.978-.848-11.351 5.088-15.853 4.436" stroke-width="1.0653528700000001"/><path d="M212.1 134.718c.326-.327 9.981-1.631 14.026 1.957 3.262 2.936 3.001 8.22 2.48 8.35m-2.48-8.35s7.764-4.175 13.113-12.135c5.35-7.959 7.829-15.853 7.829-15.853m1.892-.13 9.198 31.054s2.675 5.74 7.177 5.414c4.436-.326 13.373-3.392 17.157-8.35 1.892-2.48 4.11-6.72 3.197-8.22-1.044-1.631-2.414-.848-3.197-.587-1.174-.457-9.068-1.044-11.416 3m-8.808-17.288s6.916 14.875 10.047 19.833m3.588-61.716s17.354-9.264 23.617-11.22c6.328-1.958 12.069-4.176 15.2-.784 3.132 3.393.587 10.373-1.5 12.983-2.414 2.936-6.524 6.197-11.939 6.197 0 0-6.785.457-7.307-5.871-1.5.718-3.784.587-2.414-1.696 1.958-3.262 5.872-7.372 16.375-8.612" stroke-width="1.0653528700000001"/><path d="M249.547 84.288s7.567 1.566 18.789-.522c11.22-2.087 25.834-9.785 25.834-9.785" stroke-width="1.0653528700000001"/><path d="M215.949 53.3c4.762 1.957 8.155 7.698 8.155 7.698m-8.155-1.957c2.283.196 6.198 1.63 7.698 4.045" stroke-linecap="round" stroke-width="1.0653528700000001"/><path d="M267.944 76.46c3.001.326 11.482 4.37 13.83 7.567" stroke-width="1.0653528700000001"/><path d="M280.405 82.592c.587.522 1.043.979 1.37 1.435m-12.983-5.415c2.218 1.305 6.785 5.676 8.025 8.808" stroke-linecap="round" stroke-width="1.0653528700000001"/><path d="M188.224 108.573c4.493-2.594 7.755-5.355 7.287-6.166-.468-.812-4.49.634-8.983 3.228-4.494 2.595-7.757 5.355-7.288 6.166.468.811 4.49-.634 8.984-3.228zm21.268-12.31c4.249-1.974 7.459-4.076 7.17-4.697-.288-.621-3.965.475-8.214 2.447-4.248 1.973-7.458 4.076-7.17 4.697.288.621 3.966-.475 8.214-2.448zm23.876-9.496c-.914.457-3.132 1.436-4.045 1.762-3.98 1.435-7.372 2.218-7.568 1.696-.196-.522 2.87-2.088 6.85-3.523 2.805-1.044 5.806-1.696 7.111-1.827m16.44 34.512s1.044 1.37 1.762 1.174c.717-.196.978-5.089 0-8.024-.979-2.936-2.349-4.241-2.545-4.176m2.74 17.615c.066.26 3.067.195 4.828 6.132 1.762 5.937 1.305 9.33 0 8.873m33.01-70.197c-4.5 0-10.633 4.893-10.242 5.676.849 1.63 8.873-.718 8.873-.718m-25.247 8.481s13.57-4.697 14.091-6.067c.522-1.37-9.851-.13-10.242.13" stroke-width="1.0653528700000001"/></g><path d="M381.916 56.17c-6.524 3.784-13.635 5.872-21.79 7.829-11.743 2.805-24.138 4.175-24.138 4.175l17.288-24.007 23.617-10.178 10.177 15.397s-1.305 1.826-5.154 6.784z" fill="#e1e4e8"/><path d="M403.706 89.573c-8.808 3.98-89.9 26.421-111.754 27.595l37.708-46.384h7.11c7.047 0 14.353-1.827 20.681-2.61 6.329-.783 21.594-4.697 28.64-10.699 2.088-1.761 4.436-6.263 4.436-6.263l17.615 26.357c-.065 0 4.37 8.09-4.436 12.004z" fill="#e1e4e8"/><path d="m353.276 44.167 16.506-25.9 12.134 24.138-6.263-2.283-3.458 11.547-4.566-9.264-5.807 10.895.327-7.307-6.329 5.676v-5.676l-8.807 10.765z" fill="#f6f8fa"/><path d="m426.213 134.13 5.154-38.751 1.63-46.32s2.219-.848 4.959.718c2.805 1.566 3.718 3.719 3.718 3.719l-4.958 37.25 1.044 43.45-5.48 4.762z" fill="#f9c513"/><path d="M441.61 53.43s-.914-2.152-3.72-3.718a6.357 6.357 0 0 0-.717-.326c-.457 3.522-.13 7.11-.065 10.699 0 4.045-.326 8.09-.914 12.134-1.043 8.285-1.761 16.636-1.892 24.921-.065 4.24.327 8.416.392 12.591.065 3.915-.261 7.894-.913 11.743-.849 5.285-2.284 10.438-3.85 15.527l2.284 1.827 5.48-4.763-1.044-43.449z" fill="#dbab09"/><path d="M419.624 61.194c-.783.065-2.48 30.662-2.48 30.662l31.902 3.458 2.675-37.121z" fill="#ffea7f"/><path d="m451.656 58.258-2.61 37.12 3.98 4.437 5.089-32.945z" fill="#f9c513"/><path d="m429.605 83.57-6.002-8.807 7.96-5.414v4.632l10.829-1.044-1.5 9.981-10.634-3.914z" fill="#dbab09"/><path d="m428.627 81.874-5.807-8.22 7.764-5.088v4.37l10.438-1.043-1.5 9.329-10.243-3.588z" fill="#ffd33d"/><path d="M440.24 140.915s1.956-20.42 1.239-23.355c-.457 1.696-8.677 14.94-8.677 14.94v-12.983s-1.827 5.937-2.414 7.763c-.587-2.74-4.893-10.96-4.24-10.046.652.913.783 9.59 0 9.59-.588-.13-2.87-8.09-5.22-10.7.914.914 1.501 7.634 2.284 10.96-.326-1.239-6.459-5.48-9.46-6.132.327 1.957 4.763 5.676 5.676 8.22.913 2.545-.587 5.48-.587 5.48l5.676 4.24z" fill="#cccfd2"/><path d="M429.67 140.654c-.13-.456 3.132-11.025 3.132-11.025s9.786-6.002 11.482-7.046c1.696-.978 4.175-.848 4.175-.848l5.285-2.022s14.678 3.849 15.07 4.045c.456.13 3 4.892 4.175 6.458 1.174 1.566 1.696 2.61 1.892 5.154l.13 2.61-7.763 8.35h-8.873s-6.328 2.414-7.763 2.023c-1.435-.457-6.589-1.697-8.48-3.328-1.828-1.63-12.461-4.37-12.461-4.37z" fill="#c0c4c8"/><path d="M449.046 123.497s-.782-7.438 6.198-15.331m.391.456a.979.979 0 1 0 0-1.958.979.979 0 0 0 0 1.958zm3.915 2.414a.913.913 0 1 0 0-1.827.913.913 0 0 0 0 1.827z" stroke="#c2ccd7" stroke-miterlimit="10" stroke-width=".85267373"/><path d="M451.852 112.863s1.957 1.109 3.718 0c1.762-1.11 3.327-2.48 3.327-2.48" stroke="#c2ccd7" stroke-miterlimit="10" stroke-width=".85267373"/><path d="M442.066 116.19c-.326-1.11-.522-2.218-.261-3.327.13-.522.457-1.11.978-1.11.261 0 .457.131.653.327.457.326.848.783 1.174 1.24 2.74 3.261 4.828 7.11 6.133 11.22-.13-2.022.913-4.044 2.479-5.35 1.565-1.304 3.523-2.087 5.48-2.609.717-.195 1.63-.326 2.153.261.391.392.456.979.26 1.436-.13.521-.521.913-.848 1.24-.848.782-1.957 1.37-2.935 1.956a41.02 41.02 0 0 0-6.263 4.306c-.196.13-.392.326-.587.326-.13 0-.261 0-.457-.065-4.175-1.174-6.85-6.067-7.96-9.851z" fill="#bcc7d1" opacity=".5"/><path d="M446.045 136.936c2.023-1.957 5.089-4.24 7.307-5.61 1.827.39 3.523.065 4.958.26 3.001-2.61 6.459-5.676 9.525-8.22-3.523-.913-13.961-3.718-13.961-3.718l-5.284 2.022s-2.414-.13-4.176.848c-1.37.783-7.893 4.828-10.438 6.393 1.566 2.545 9.525 6.133 12.07 8.025z" fill="#e4e9ee"/><path d="M417.145 91.921v2.61l35.88 5.284-3.979-4.436z" fill="#dbab09"/><path d="M400.9 48.798c.327-.913 10.243-12.395 10.243-12.395l11.025 13.765h-1.827l4.893 5.22s-6.393.587-7.306-1.24c-.653 1.305-2.414 3.588-3.197 3.327-.783-.26-4.958-5.61-4.958-5.61s-4.24 7.698-4.893 7.437c-.653-.261-2.153-9.916-2.153-9.916l-2.48 2.152 1.306-2.152z" fill="#fafbfc"/><path d="M467.77 123.431c-3.523-.913-13.961-3.718-13.961-3.718l-5.285 2.022s-2.413-.13-4.175.848c-1.37.783-7.894 4.828-10.438 6.394" stroke="#e1e4e8" stroke-miterlimit="10" stroke-width=".21333153000000002"/><path d="M73.337 130.086c1.24-.13.522 2.087 1.24 2.348.522.196 1.24-.26 1.892.066.652.26 1.174.913 1.5 1.5.457.913.457 1.827.392 2.805-.065 1.37.065 2.675 1.565 3.067-.456-.327-.717-.98-.717-1.566 0-.653.196-1.305.326-1.892.261-1.827-.587-3.719-2.088-4.763.327-.587.457-1.174.457-1.891 0-.653-.26-1.24-.913-1.305-.653-.065-1.044.326-1.175.978-.13.653.066 1.37.196 2.023h-1.24c.718-2.414-.13-3.393-1.108-3.001-.653.26-.783.978-.718 1.696.13-.065.26-.065.391-.065z" fill="#ffd1ac" opacity=".6"/></svg>