<?xml version="1.0" encoding="UTF-8" standalone="no"?>
<svg
   xmlns:dc="http://purl.org/dc/elements/1.1/"
   xmlns:cc="http://creativecommons.org/ns#"
   xmlns:rdf="http://www.w3.org/1999/02/22-rdf-syntax-ns#"
   xmlns:svg="http://www.w3.org/2000/svg"
   xmlns="http://www.w3.org/2000/svg"
   xmlns:sodipodi="http://sodipodi.sourceforge.net/DTD/sodipodi-0.dtd"
   xmlns:inkscape="http://www.inkscape.org/namespaces/inkscape"
   viewBox="0 0 511.99948 263.94"
   version="1.1"
   id="svg1016"
   sodipodi:docname="img.02.svg"
   inkscape:version="1.0.2 (e86c870879, 2021-01-15)"
   width="511.99948"
   height="263.94">
  <metadata
     id="metadata1022">
    <rdf:RDF>
      <cc:Work
         rdf:about="">
        <dc:format>image/svg+xml</dc:format>
        <dc:type
           rdf:resource="http://purl.org/dc/dcmitype/StillImage" />
        <dc:title></dc:title>
      </cc:Work>
    </rdf:RDF>
  </metadata>
  <defs
     id="defs1020" />
  <sodipodi:namedview
     pagecolor="#ffffff"
     bordercolor="#666666"
     borderopacity="1"
     objecttolerance="10"
     gridtolerance="10"
     guidetolerance="10"
     inkscape:pageopacity="0"
     inkscape:pageshadow="2"
     inkscape:window-width="1920"
     inkscape:window-height="1016"
     id="namedview1018"
     showgrid="false"
     inkscape:zoom="1"
     inkscape:cx="255.79974"
     inkscape:cy="131.97"
     inkscape:window-x="0"
     inkscape:window-y="27"
     inkscape:window-maximized="1"
     inkscape:current-layer="svg1016"
     fit-margin-top="0"
     fit-margin-left="0"
     fit-margin-right="0"
     fit-margin-bottom="0" />
  <g
     id="g1253"
     transform="scale(0.73520891)">
    <path
       d="M 0,0 H 696 V 359 H 0 Z"
       fill="none"
       id="path558" />
    <path
       d="M 117.6,279.9 103,199.1 256.3,171 228.3,22.3 575.6,9.9 l -10.7,76.6 131,-4.4 0.5,197.8 z"
       fill="#f6f8fa"
       id="path560" />
    <path
       d="m 509,252.2 h -10.4 v 16.9 H 509 Z"
       fill="#e1e4e8"
       id="path562" />
    <path
       d="m 503.7,259.7 c 1.4,0 2.6,-1.1 2.6,-2.5 0,-1.4 -1.1,-2.5 -2.6,-2.5 -1.4,0 -2.6,1.1 -2.6,2.5 0.1,1.4 1.2,2.5 2.6,2.5 z m 0.4,6.7 c 1.4,0 2.6,-1.1 2.6,-2.5 0,-1.4 -1.1,-2.5 -2.6,-2.5 -1.4,0 -2.6,1.1 -2.6,2.5 0.1,1.4 1.2,2.5 2.6,2.5 z"
       fill="#f6f8fa"
       id="path564" />
    <path
       d="m 318.1,333.5 c 46.3,0 83.9,-5.2 83.9,-11.6 0,-6.4 -37.5,-11.6 -83.9,-11.6 -46.4,0 -83.9,5.2 -83.9,11.6 0,6.4 37.6,11.6 83.9,11.6 z M 547.5,52.3 H 300.2 v 145.6 h 247.3 z"
       fill="#e8eaee"
       id="path566" />
    <path
       d="m 313.6,64.9 c 0.9,0 1.7,-0.8 1.7,-1.7 0,-0.9 -0.8,-1.7 -1.7,-1.7 -0.9,0 -1.7,0.8 -1.7,1.7 0,1 0.8,1.7 1.7,1.7 z m 20.1,0 c 0.9,0 1.7,-0.8 1.7,-1.7 0,-0.9 -0.8,-1.7 -1.7,-1.7 -0.9,0 -1.7,0.8 -1.7,1.7 0,1 0.7,1.7 1.7,1.7 z m 20,0 c 0.9,0 1.7,-0.8 1.7,-1.7 0,-0.9 -0.8,-1.7 -1.7,-1.7 -0.9,0 -1.7,0.8 -1.7,1.7 0,1 0.8,1.7 1.7,1.7 z m 20.1,0 c 0.9,0 1.7,-0.8 1.7,-1.7 0,-0.9 -0.8,-1.7 -1.7,-1.7 -0.9,0 -1.7,0.8 -1.7,1.7 -0.1,1 0.7,1.7 1.7,1.7 z m 20,0 c 0.9,0 1.7,-0.8 1.7,-1.7 0,-0.9 -0.8,-1.7 -1.7,-1.7 -0.9,0 -1.7,0.8 -1.7,1.7 0,1 0.7,1.7 1.7,1.7 z m 20,0 c 0.9,0 1.7,-0.8 1.7,-1.7 0,-0.9 -0.8,-1.7 -1.7,-1.7 -0.9,0 -1.7,0.8 -1.7,1.7 0,1 0.8,1.7 1.7,1.7 z m 20.1,0 c 0.9,0 1.7,-0.8 1.7,-1.7 0,-0.9 -0.8,-1.7 -1.7,-1.7 -0.9,0 -1.7,0.8 -1.7,1.7 0,1 0.7,1.7 1.7,1.7 z m 20,0 c 0.9,0 1.7,-0.8 1.7,-1.7 0,-0.9 -0.8,-1.7 -1.7,-1.7 -0.9,0 -1.7,0.8 -1.7,1.7 0,1 0.8,1.7 1.7,1.7 z m 20,0 c 0.9,0 1.7,-0.8 1.7,-1.7 0,-0.9 -0.8,-1.7 -1.7,-1.7 -0.9,0 -1.7,0.8 -1.7,1.7 0,1 0.8,1.7 1.7,1.7 z m 20.1,0 c 0.9,0 1.7,-0.8 1.7,-1.7 0,-0.9 -0.8,-1.7 -1.7,-1.7 -0.9,0 -1.7,0.8 -1.7,1.7 0,1 0.7,1.7 1.7,1.7 z m 20,0 c 0.9,0 1.7,-0.8 1.7,-1.7 0,-0.9 -0.8,-1.7 -1.7,-1.7 -0.9,0 -1.7,0.8 -1.7,1.7 0,1 0.8,1.7 1.7,1.7 z m 20,0 c 0.9,0 1.7,-0.8 1.7,-1.7 0,-0.9 -0.8,-1.7 -1.7,-1.7 -0.9,0 -1.7,0.8 -1.7,1.7 0,1 0.8,1.7 1.7,1.7 z M 313.6,80.3 c 0.9,0 1.7,-0.8 1.7,-1.7 0,-0.9 -0.8,-1.7 -1.7,-1.7 -0.9,0 -1.7,0.8 -1.7,1.7 0,0.9 0.8,1.7 1.7,1.7 z m 20.1,0 c 0.9,0 1.7,-0.8 1.7,-1.7 0,-0.9 -0.8,-1.7 -1.7,-1.7 -0.9,0 -1.7,0.8 -1.7,1.7 0,0.9 0.7,1.7 1.7,1.7 z m 20,0 c 0.9,0 1.7,-0.8 1.7,-1.7 0,-0.9 -0.8,-1.7 -1.7,-1.7 -0.9,0 -1.7,0.8 -1.7,1.7 0,0.9 0.8,1.7 1.7,1.7 z m 20.1,0 c 0.9,0 1.7,-0.8 1.7,-1.7 0,-0.9 -0.8,-1.7 -1.7,-1.7 -0.9,0 -1.7,0.8 -1.7,1.7 -0.1,0.9 0.7,1.7 1.7,1.7 z m 20,0 c 0.9,0 1.7,-0.8 1.7,-1.7 0,-0.9 -0.8,-1.7 -1.7,-1.7 -0.9,0 -1.7,0.8 -1.7,1.7 0,0.9 0.7,1.7 1.7,1.7 z m 20,0 c 0.9,0 1.7,-0.8 1.7,-1.7 0,-0.9 -0.8,-1.7 -1.7,-1.7 -0.9,0 -1.7,0.8 -1.7,1.7 0,0.9 0.8,1.7 1.7,1.7 z m 20.1,0 c 0.9,0 1.7,-0.8 1.7,-1.7 0,-0.9 -0.8,-1.7 -1.7,-1.7 -0.9,0 -1.7,0.8 -1.7,1.7 0,0.9 0.7,1.7 1.7,1.7 z m 20,0 c 0.9,0 1.7,-0.8 1.7,-1.7 0,-0.9 -0.8,-1.7 -1.7,-1.7 -0.9,0 -1.7,0.8 -1.7,1.7 0,0.9 0.8,1.7 1.7,1.7 z m 20,0 c 0.9,0 1.7,-0.8 1.7,-1.7 0,-0.9 -0.8,-1.7 -1.7,-1.7 -0.9,0 -1.7,0.8 -1.7,1.7 0,0.9 0.8,1.7 1.7,1.7 z m 20.1,0 c 0.9,0 1.7,-0.8 1.7,-1.7 0,-0.9 -0.8,-1.7 -1.7,-1.7 -0.9,0 -1.7,0.8 -1.7,1.7 0,0.9 0.7,1.7 1.7,1.7 z m 20,0 c 0.9,0 1.7,-0.8 1.7,-1.7 0,-0.9 -0.8,-1.7 -1.7,-1.7 -0.9,0 -1.7,0.8 -1.7,1.7 0,0.9 0.8,1.7 1.7,1.7 z m 20,0 c 0.9,0 1.7,-0.8 1.7,-1.7 0,-0.9 -0.8,-1.7 -1.7,-1.7 -0.9,0 -1.7,0.8 -1.7,1.7 0,0.9 0.8,1.7 1.7,1.7 z M 313.6,95.6 c 0.9,0 1.7,-0.8 1.7,-1.7 0,-0.9 -0.8,-1.7 -1.7,-1.7 -0.9,0 -1.7,0.8 -1.7,1.7 0,1 0.8,1.7 1.7,1.7 z m 20.1,0 c 0.9,0 1.7,-0.8 1.7,-1.7 0,-0.9 -0.8,-1.7 -1.7,-1.7 -0.9,0 -1.7,0.8 -1.7,1.7 0,1 0.7,1.7 1.7,1.7 z m 20,0 c 0.9,0 1.7,-0.8 1.7,-1.7 0,-0.9 -0.8,-1.7 -1.7,-1.7 -0.9,0 -1.7,0.8 -1.7,1.7 0,1 0.8,1.7 1.7,1.7 z m 20.1,0 c 0.9,0 1.7,-0.8 1.7,-1.7 0,-0.9 -0.8,-1.7 -1.7,-1.7 -0.9,0 -1.7,0.8 -1.7,1.7 -0.1,1 0.7,1.7 1.7,1.7 z m 20,0 c 0.9,0 1.7,-0.8 1.7,-1.7 0,-0.9 -0.8,-1.7 -1.7,-1.7 -0.9,0 -1.7,0.8 -1.7,1.7 0,1 0.7,1.7 1.7,1.7 z m 20,0 c 0.9,0 1.7,-0.8 1.7,-1.7 0,-0.9 -0.8,-1.7 -1.7,-1.7 -0.9,0 -1.7,0.8 -1.7,1.7 0,1 0.8,1.7 1.7,1.7 z m 20.1,0 c 0.9,0 1.7,-0.8 1.7,-1.7 0,-0.9 -0.8,-1.7 -1.7,-1.7 -0.9,0 -1.7,0.8 -1.7,1.7 0,1 0.7,1.7 1.7,1.7 z m 20,0 c 0.9,0 1.7,-0.8 1.7,-1.7 0,-0.9 -0.8,-1.7 -1.7,-1.7 -0.9,0 -1.7,0.8 -1.7,1.7 0,1 0.8,1.7 1.7,1.7 z m 20,0 c 0.9,0 1.7,-0.8 1.7,-1.7 0,-0.9 -0.8,-1.7 -1.7,-1.7 -0.9,0 -1.7,0.8 -1.7,1.7 0,1 0.8,1.7 1.7,1.7 z m 20.1,0 c 0.9,0 1.7,-0.8 1.7,-1.7 0,-0.9 -0.8,-1.7 -1.7,-1.7 -0.9,0 -1.7,0.8 -1.7,1.7 0,1 0.7,1.7 1.7,1.7 z m 20,0 c 0.9,0 1.7,-0.8 1.7,-1.7 0,-0.9 -0.8,-1.7 -1.7,-1.7 -0.9,0 -1.7,0.8 -1.7,1.7 0,1 0.8,1.7 1.7,1.7 z m 20,0 c 0.9,0 1.7,-0.8 1.7,-1.7 0,-0.9 -0.8,-1.7 -1.7,-1.7 -0.9,0 -1.7,0.8 -1.7,1.7 0,1 0.8,1.7 1.7,1.7 z M 313.6,111 c 0.9,0 1.7,-0.8 1.7,-1.7 0,-0.9 -0.8,-1.7 -1.7,-1.7 -0.9,0 -1.7,0.8 -1.7,1.7 0,0.9 0.8,1.7 1.7,1.7 z m 20.1,0 c 0.9,0 1.7,-0.8 1.7,-1.7 0,-0.9 -0.8,-1.7 -1.7,-1.7 -0.9,0 -1.7,0.8 -1.7,1.7 0,0.9 0.7,1.7 1.7,1.7 z m 20,0 c 0.9,0 1.7,-0.8 1.7,-1.7 0,-0.9 -0.8,-1.7 -1.7,-1.7 -0.9,0 -1.7,0.8 -1.7,1.7 0,0.9 0.8,1.7 1.7,1.7 z m 20.1,0 c 0.9,0 1.7,-0.8 1.7,-1.7 0,-0.9 -0.8,-1.7 -1.7,-1.7 -0.9,0 -1.7,0.8 -1.7,1.7 -0.1,0.9 0.7,1.7 1.7,1.7 z m 20,0 c 0.9,0 1.7,-0.8 1.7,-1.7 0,-0.9 -0.8,-1.7 -1.7,-1.7 -0.9,0 -1.7,0.8 -1.7,1.7 0,0.9 0.7,1.7 1.7,1.7 z m 20,0 c 0.9,0 1.7,-0.8 1.7,-1.7 0,-0.9 -0.8,-1.7 -1.7,-1.7 -0.9,0 -1.7,0.8 -1.7,1.7 0,0.9 0.8,1.7 1.7,1.7 z m 20.1,0 c 0.9,0 1.7,-0.8 1.7,-1.7 0,-0.9 -0.8,-1.7 -1.7,-1.7 -0.9,0 -1.7,0.8 -1.7,1.7 0,0.9 0.7,1.7 1.7,1.7 z m 20,0 c 0.9,0 1.7,-0.8 1.7,-1.7 0,-0.9 -0.8,-1.7 -1.7,-1.7 -0.9,0 -1.7,0.8 -1.7,1.7 0,0.9 0.8,1.7 1.7,1.7 z m 20,0 c 0.9,0 1.7,-0.8 1.7,-1.7 0,-0.9 -0.8,-1.7 -1.7,-1.7 -0.9,0 -1.7,0.8 -1.7,1.7 0,0.9 0.8,1.7 1.7,1.7 z m 20.1,0 c 0.9,0 1.7,-0.8 1.7,-1.7 0,-0.9 -0.8,-1.7 -1.7,-1.7 -0.9,0 -1.7,0.8 -1.7,1.7 0,0.9 0.7,1.7 1.7,1.7 z m 20,0 c 0.9,0 1.7,-0.8 1.7,-1.7 0,-0.9 -0.8,-1.7 -1.7,-1.7 -0.9,0 -1.7,0.8 -1.7,1.7 0,0.9 0.8,1.7 1.7,1.7 z m 20,0 c 0.9,0 1.7,-0.8 1.7,-1.7 0,-0.9 -0.8,-1.7 -1.7,-1.7 -0.9,0 -1.7,0.8 -1.7,1.7 0,0.9 0.8,1.7 1.7,1.7 z m -220.4,15.3 c 0.9,0 1.7,-0.8 1.7,-1.7 0,-0.9 -0.8,-1.7 -1.7,-1.7 -0.9,0 -1.7,0.8 -1.7,1.7 0,0.9 0.8,1.7 1.7,1.7 z m 20.1,0 c 0.9,0 1.7,-0.8 1.7,-1.7 0,-0.9 -0.8,-1.7 -1.7,-1.7 -0.9,0 -1.7,0.8 -1.7,1.7 0,0.9 0.7,1.7 1.7,1.7 z m 20,0 c 0.9,0 1.7,-0.8 1.7,-1.7 0,-0.9 -0.8,-1.7 -1.7,-1.7 -0.9,0 -1.7,0.8 -1.7,1.7 0,0.9 0.8,1.7 1.7,1.7 z m 20.1,0 c 0.9,0 1.7,-0.8 1.7,-1.7 0,-0.9 -0.8,-1.7 -1.7,-1.7 -0.9,0 -1.7,0.8 -1.7,1.7 0,0.9 0.7,1.7 1.7,1.7 z m 20,0 c 0.9,0 1.7,-0.8 1.7,-1.7 0,-0.9 -0.8,-1.7 -1.7,-1.7 -0.9,0 -1.7,0.8 -1.7,1.7 0,0.9 0.7,1.7 1.7,1.7 z m 20,0 c 0.9,0 1.7,-0.8 1.7,-1.7 0,-0.9 -0.8,-1.7 -1.7,-1.7 -0.9,0 -1.7,0.8 -1.7,1.7 0,0.9 0.8,1.7 1.7,1.7 z m 20.1,0 c 0.9,0 1.7,-0.8 1.7,-1.7 0,-0.9 -0.8,-1.7 -1.7,-1.7 -0.9,0 -1.7,0.8 -1.7,1.7 0,0.9 0.7,1.7 1.7,1.7 z m 20,0 c 0.9,0 1.7,-0.8 1.7,-1.7 0,-0.9 -0.8,-1.7 -1.7,-1.7 -0.9,0 -1.7,0.8 -1.7,1.7 0,0.9 0.8,1.7 1.7,1.7 z m 20,0 c 0.9,0 1.7,-0.8 1.7,-1.7 0,-0.9 -0.8,-1.7 -1.7,-1.7 -0.9,0 -1.7,0.8 -1.7,1.7 0,0.9 0.8,1.7 1.7,1.7 z m 20.1,0 c 0.9,0 1.7,-0.8 1.7,-1.7 0,-0.9 -0.8,-1.7 -1.7,-1.7 -0.9,0 -1.7,0.8 -1.7,1.7 0,0.9 0.7,1.7 1.7,1.7 z m 20,0 c 0.9,0 1.7,-0.8 1.7,-1.7 0,-0.9 -0.8,-1.7 -1.7,-1.7 -0.9,0 -1.7,0.8 -1.7,1.7 0,0.9 0.8,1.7 1.7,1.7 z m 20,0 c 0.9,0 1.7,-0.8 1.7,-1.7 0,-0.9 -0.8,-1.7 -1.7,-1.7 -0.9,0 -1.7,0.8 -1.7,1.7 0,0.9 0.8,1.7 1.7,1.7 z m -220.4,15.3 c 0.9,0 1.7,-0.8 1.7,-1.7 0,-0.9 -0.8,-1.7 -1.7,-1.7 -0.9,0 -1.7,0.8 -1.7,1.7 0,0.9 0.8,1.7 1.7,1.7 z m 20.1,0 c 0.9,0 1.7,-0.8 1.7,-1.7 0,-0.9 -0.8,-1.7 -1.7,-1.7 -0.9,0 -1.7,0.8 -1.7,1.7 0,0.9 0.7,1.7 1.7,1.7 z m 20,0 c 0.9,0 1.7,-0.8 1.7,-1.7 0,-0.9 -0.8,-1.7 -1.7,-1.7 -0.9,0 -1.7,0.8 -1.7,1.7 0,0.9 0.8,1.7 1.7,1.7 z m 20.1,0 c 0.9,0 1.7,-0.8 1.7,-1.7 0,-0.9 -0.8,-1.7 -1.7,-1.7 -0.9,0 -1.7,0.8 -1.7,1.7 0,0.9 0.7,1.7 1.7,1.7 z m 20,0 c 0.9,0 1.7,-0.8 1.7,-1.7 0,-0.9 -0.8,-1.7 -1.7,-1.7 -0.9,0 -1.7,0.8 -1.7,1.7 0,0.9 0.7,1.7 1.7,1.7 z m 20,0 c 0.9,0 1.7,-0.8 1.7,-1.7 0,-0.9 -0.8,-1.7 -1.7,-1.7 -0.9,0 -1.7,0.8 -1.7,1.7 0,0.9 0.8,1.7 1.7,1.7 z m 20.1,0 c 0.9,0 1.7,-0.8 1.7,-1.7 0,-0.9 -0.8,-1.7 -1.7,-1.7 -0.9,0 -1.7,0.8 -1.7,1.7 0,0.9 0.7,1.7 1.7,1.7 z m 20,0 c 0.9,0 1.7,-0.8 1.7,-1.7 0,-0.9 -0.8,-1.7 -1.7,-1.7 -0.9,0 -1.7,0.8 -1.7,1.7 0,0.9 0.8,1.7 1.7,1.7 z m 20,0 c 0.9,0 1.7,-0.8 1.7,-1.7 0,-0.9 -0.8,-1.7 -1.7,-1.7 -0.9,0 -1.7,0.8 -1.7,1.7 0,0.9 0.8,1.7 1.7,1.7 z m 20.1,0 c 0.9,0 1.7,-0.8 1.7,-1.7 0,-0.9 -0.8,-1.7 -1.7,-1.7 -0.9,0 -1.7,0.8 -1.7,1.7 0,0.9 0.7,1.7 1.7,1.7 z m 20,0 c 0.9,0 1.7,-0.8 1.7,-1.7 0,-0.9 -0.8,-1.7 -1.7,-1.7 -0.9,0 -1.7,0.8 -1.7,1.7 0,0.9 0.8,1.7 1.7,1.7 z m 20,0 c 0.9,0 1.7,-0.8 1.7,-1.7 0,-0.9 -0.8,-1.7 -1.7,-1.7 -0.9,0 -1.7,0.8 -1.7,1.7 0,0.9 0.8,1.7 1.7,1.7 z M 313.6,157 c 0.9,0 1.7,-0.8 1.7,-1.7 0,-0.9 -0.8,-1.7 -1.7,-1.7 -0.9,0 -1.7,0.8 -1.7,1.7 0,0.9 0.8,1.7 1.7,1.7 z m 20.1,0 c 0.9,0 1.7,-0.8 1.7,-1.7 0,-0.9 -0.8,-1.7 -1.7,-1.7 -0.9,0 -1.7,0.8 -1.7,1.7 0,0.9 0.7,1.7 1.7,1.7 z m 20,0 c 0.9,0 1.7,-0.8 1.7,-1.7 0,-0.9 -0.8,-1.7 -1.7,-1.7 -0.9,0 -1.7,0.8 -1.7,1.7 0,0.9 0.8,1.7 1.7,1.7 z m 20.1,0 c 0.9,0 1.7,-0.8 1.7,-1.7 0,-0.9 -0.8,-1.7 -1.7,-1.7 -0.9,0 -1.7,0.8 -1.7,1.7 -0.1,0.9 0.7,1.7 1.7,1.7 z m 20,0 c 0.9,0 1.7,-0.8 1.7,-1.7 0,-0.9 -0.8,-1.7 -1.7,-1.7 -0.9,0 -1.7,0.8 -1.7,1.7 0,0.9 0.7,1.7 1.7,1.7 z m 20,0 c 0.9,0 1.7,-0.8 1.7,-1.7 0,-0.9 -0.8,-1.7 -1.7,-1.7 -0.9,0 -1.7,0.8 -1.7,1.7 0,0.9 0.8,1.7 1.7,1.7 z m 20.1,0 c 0.9,0 1.7,-0.8 1.7,-1.7 0,-0.9 -0.8,-1.7 -1.7,-1.7 -0.9,0 -1.7,0.8 -1.7,1.7 0,0.9 0.7,1.7 1.7,1.7 z m 20,0 c 0.9,0 1.7,-0.8 1.7,-1.7 0,-0.9 -0.8,-1.7 -1.7,-1.7 -0.9,0 -1.7,0.8 -1.7,1.7 0,0.9 0.8,1.7 1.7,1.7 z m 20,0 c 0.9,0 1.7,-0.8 1.7,-1.7 0,-0.9 -0.8,-1.7 -1.7,-1.7 -0.9,0 -1.7,0.8 -1.7,1.7 0,0.9 0.8,1.7 1.7,1.7 z m 20.1,0 c 0.9,0 1.7,-0.8 1.7,-1.7 0,-0.9 -0.8,-1.7 -1.7,-1.7 -0.9,0 -1.7,0.8 -1.7,1.7 0,0.9 0.7,1.7 1.7,1.7 z m 20,0 c 0.9,0 1.7,-0.8 1.7,-1.7 0,-0.9 -0.8,-1.7 -1.7,-1.7 -0.9,0 -1.7,0.8 -1.7,1.7 0,0.9 0.8,1.7 1.7,1.7 z m 20,0 c 0.9,0 1.7,-0.8 1.7,-1.7 0,-0.9 -0.8,-1.7 -1.7,-1.7 -0.9,0 -1.7,0.8 -1.7,1.7 0,0.9 0.8,1.7 1.7,1.7 z m -220.4,15.3 c 0.9,0 1.7,-0.8 1.7,-1.7 0,-0.9 -0.8,-1.7 -1.7,-1.7 -0.9,0 -1.7,0.8 -1.7,1.7 0,0.9 0.8,1.7 1.7,1.7 z m 20.1,0 c 0.9,0 1.7,-0.8 1.7,-1.7 0,-0.9 -0.8,-1.7 -1.7,-1.7 -0.9,0 -1.7,0.8 -1.7,1.7 0,0.9 0.7,1.7 1.7,1.7 z m 20,0 c 0.9,0 1.7,-0.8 1.7,-1.7 0,-0.9 -0.8,-1.7 -1.7,-1.7 -0.9,0 -1.7,0.8 -1.7,1.7 0,0.9 0.8,1.7 1.7,1.7 z m 20.1,0 c 0.9,0 1.7,-0.8 1.7,-1.7 0,-0.9 -0.8,-1.7 -1.7,-1.7 -0.9,0 -1.7,0.8 -1.7,1.7 0,0.9 0.7,1.7 1.7,1.7 z m 20,0 c 0.9,0 1.7,-0.8 1.7,-1.7 0,-0.9 -0.8,-1.7 -1.7,-1.7 -0.9,0 -1.7,0.8 -1.7,1.7 0,0.9 0.7,1.7 1.7,1.7 z m 20,0 c 0.9,0 1.7,-0.8 1.7,-1.7 0,-0.9 -0.8,-1.7 -1.7,-1.7 -0.9,0 -1.7,0.8 -1.7,1.7 0,0.9 0.8,1.7 1.7,1.7 z m 20.1,0 c 0.9,0 1.7,-0.8 1.7,-1.7 0,-0.9 -0.8,-1.7 -1.7,-1.7 -0.9,0 -1.7,0.8 -1.7,1.7 0,0.9 0.7,1.7 1.7,1.7 z m 20,0 c 0.9,0 1.7,-0.8 1.7,-1.7 0,-0.9 -0.8,-1.7 -1.7,-1.7 -0.9,0 -1.7,0.8 -1.7,1.7 0,0.9 0.8,1.7 1.7,1.7 z m 20,0 c 0.9,0 1.7,-0.8 1.7,-1.7 0,-0.9 -0.8,-1.7 -1.7,-1.7 -0.9,0 -1.7,0.8 -1.7,1.7 0,0.9 0.8,1.7 1.7,1.7 z m 20.1,0 c 0.9,0 1.7,-0.8 1.7,-1.7 0,-0.9 -0.8,-1.7 -1.7,-1.7 -0.9,0 -1.7,0.8 -1.7,1.7 0,0.9 0.7,1.7 1.7,1.7 z m 20,0 c 0.9,0 1.7,-0.8 1.7,-1.7 0,-0.9 -0.8,-1.7 -1.7,-1.7 -0.9,0 -1.7,0.8 -1.7,1.7 0,0.9 0.8,1.7 1.7,1.7 z m 20,0 c 0.9,0 1.7,-0.8 1.7,-1.7 0,-0.9 -0.8,-1.7 -1.7,-1.7 -0.9,0 -1.7,0.8 -1.7,1.7 0,0.9 0.8,1.7 1.7,1.7 z m -220.4,15.4 c 0.9,0 1.7,-0.8 1.7,-1.7 0,-0.9 -0.8,-1.7 -1.7,-1.7 -0.9,0 -1.7,0.8 -1.7,1.7 0,0.9 0.8,1.7 1.7,1.7 z m 20.1,0 c 0.9,0 1.7,-0.8 1.7,-1.7 0,-0.9 -0.8,-1.7 -1.7,-1.7 -0.9,0 -1.7,0.8 -1.7,1.7 0,0.9 0.7,1.7 1.7,1.7 z m 20,0 c 0.9,0 1.7,-0.8 1.7,-1.7 0,-0.9 -0.8,-1.7 -1.7,-1.7 -0.9,0 -1.7,0.8 -1.7,1.7 0,0.9 0.8,1.7 1.7,1.7 z m 20.1,0 c 0.9,0 1.7,-0.8 1.7,-1.7 0,-0.9 -0.8,-1.7 -1.7,-1.7 -0.9,0 -1.7,0.8 -1.7,1.7 0,0.9 0.7,1.7 1.7,1.7 z m 20,0 c 0.9,0 1.7,-0.8 1.7,-1.7 0,-0.9 -0.8,-1.7 -1.7,-1.7 -0.9,0 -1.7,0.8 -1.7,1.7 0,0.9 0.7,1.7 1.7,1.7 z m 20,0 c 0.9,0 1.7,-0.8 1.7,-1.7 0,-0.9 -0.8,-1.7 -1.7,-1.7 -0.9,0 -1.7,0.8 -1.7,1.7 0,0.9 0.8,1.7 1.7,1.7 z m 20.1,0 c 0.9,0 1.7,-0.8 1.7,-1.7 0,-0.9 -0.8,-1.7 -1.7,-1.7 -0.9,0 -1.7,0.8 -1.7,1.7 0,0.9 0.7,1.7 1.7,1.7 z m 20,0 c 0.9,0 1.7,-0.8 1.7,-1.7 0,-0.9 -0.8,-1.7 -1.7,-1.7 -0.9,0 -1.7,0.8 -1.7,1.7 0,0.9 0.8,1.7 1.7,1.7 z m 20,0 c 0.9,0 1.7,-0.8 1.7,-1.7 0,-0.9 -0.8,-1.7 -1.7,-1.7 -0.9,0 -1.7,0.8 -1.7,1.7 0,0.9 0.8,1.7 1.7,1.7 z m 20.1,0 c 0.9,0 1.7,-0.8 1.7,-1.7 0,-0.9 -0.8,-1.7 -1.7,-1.7 -0.9,0 -1.7,0.8 -1.7,1.7 0,0.9 0.7,1.7 1.7,1.7 z m 20,0 c 0.9,0 1.7,-0.8 1.7,-1.7 0,-0.9 -0.8,-1.7 -1.7,-1.7 -0.9,0 -1.7,0.8 -1.7,1.7 0,0.9 0.8,1.7 1.7,1.7 z m 20,0 c 0.9,0 1.7,-0.8 1.7,-1.7 0,-0.9 -0.8,-1.7 -1.7,-1.7 -0.9,0 -1.7,0.8 -1.7,1.7 0,0.9 0.8,1.7 1.7,1.7 z"
       fill="#d1d5da"
       id="path568" />
    <path
       d="M 308.1,55.6 V 142 h 11.1 V 55.6 Z m 5.7,7.1 c -1,0 -1.9,-0.6 -2.2,-1.5 -0.4,-0.9 -0.2,-2 0.5,-2.6 0.7,-0.7 1.7,-0.9 2.6,-0.5 0.9,0.4 1.5,1.3 1.5,2.2 0,0.6 -0.3,1.3 -0.7,1.7 -0.5,0.5 -1.1,0.7 -1.7,0.7 z"
       fill="#ffea7f"
       id="path570" />
    <path
       d="m 313.6,59.3 c -0.7,0 -1,-0.6 -1,-1.3 l -0.3,-3.8 c 0,-0.7 0.6,-1.3 1.3,-1.3 0.7,0 1.3,0.6 1.3,1.3 l -0.3,3.8 c 0,0.3 -0.1,0.6 -0.2,0.9 -0.2,0.2 -0.4,0.4 -0.8,0.4 z"
       fill="#f6f8fa"
       id="path572" />
    <path
       d="M 308.1,138.8 V 138 l 3.4,-0.1 v 0.8 z m 0,-4 V 134 l 3.4,-0.1 v 0.8 z m 0,-4 V 130 l 3.4,-0.1 v 0.8 z m 0,-4 V 126 l 5.5,-0.1 v 0.8 z m 0,-4 V 122 l 3.4,-0.1 v 0.8 z m 0,-4 V 118 l 3.4,-0.1 v 0.8 z m 0,-4 V 114 l 3.4,-0.1 v 0.8 z m 0,-4 V 110 l 3.4,-0.1 v 0.8 z m 0,-4 V 106 l 5.5,-0.1 v 0.8 z m 0,-4 V 102 l 3.4,-0.1 v 0.8 z m 0,-4 V 98 l 3.4,-0.1 v 0.8 z m 0,-4.1 v -0.8 l 3.4,-0.1 v 0.8 z m 0,-4 v -0.8 l 3.4,-0.1 v 0.8 z m 0,-4 v -0.8 l 5.5,-0.1 v 0.8 z m 0,-4 v -0.8 l 3.4,-0.1 v 0.8 z m 0,-4 v -0.8 l 3.4,-0.1 v 0.8 z m 0,-4 v -0.8 l 3.4,-0.1 v 0.8 z m 0,-4 v -0.8 l 3.4,-0.1 v 0.8 z m 0,-4 v -0.8 l 5.5,-0.1 v 0.8 z"
       fill="#ffab70"
       id="path574" />
    <path
       d="m 340,63.2 c 5.8,0 8.8,5.6 8.8,9.1 l -2.4,0.5 c -1.5,-3.8 -6.2,-4.9 -7.9,-3.3"
       fill="#2188ff"
       id="path576" />
    <path
       d="m 339,67 c 5.8,0 8.5,2.1 8.5,5.6 l -1.1,0.2 c -1.5,-3.8 -6.2,-4.9 -7.9,-3.3"
       fill="#0366d6"
       id="path578" />
    <path
       d="m 335.6,122.9 -5.2,-0.4 0.4,-45 V 59.7 h 5.8 v 18.4 l 1.1,42.9 c 0,0.8 -0.5,1.6 -1.3,1.8 -0.3,0.1 -0.6,0.1 -0.8,0.1 z"
       fill="#ffab70"
       id="path580" />
    <path
       d="m 336.5,71.1 c -0.2,0 -0.3,0.1 -0.5,0.2 -0.2,0.1 -0.3,0.3 -0.4,0.4 h -4.9 v 4.5 h 4.4 c 0,0.4 0.1,0.8 0.1,1.1 0,5.1 0.4,10.1 0.6,15.2 0.3,7.2 0.1,14.6 -2.2,21.4 -0.2,0.9 -0.7,1.6 -1.4,2.2 -0.6,0.3 -1.2,0.5 -1.8,0.7 l -0.1,0.1 v 5.6 l 5.2,0.4 c 0.5,0 1,-0.1 1.4,-0.5 0.4,-0.4 0.6,-0.9 0.6,-1.4 l -1,-42.9 z"
       fill="#fb8532"
       id="path582" />
    <path
       d="M 340.6,62.4 H 326 v 9.3 h 14.6 z"
       fill="#2188ff"
       id="path584" />
    <path
       d="m 340.6,67.4 c -1.7,-0.7 -3.7,-0.6 -5.4,0.1 -0.7,0.3 -1.4,0.8 -2.2,1.1 -1.7,0.8 -5.2,0.2 -7.1,1.3 v 1.7 h 14.6 v -4.2 z"
       fill="#0366d6"
       id="path586" />
    <path
       d="m 323.7,73.1 h -3.3 V 60.8 h 3.3 l 1.1,5.9 z"
       fill="#2188ff"
       id="path588" />
    <path
       d="m 327.8,64.3 h -5.7 v 4.5 h 5.7 z"
       fill="#2188ff"
       id="path590" />
    <path
       d="m 338.5,74.6 c -0.7,0 -1,-0.6 -1,-1.3 l -0.3,-3.8 c 0,-0.4 0.1,-0.7 0.4,-1 0.3,-0.3 0.6,-0.4 1,-0.4 0.7,0 1.3,0.6 1.3,1.3 l -0.3,3.8 c 0,0.7 -0.5,1.3 -1.1,1.4 z m -10.6,0 c -0.7,0 -1,-0.6 -1,-1.3 l -0.3,-3.8 c 0,-0.7 0.6,-1.3 1.3,-1.4 h 0.1 c 0.5,0 1,0.3 1.2,0.8 0.1,0.2 0.1,0.3 0.1,0.5 l -0.3,3.8 c 0,0.8 -0.5,1.4 -1.1,1.4 z"
       fill="#f6f8fa"
       id="path592" />
    <path
       d="m 323.8,60.8 c -0.5,3.5 -1.2,11.4 -3.3,12.3 h 3.3 l 0.6,-4.2 0.1,-4.6 z"
       fill="#0366d6"
       id="path594" />
    <path
       d="m 365.1,118.8 -5.3,-0.4 0.4,-40.1 V 62.4 h 5.8 v 16.4 l 1,38.3 c 0,0.8 -0.5,1.4 -1.3,1.7 z"
       fill="#ffab70"
       id="path596" />
    <path
       d="m 366.1,78.8 v -9.6 h -1.4 c -1,-0.2 -2.1,-0.4 -3.1,-0.5 -0.5,0 -0.9,0 -1.4,0.1 v 7.5 l 2,0.2 1.2,-0.1 c -0.4,3.5 0.1,7.6 0.2,9.5 0.3,7.2 1.5,14.4 1.3,21.7 -0.1,2.6 -0.5,5.6 -2.7,6.9 -0.7,0.4 -1.5,0.6 -2.2,0.9 v 3.1 l 5.3,0.4 c 1,0.1 1.9,-0.6 2,-1.6 v -0.2 c -0.1,0 -1.2,-38.3 -1.2,-38.3 z"
       fill="#fb8532"
       id="path598" />
    <path
       d="m 374.7,73.1 -12.4,1.5 -11.7,-1.5 c -0.6,-2.1 -0.9,-4.3 -0.9,-6.6 0.1,-2.6 0.4,-5.1 0.9,-7.6 l 12.2,-1.3 11.9,1.3 c 0.5,2.5 0.9,5 0.9,7.5 0,2.3 -0.3,4.5 -0.9,6.7 z"
       fill="#2188ff"
       id="path600" />
    <path
       d="m 364.7,67.2 c -1,-0.2 -2.1,-0.4 -3.1,-0.5 -2.1,-0.1 -4,1.1 -6,2 -1.6,0.7 -4.1,0.5 -5.7,1.4 0.1,1 0.4,2 0.6,3 l 11.7,1.5 12.4,-1.5 c 0.6,-2.2 0.9,-4.5 0.9,-6.7 0,-1.3 -0.1,-2.6 -0.3,-3.8 -0.9,0.6 -1.8,1.3 -2.6,2 -2.1,1.9 -5,2.8 -7.9,2.6 z"
       fill="#0366d6"
       id="path602" />
    <path
       d="m 368.8,76.3 c -0.7,0 -1,-0.6 -1,-1.3 l -0.3,-3.8 c 0,-0.7 0.6,-1.3 1.4,-1.3 0.7,0 1.3,0.6 1.3,1.3 l -0.3,3.8 c 0,0.7 -0.4,1.2 -1.1,1.3 z m -11.3,0 c -0.7,0 -1,-0.6 -1,-1.3 l -0.3,-3.8 c 0,-0.7 0.6,-1.3 1.4,-1.3 0.4,0 0.7,0.1 0.9,0.4 0.3,0.2 0.4,0.6 0.4,0.9 l -0.3,3.8 c 0,0.7 -0.4,1.2 -1.1,1.3 z"
       fill="#f6f8fa"
       id="path604" />
    <path
       d="m 459.8,59.7 3.9,0.2 v -3.8 l -4,0.2 c -0.4,-1.3 -1.2,-2.4 -2.3,-3.2 -2.2,-1.6 -5.3,-1.6 -7.5,0.1 -1.1,0.8 -1.8,2 -2.2,3.3 l -4.4,-0.3 v 3.9 l 4.4,-0.3 c 0.5,1.7 1.7,3.1 3.3,3.9 v 33.7 c -2.1,1.1 -3.4,3.3 -3.4,5.7 0,2.5 1.5,5.4 4.3,5.7 0.3,0 -1.1,-7.3 -1.1,-7.3 l 6.5,-0.1 c 0,0 -1.5,7.3 -1.2,7.2 2.7,-0.9 4.9,-2.6 4.9,-5.6 0,-1.3 -0.4,-2.6 -1.2,-3.7 -0.8,-1.1 -1.8,-1.9 -3,-2.4 V 63.4 c 1.6,-0.8 2.6,-2.1 3,-3.7 z m -5.9,0.6 c -0.9,0 -1.6,-0.5 -2,-1.3 -0.4,-1.1 0.1,-2.3 1.1,-2.7 0.1,-0.1 0.3,-0.1 0.4,-0.1 0.8,-0.2 1.7,0.2 2.2,0.9 0.2,0.3 0.4,0.8 0.4,1.2 0,0.6 -0.2,1.1 -0.6,1.5 -0.4,0.3 -0.9,0.5 -1.5,0.5 z"
       fill="#79b8ff"
       id="path606" />
    <path
       d="m 451.8,58.2 c -0.3,-0.6 -0.1,-1.3 0.3,-1.9 0.4,-0.6 1.1,-0.9 1.9,-0.9 0.7,0 1.4,0.3 1.9,0.9 0.4,0.5 0.5,1.2 0.3,1.8 H 456 c 0,-0.5 -0.2,-1.1 -0.6,-1.5 -0.8,-0.8 -2.1,-0.8 -2.9,0 -0.4,0.6 -0.6,1.1 -0.7,1.6 z"
       fill="#2188ff"
       id="path608" />
    <path
       d="m 453.9,59.3 c -0.7,0 -1,-0.6 -1,-1.3 l -0.3,-3.8 c 0,-0.5 0.3,-1 0.8,-1.2 0.2,-0.1 0.3,-0.1 0.5,-0.1 0.4,0 0.7,0.1 1,0.4 0.3,0.3 0.4,0.6 0.4,0.9 L 455,58 c 0,0.3 -0.1,0.6 -0.3,0.9 -0.2,0.2 -0.5,0.3 -0.8,0.4 z"
       fill="#f6f8fa"
       id="path610" />
    <path
       d="m 451.2,75.6 v 3.8 l 5.8,-3.6 v -3.4 z m 0.9,33.1 c 0.3,0 -1.1,-7.3 -1.1,-7.3 l 6.5,-0.1 c 0,0 -1.5,7.3 -1.2,7.2 2.7,-0.9 4.9,-2.6 4.9,-5.6 0,-1.3 -0.4,-2.6 -1.2,-3.7 -0.8,-1.1 -1.8,-1.9 -3,-2.4 V 78.5 l -5.8,4.1 v 14.7 c -2.1,1.1 -3.4,3.3 -3.4,5.7 0,2.6 1.5,5.5 4.3,5.7 z"
       fill="#2188ff"
       id="path612" />
    <path
       d="m 457,97 c -0.2,-2.8 -0.3,-5.6 -0.4,-8.4 l -0.1,-4.2 v -4.2 c 0,-2.8 -0.1,-5.6 0,-8.4 0.1,-2.8 0,-5.6 0.1,-8.4 v -0.3 l 0.2,-0.1 c 1.3,-0.7 2.3,-1.9 2.8,-3.4 l 0.1,-0.2 h 0.2 c 1.3,0.2 2.6,0.3 3.9,0.5 V 60 l -3.9,-0.2 c -0.4,1.6 -1.5,2.9 -2.9,3.8 z"
       fill="#2188ff"
       id="path614" />
    <path
       d="m 440.1,58.8 2.4,0.2 v -3.2 l -2.4,0.2 c -0.3,-1.1 -1,-2 -1.9,-2.7 -1.9,-1.4 -4.4,-1.3 -6.2,0.1 -0.9,0.7 -1.5,1.6 -1.8,2.7 l -2.5,-0.2 v 3.2 l 2.5,-0.2 c 0.4,1.4 1.4,2.6 2.8,3.2 V 91 c -1.7,0.9 -2.8,2.8 -2.8,4.7 0,2.1 1.2,4.5 3.6,4.8 0.2,0 -0.9,-6.1 -0.9,-6.1 l 5.4,-0.1 c 0,0 -1.3,6.1 -1,6 2.3,-0.7 4.1,-2.2 4.1,-4.6 0,-1.1 -0.3,-2.2 -1,-3.1 -0.6,-0.9 -1.5,-1.6 -2.5,-2 V 61.9 c 1,-0.7 1.9,-1.8 2.2,-3.1 z m -4.9,0.6 c -0.7,0 -1.3,-0.4 -1.6,-1.1 -0.3,-0.6 -0.1,-1.4 0.4,-1.9 0.7,-0.7 1.8,-0.7 2.5,0 0.3,0.3 0.5,0.8 0.5,1.2 0,0.7 -0.4,1.3 -1.1,1.6 -0.3,0.1 -0.5,0.2 -0.7,0.2 z"
       fill="#79b8ff"
       id="path616" />
    <path
       d="m 433.4,57.6 c -0.3,-0.5 -0.2,-1.1 0.2,-1.6 0.4,-0.5 1,-0.8 1.6,-0.8 0.6,0 1.2,0.3 1.6,0.8 0.4,0.5 0.4,1.1 0.2,1.6 h -0.1 c 0,-0.5 -0.2,-0.9 -0.5,-1.2 -0.7,-0.6 -1.7,-0.6 -2.4,0 -0.3,0.3 -0.5,0.8 -0.6,1.2 z"
       fill="#2188ff"
       id="path618" />
    <path
       d="m 435.2,59 c -0.7,0 -1,-0.6 -1,-1.3 l -0.3,-3.8 c 0,-0.7 0.6,-1.3 1.3,-1.3 0.7,0 1.3,0.6 1.3,1.3 l -0.3,3.8 c 0.1,0.6 -0.4,1.2 -1,1.3 z"
       fill="#f6f8fa"
       id="path620" />
    <path
       d="m 432.9,72.1 v 3.2 l 4.8,-3 v -2.8 z m 0.8,28.4 c 0.2,0 -0.9,-6.1 -0.9,-6.1 l 5.4,-0.1 c 0,0 -1.3,6.1 -1,6 2.3,-0.7 4.1,-2.2 4.1,-4.6 0,-1.1 -0.3,-2.2 -1,-3.1 -0.6,-0.9 -1.5,-1.6 -2.5,-2 v -16 l -4.8,3.5 v 13 c -1.7,0.9 -2.8,2.8 -2.8,4.7 -0.1,2 1.1,4.4 3.5,4.7 z"
       fill="#2188ff"
       id="path622" />
    <path
       d="m 437.7,90.7 c -0.2,-2.4 -0.3,-4.8 -0.4,-7.2 l -0.1,-3.6 v -3.6 c 0,-2.4 -0.1,-4.8 0,-7.2 0.1,-2.4 0,-4.8 0.1,-7.2 v -0.3 l 0.2,-0.1 c 1.1,-0.6 1.9,-1.6 2.3,-2.8 l 0.1,-0.2 h 0.2 c 0.8,0.1 1.6,0.3 2.4,0.5 l -2.4,-0.2 c -0.4,1.3 -1.2,2.5 -2.4,3.2 z"
       fill="#2188ff"
       id="path624" />
    <path
       d="m 418.2,58.9 2.7,0.2 v -2.7 l -2.8,0.2 c -0.3,-0.9 -0.8,-1.7 -1.6,-2.2 -1.9,-1.4 -4.7,-0.9 -6,1 -0.3,0.4 -0.5,0.8 -0.6,1.3 l -3.1,-0.2 v 2.7 l 3.1,-0.2 c 0.3,1.2 1.2,2.1 2.3,2.7 v 24.7 c -0.7,0.4 -1.3,0.9 -1.7,1.6 -0.4,0.7 -0.6,1.5 -0.6,2.3 0,1.7 1,3.7 3,4 0.2,0 -0.8,-5.1 -0.8,-5.1 l 4.5,-0.1 c 0,0 -1,5.1 -0.9,5 1.9,-0.6 3.4,-1.8 3.4,-3.8 0,-0.9 -0.3,-1.8 -0.8,-2.5 -0.5,-0.7 -1.3,-1.3 -2.1,-1.6 V 61.5 c 1,-0.6 1.7,-1.5 2,-2.6 z m -4,0.5 c -0.6,0 -1.1,-0.4 -1.3,-0.9 -0.3,-0.7 0,-1.6 0.8,-1.9 0.1,0 0.2,-0.1 0.3,-0.1 0.6,-0.1 1.2,0.1 1.5,0.6 0.4,0.6 0.3,1.3 -0.2,1.8 -0.4,0.3 -0.8,0.5 -1.1,0.5 z"
       fill="#79b8ff"
       id="path626" />
    <path
       d="m 412.7,57.9 c -0.3,-0.4 -0.2,-1 0.1,-1.4 0.6,-0.8 1.7,-0.9 2.4,-0.4 0.1,0.1 0.3,0.2 0.4,0.4 0.3,0.4 0.3,0.9 0.1,1.4 h -0.1 c -0.1,-0.8 -0.7,-1.4 -1.5,-1.3 -0.8,0.1 -1.3,0.6 -1.4,1.3 z"
       fill="#2188ff"
       id="path628" />
    <path
       d="m 414.1,59.3 c -0.7,0 -1,-0.6 -1,-1.3 l -0.3,-3.8 c 0,-0.4 0.1,-0.7 0.4,-0.9 0.3,-0.3 0.6,-0.4 0.9,-0.4 0.7,0 1.3,0.6 1.3,1.3 l -0.3,3.8 c 0.1,0.6 -0.4,1.2 -1,1.3 z"
       fill="#f6f8fa"
       id="path630" />
    <path
       d="M 412,70.3 V 73 l 4,-2.5 v -2.4 z m 0.9,23.9 c 0.2,0 -0.8,-5.1 -0.8,-5.1 l 4.5,-0.1 c 0,0 -1,5.1 -0.9,5 1.9,-0.6 3.4,-1.8 3.4,-3.8 0,-0.9 -0.3,-1.8 -0.8,-2.5 -0.5,-0.7 -1.3,-1.3 -2.1,-1.6 V 72 l -4,2.8 v 11.5 c -1.4,0.8 -2.3,2.3 -2.3,3.9 0,1.8 1,3.8 3,4 z"
       fill="#2188ff"
       id="path632" />
    <path
       d="M 416.2,86.1 C 416,84.1 415.9,82 415.8,80 l -0.1,-3.1 v -3.1 c 0,-2 -0.1,-4.1 0,-6.1 0.1,-2 0,-4.1 0.1,-6.1 v -0.3 l 0.2,-0.1 c 0.9,-0.5 1.6,-1.3 1.9,-2.2 l 0.1,-0.2 h 0.2 c 0.9,0.1 1.8,0.3 2.7,0.4 v 0.1 l -2.7,-0.2 c -0.3,1.1 -1,2 -2,2.6 z"
       fill="#2188ff"
       id="path634" />
    <path
       d="m 395,152 c -0.2,-3.5 4.7,-20.4 -1.5,-20.4 -8.6,0.2 -2.6,17.1 -2.6,20.9 0,3.8 -3.1,2.7 -2.9,6.4 h 10.8 c -0.5,-3.3 -3.6,-3.5 -3.8,-6.9 z m -2.2,-14.2 c -0.7,0 -1.4,-0.4 -1.7,-1.1 -0.3,-0.7 -0.1,-1.5 0.4,-2 0.7,-0.7 1.9,-0.7 2.6,0 0.5,0.5 0.7,1.3 0.4,2 -0.3,0.6 -0.9,1.1 -1.7,1.1 z"
       fill="#ffab70"
       id="path636" />
    <path
       d="m 398.7,158 h -10.8 v 3.8 h 10.8 z"
       fill="#ffea7f"
       id="path638" />
    <path
       d="m 398.4,172.8 c -0.6,-0.1 -0.7,-0.5 -1.2,-1 l -0.6,1.1 c 0,0.1 -0.1,0.2 -0.2,0.2 -0.2,0.1 -0.4,-0.1 -0.5,-0.3 l -0.8,-1.3 c -0.1,0.7 -0.5,1.4 -1.1,1.9 l -0.8,-2 c -0.3,0.7 -0.7,1.5 -1.1,2.1 -0.5,-0.8 -0.8,-1.8 -0.9,-2.8 -0.5,0.7 -0.9,1.5 -1.2,2.3 -0.5,-0.4 -0.8,-1 -0.9,-1.6 -0.3,0.8 -0.3,1.3 -1.1,1.4 v -11.5 h 10.4 c 0,0.1 0.2,10.5 0,11.5 z"
       fill="#959da5"
       id="path640" />
    <path
       d="m 392.9,136.2 c -0.7,0 -1,-0.6 -1,-1.3 l -0.3,-3.8 c 0,-0.4 0.1,-0.7 0.4,-0.9 0.5,-0.5 1.4,-0.5 1.9,0 0.3,0.3 0.4,0.6 0.4,0.9 l -0.3,3.8 c 0,0.7 -0.5,1.2 -1.1,1.3 z"
       fill="#f6f8fa"
       id="path642" />
    <path
       d="m 395.1,151.6 c -0.1,-2 1.5,-8.4 1.7,-13.5 -0.6,1.7 -0.6,4.5 -1,5.8 -0.6,2.4 -1.8,4.6 -3.5,6.4 -0.5,0.5 -1,1.1 -1.3,1.7 v 0.7 c 0,0.1 0,0.2 0.1,0.3 0.2,0.3 0.5,0.6 0.9,0.8 0.8,0.5 1.7,1 2.6,1.3 0.8,0.4 1.6,0.6 2.4,0.6 -0.8,-1 -1.8,-1.8 -1.9,-4.1 z"
       fill="#fb8532"
       id="path644" />
    <path
       d="m 414.8,151.9 c -0.2,-3.5 4.7,-20.4 -1.5,-20.4 -8.6,0.2 -2.6,17.1 -2.6,20.9 0,3.8 -2.1,2.7 -1.9,6.4 h 8.8 c -0.3,-3.3 -2.6,-3.5 -2.8,-6.9 z m -2.2,-14.2 c -0.7,0 -1.4,-0.4 -1.7,-1.1 -0.4,-0.9 0.1,-2 1,-2.4 0.1,0 0.2,-0.1 0.3,-0.1 1,-0.2 2,0.5 2.1,1.4 0.1,0.4 0,0.7 -0.1,1 -0.1,0.8 -0.8,1.2 -1.6,1.2 z"
       fill="#ffab70"
       id="path646" />
    <path
       d="m 417.5,157.9 h -8.8 v 3.8 h 8.8 z"
       fill="#ffea7f"
       id="path648" />
    <path
       d="m 417.3,172.8 c -0.5,-0.1 -0.6,-0.5 -1,-1 l -0.5,1.2 c 0,0.1 -0.1,0.2 -0.2,0.2 -0.2,0.1 -0.3,-0.1 -0.4,-0.3 l -0.7,-1.3 c -0.1,0.7 -0.4,1.4 -0.9,1.9 l -0.6,-2 c -0.2,0.7 -0.5,1.4 -0.9,2.1 -0.4,-0.9 -0.6,-1.8 -0.7,-2.8 -0.4,0.7 -0.7,1.5 -1,2.3 -0.4,-0.5 -0.6,-1 -0.7,-1.6 -0.2,0.8 -0.2,1.3 -0.9,1.4 v -11.5 h 8.5 c 0.1,0 0.1,10.3 0,11.4 z"
       fill="#959da5"
       id="path650" />
    <path
       d="m 412.6,136.1 c -0.7,0 -1,-0.6 -1,-1.3 l -0.3,-3.8 c 0,-0.7 0.6,-1.3 1.3,-1.3 0.7,0 1.3,0.6 1.3,1.3 l -0.3,3.8 c 0.2,0.7 -0.3,1.3 -1,1.3 z"
       fill="#f6f8fa"
       id="path652" />
    <path
       d="m 414.8,151.9 c -0.1,-2 1.5,-8.4 1.7,-13.5 -0.6,1.7 -0.6,4.5 -1,5.8 -0.6,2.4 -1.8,4.6 -3.5,6.4 -0.5,0.5 -1,1.1 -1.3,1.7 v 0.7 c 0,0.1 0,0.2 0.1,0.3 0.2,0.3 0.5,0.6 0.9,0.8 0.8,0.5 1.7,1 2.6,1.3 0.7,0.4 1.6,0.6 2.4,0.6 -0.8,-1 -1.7,-1.9 -1.9,-4.1 z"
       fill="#fb8532"
       id="path654" />
    <path
       d="m 434.1,130.9 c -1,-0.1 -2,0.3 -2.7,0.9 -0.7,0.7 -1.2,1.6 -1.2,2.6 l 1.4,18.2 h 5 l 1.4,-18.2 c -0.1,-1.5 -1,-2.8 -2.5,-3.4 -0.4,-0.1 -0.9,-0.1 -1.4,-0.1 z m 0.1,5.7 c -0.7,0 -1.3,-0.4 -1.5,-1 -0.3,-0.6 -0.1,-1.3 0.4,-1.8 0.6,-0.6 1.7,-0.6 2.3,0 0.3,0.3 0.5,0.7 0.5,1.1 0,0.4 -0.2,0.9 -0.5,1.2 -0.4,0.4 -0.8,0.5 -1.2,0.5 z"
       fill="#ffab70"
       id="path656" />
    <path
       d="m 436.6,152.7 7.4,15.6 h -20.3 l 7.8,-15.6 z"
       fill="#c8e1ff"
       id="path658" />
    <path
       d="m 434.2,135.5 c -0.7,0 -1,-0.6 -1,-1.3 l -0.3,-3.8 c 0,-0.4 0.1,-0.7 0.4,-0.9 0.5,-0.5 1.4,-0.5 1.9,0 0.3,0.2 0.4,0.6 0.4,0.9 l -0.3,3.8 c 0,0.6 -0.5,1.2 -1.1,1.3 z"
       fill="#f6f8fa"
       id="path660" />
    <path
       d="m 431.6,152.7 h 5 l 1.1,-14.7 c -0.7,2.6 -1.3,5.3 -3.1,7.4 -0.6,0.7 -2.2,2 -3.4,3.3 z"
       fill="#fb8532"
       id="path662" />
    <path
       d="m 439,157.6 c -1.4,0.3 -2.6,1.2 -3.4,2.3 -0.6,0.9 -0.8,2.1 -1.7,2.7 -1.9,1.5 -4.8,-0.4 -7,0.6 -0.3,0.1 -0.6,0.3 -0.9,0.4 l -2.3,4.6 H 444 Z m 94.7,-40 c -2.6,0 -5.1,0.8 -7.2,2.2 -2.1,1.4 -3.8,3.4 -4.8,5.8 -2,4.8 -0.9,10.4 2.8,14.1 1.8,1.8 4.1,3 6.6,3.5 2.5,0.5 5.1,0.2 7.5,-0.7 2.4,-1 4.4,-2.6 5.8,-4.8 a 13,13 0 0 0 2.2,-7.2 c 0,-3.4 -1.4,-6.7 -3.8,-9.2 -2.4,-2.4 -5.7,-3.7 -9.1,-3.7 z m 0.5,20.2 c -1.5,0.1 -3,-0.3 -4.2,-1 -3.6,-2.1 -4.7,-6.7 -2.7,-10.2 l 0.9,-1.2 c 1,-1.1 2.3,-1.9 3.7,-2.3 1.4,-0.4 3,-0.3 4.4,0.2 1.4,0.5 2.6,1.4 3.5,2.6 2.2,2.9 2,6.8 -0.4,9.5 -1.3,1.4 -3.2,2.3 -5.2,2.4 z"
       fill="#79b8ff"
       id="path664" />
    <path
       d="m 533.8,121.9 c -1.6,0 -3.2,0.5 -4.6,1.4 -1.4,0.9 -2.4,2.2 -3,3.7 -1.3,3.1 -0.6,6.6 1.8,8.9 3.2,3.2 8.4,3.2 11.7,0 0.4,-0.4 0.7,-0.8 1,-1.2 2.2,-3.3 1.7,-7.6 -1,-10.3 -1.6,-1.6 -3.7,-2.5 -5.9,-2.5 z m 0,14.8 c -1.3,0 -2.6,-0.4 -3.7,-1.1 -3,-2 -3.8,-6.1 -1.8,-9.1 0.2,-0.4 0.5,-0.7 0.8,-1 2.6,-2.6 6.8,-2.6 9.3,0 0.3,0.3 0.6,0.6 0.8,1 1.7,2.6 1.4,6.1 -0.8,8.3 -1.1,1.2 -2.8,1.9 -4.6,1.9 z"
       fill="#f6f8fa"
       id="path666" />
    <path
       d="m 533.9,126.4 c -0.7,0 -1,-0.6 -1,-1.3 l -0.3,-3.8 c 0,-0.5 0.3,-1 0.8,-1.2 0.2,-0.1 0.3,-0.1 0.5,-0.1 0.7,0 1.3,0.6 1.3,1.3 l -0.3,3.8 c 0.1,0.7 -0.3,1.3 -1,1.3 z"
       fill="#f6f8fa"
       id="path668" />
    <path
       d="m 533.6,150.2 c -1.8,0 -3.6,0.5 -5.2,1.6 -1.5,1 -2.7,2.5 -3.4,4.2 -0.7,1.7 -0.9,3.6 -0.5,5.4 0.4,1.8 1.2,3.5 2.5,4.8 2.7,2.7 6.7,3.4 10.1,2 1.7,-0.7 3.2,-1.9 4.2,-3.4 2.5,-3.7 2,-8.6 -1.2,-11.7 -1.7,-2 -4,-2.9 -6.5,-2.9 z m 0.4,14.5 c -1.1,0.1 -2.1,-0.2 -3.1,-0.7 -0.9,-0.5 -1.7,-1.3 -2.1,-2.3 -0.9,-2 -0.6,-4.3 0.8,-5.9 1.5,-1.6 3.8,-2.2 5.8,-1.5 2.1,0.7 3.5,2.6 3.6,4.8 0.1,1.4 -0.4,2.8 -1.4,3.9 -0.8,0.9 -2.2,1.6 -3.6,1.7 z"
       fill="#79b8ff"
       id="path670" />
    <path
       d="m 533.7,153.2 c -2.4,0 -4.5,1.4 -5.4,3.6 -0.9,2.2 -0.4,4.7 1.3,6.4 0.8,0.8 1.9,1.4 3,1.6 1.1,0.2 2.3,0.1 3.4,-0.3 1.1,-0.4 2,-1.2 2.6,-2.2 1.8,-2.7 1.1,-6.3 -1.6,-8.2 -0.3,-0.2 -0.7,-0.4 -1,-0.6 -0.7,-0.1 -1.5,-0.3 -2.3,-0.3 z m 0,10.6 c -1.9,0 -3.6,-1.1 -4.4,-2.9 -0.4,-0.9 -0.5,-1.8 -0.3,-2.7 0.2,-0.9 0.6,-1.8 1.3,-2.4 1.4,-1.4 3.4,-1.8 5.2,-1 2.4,1 3.6,3.7 2.6,6.2 -0.5,1.2 -1.4,2.1 -2.6,2.6 -0.5,0.1 -1.2,0.2 -1.8,0.2 z"
       fill="#f6f8fa"
       id="path672" />
    <path
       d="m 533.8,156.9 c -0.7,0 -1,-0.6 -1,-1.3 l -0.3,-3.8 c 0,-0.7 0.6,-1.3 1.3,-1.3 0.5,0 1,0.3 1.2,0.8 0.1,0.2 0.1,0.3 0.1,0.5 l -0.3,3.8 c 0.2,0.6 -0.3,1.2 -1,1.3 z"
       fill="#f6f8fa"
       id="path674" />
    <path
       d="m 460,182.3 h -1.4 v 5.7 h 1.4 z m 32.7,1.1 -1,-0.9 -3.8,4.2 1,0.9 z"
       fill="#ffab70"
       id="path676" />
    <path
       d="m 497.7,180.4 h -45.3 c 0.7,1.6 1.1,3.2 1.2,4.9 -0.1,1.6 -0.5,3.1 -1.2,4.5 h 45.3 c -0.8,-1.4 -1.2,-3 -1.2,-4.5 0.1,-1.7 0.5,-3.4 1.2,-4.9 z m -38.4,7.4 c -0.5,0 -1,-0.2 -1.5,-0.4 -1.2,-0.8 -1.5,-2.4 -0.7,-3.7 0.1,-0.1 0.2,-0.3 0.3,-0.4 0.8,-0.8 1.9,-1 2.9,-0.6 1,0.4 1.6,1.4 1.6,2.4 0,0.7 -0.3,1.4 -0.8,1.9 -0.5,0.5 -1.1,0.8 -1.8,0.8 z m 19,-1.2 h -7.7 c -0.4,0 -0.8,-0.1 -1.1,-0.4 -0.1,-0.1 -0.3,-0.3 -0.3,-0.5 -0.3,-0.6 -0.1,-1.2 0.3,-1.7 0.3,-0.3 0.7,-0.4 1.1,-0.4 h 7.7 c 0.4,0 0.8,0.1 1.1,0.4 0.6,0.5 0.6,1.5 0.1,2.1 l -0.1,0.1 c -0.3,0.2 -0.7,0.4 -1.1,0.4 z m 11.7,1.2 c -1.1,0 -2,-0.6 -2.4,-1.6 -0.4,-1 -0.2,-2.1 0.6,-2.9 1,-1 2.7,-1 3.8,0 0.1,0.1 0.2,0.2 0.3,0.4 0.7,1 0.6,2.4 -0.3,3.3 -0.7,0.5 -1.3,0.8 -2,0.8 z"
       fill="#79b8ff"
       id="path678" />
    <path
       d="m 499.4,178.5 h -49.3 v 2.7 h 49.3 z m 0,10.4 h -49.3 v 2.7 h 49.3 z"
       fill="#d1d5da"
       id="path680" />
    <path
       d="m 475.2,185.7 c -0.7,0 -1,-0.6 -1,-1.3 l -0.3,-3.8 c 0,-0.7 0.6,-1.3 1.3,-1.3 0.4,0 0.7,0.1 0.9,0.4 0.3,0.2 0.4,0.6 0.4,0.9 l -0.3,3.8 c 0.1,0.7 -0.4,1.3 -1,1.3 z M 529.5,77.3 h -50.9 v 1.6 h 50.9 z"
       fill="#f6f8fa"
       id="path682" />
    <path
       d="m 484.6,79.6 h -1.8 v 25 h 1.8 z"
       fill="#c8e1ff"
       id="path684" />
    <path
       d="m 485.8,78.3 c -0.5,-1 -0.7,-2.1 -0.7,-3.3 h -2.4 c 0.1,1.1 -0.2,2.3 -0.8,3.3 h -1.1 v 2 h 5.9 v -2 z"
       fill="#f66a0a"
       id="path686" />
    <path
       d="m 484,56.8 c 0.9,0 1.8,0.4 2.4,1 0.6,0.6 1,1.5 1,2.4 v 14.9 h -6.9 V 60.3 c 0,-0.9 0.4,-1.8 1,-2.4 0.7,-0.7 1.6,-1.1 2.5,-1.1 z"
       fill="#ffab70"
       id="path688" />
    <path
       d="m 487.2,58.9 c -0.4,0.7 -0.7,1.5 -0.9,2.2 h -1.4 v 10.5 c -0.4,0.7 -1,1.3 -1.6,1.8 v -12 H 482 V 74 c -0.5,0.1 -1,0.3 -1.5,0.5 v 0.8 h 6.9 v -15 c 0.1,-0.5 0,-1 -0.2,-1.4 z"
       fill="#f66a0a"
       id="path690" />
    <path
       d="m 479,74.8 c -0.7,0 -1,-0.5 -1,-1.2 l -0.3,-3.5 c 0,-0.7 0.5,-1.2 1.2,-1.2 0.7,0 1.2,0.5 1.2,1.2 l -0.3,3.5 c 0.2,0.6 -0.2,1.1 -0.8,1.2 z m 50.4,5.1 c -0.7,0 -1,-0.5 -1,-1.2 l -0.3,-3.5 c 0,-0.7 0.5,-1.2 1.2,-1.2 0.7,0 1.2,0.5 1.2,1.2 l -0.3,3.5 c 0.2,0.6 -0.2,1.1 -0.8,1.2 z"
       fill="#f6f8fa"
       id="path692" />
    <path
       d="m 494.7,79.6 h -1.8 v 25 h 1.8 z"
       fill="#c8e1ff"
       id="path694" />
    <path
       d="m 495.9,78.3 c -0.5,-1 -0.7,-2.1 -0.7,-3.3 h -2.4 c 0.1,1.1 -0.2,2.3 -0.8,3.3 h -1.1 v 2 h 5.9 v -2 z"
       fill="#f66a0a"
       id="path696" />
    <path
       d="m 494.1,56.8 c 0.9,0 1.8,0.4 2.4,1 0.6,0.6 1,1.5 1,2.4 v 14.9 h -6.9 V 60.3 c 0,-0.9 0.4,-1.8 1,-2.4 0.7,-0.7 1.6,-1.1 2.5,-1.1 z"
       fill="#ffab70"
       id="path698" />
    <path
       d="m 497.3,58.9 c -0.4,0.7 -0.7,1.5 -0.9,2.2 H 495 v 10.5 c -0.4,0.7 -1,1.3 -1.6,1.8 v -12 h -1.3 V 74 c -0.5,0.1 -1,0.3 -1.5,0.5 v 0.8 h 6.9 v -15 c 0.1,-0.5 0,-1 -0.2,-1.4 z"
       fill="#f66a0a"
       id="path700" />
    <path
       d="m 489.1,79.9 c -0.7,0 -1,-0.5 -1,-1.2 l -0.3,-3.5 c 0,-0.7 0.6,-1.2 1.2,-1.2 0.7,0 1.2,0.5 1.2,1.2 l -0.3,3.5 c 0.2,0.6 -0.2,1.1 -0.8,1.2 z"
       fill="#f6f8fa"
       id="path702" />
    <path
       d="M 504.8,79.6 H 503 v 25 h 1.8 z"
       fill="#c8e1ff"
       id="path704" />
    <path
       d="m 506,78.3 c -0.5,-1 -0.7,-2.1 -0.7,-3.3 h -2.4 c 0.1,1.1 -0.2,2.3 -0.8,3.3 H 501 v 2 h 5.9 v -2 z"
       fill="#f66a0a"
       id="path706" />
    <path
       d="m 504.2,56.8 c 0.9,0 1.8,0.4 2.4,1 0.6,0.6 1,1.5 1,2.4 v 14.9 h -6.9 V 60.3 c 0,-0.9 0.4,-1.8 1,-2.4 0.7,-0.7 1.6,-1.1 2.5,-1.1 z"
       fill="#ffab70"
       id="path708" />
    <path
       d="m 507.4,58.9 c -0.4,0.7 -0.7,1.5 -0.9,2.2 h -1.4 v 10.5 c -0.4,0.7 -1,1.3 -1.6,1.8 v -12 h -1.3 V 74 c -0.5,0.1 -1,0.3 -1.5,0.5 v 0.8 h 6.9 v -15 c 0,-0.5 -0.1,-1 -0.2,-1.4 z"
       fill="#f66a0a"
       id="path710" />
    <path
       d="m 499.2,79.9 c -0.7,0 -0.9,-0.5 -0.9,-1.2 L 498,75.2 c 0,-0.7 0.5,-1.2 1.2,-1.2 0.7,0 1.2,0.5 1.2,1.2 l -0.3,3.5 c 0.2,0.6 -0.3,1.1 -0.9,1.2 z"
       fill="#f6f8fa"
       id="path712" />
    <path
       d="m 514.8,100.8 h -1.6 l -0.1,-21.2 h 1.8 z"
       fill="#c8e1ff"
       id="path714" />
    <path
       d="m 516.1,78.3 c -0.5,-1 -0.7,-2.1 -0.7,-3.3 H 513 c 0.1,1.1 -0.2,2.3 -0.8,3.3 H 511 v 2 h 5.9 v -2 z"
       fill="#f66a0a"
       id="path716" />
    <path
       d="m 514.3,56.8 c 0.9,0 1.8,0.4 2.4,1 0.6,0.6 1,1.5 1,2.4 v 14.9 h -6.9 V 60.3 c 0,-0.9 0.4,-1.8 1,-2.4 0.7,-0.7 1.6,-1.1 2.5,-1.1 z"
       fill="#ffab70"
       id="path718" />
    <path
       d="m 517.5,58.9 c -0.4,0.7 -0.7,1.5 -0.9,2.2 h -1.4 v 10.5 c -0.4,0.7 -1,1.3 -1.6,1.8 v -12 h -1.3 V 74 c -0.5,0.1 -1,0.3 -1.5,0.5 v 0.8 h 6.9 v -15 c 0.1,-0.5 0,-1 -0.2,-1.4 z"
       fill="#f66a0a"
       id="path720" />
    <path
       d="m 509.3,79.9 c -0.7,0 -0.9,-0.5 -0.9,-1.2 l -0.3,-3.5 c 0,-0.7 0.5,-1.2 1.2,-1.2 0.7,0 1.2,0.5 1.2,1.2 l -0.3,3.5 c 0.2,0.6 -0.3,1.1 -0.9,1.2 z"
       fill="#f6f8fa"
       id="path722" />
    <path
       d="m 525,79.6 h -1.8 v 14.6 h 1.8 z"
       fill="#c8e1ff"
       id="path724" />
    <path
       d="m 526.2,78.3 c -0.5,-1 -0.7,-2.1 -0.7,-3.3 H 523 c 0.1,1.1 -0.2,2.3 -0.8,3.3 h -1.1 v 2 h 5.9 v -2 z"
       fill="#f66a0a"
       id="path726" />
    <path
       d="m 524.4,56.8 c 0.9,0 1.8,0.4 2.4,1 0.6,0.6 1,1.5 1,2.4 V 75.1 H 521 V 60.3 c 0,-0.9 0.4,-1.8 1,-2.4 0.6,-0.7 1.5,-1.1 2.4,-1.1 z"
       fill="#ffab70"
       id="path728" />
    <path
       d="m 527.5,58.9 c -0.4,0.7 -0.7,1.5 -0.8,2.2 h -1.4 v 10.5 c -0.4,0.7 -1,1.3 -1.6,1.8 v -12 h -1.3 V 74 c -0.5,0.1 -1,0.3 -1.5,0.5 v 0.8 h 6.9 v -15 c 0,-0.5 -0.1,-1 -0.3,-1.4 z"
       fill="#f66a0a"
       id="path730" />
    <path
       d="m 519.4,79.9 c -0.7,0 -0.9,-0.5 -0.9,-1.2 l -0.3,-3.5 c 0,-0.7 0.6,-1.2 1.2,-1.2 0.3,0 0.6,0.1 0.8,0.4 0.2,0.2 0.4,0.5 0.4,0.9 l -0.3,3.5 c 0.1,0.5 -0.3,1 -0.9,1.1 z"
       fill="#f6f8fa"
       id="path732" />
    <path
       d="m 325.9,67.2 h -1.6 v 1.5 h 1.6 z"
       fill="#0366d6"
       id="path734" />
    <path
       d="M 486.7,79.5 480.8,79 v -0.7 h 5.9 z m 10,0 -5.9,-0.5 v -0.7 h 5.9 z m 10.1,0 -5.9,-0.5 v -0.7 h 5.9 z m 10.1,0 L 511,79 v -0.7 h 5.9 z m 10.2,0 -5.9,-0.5 v -0.7 h 5.9 z"
       fill="#ffab70"
       id="path736" />
    <path
       d="m 646.4,78 -2.9,0.4 2.4,18.8 2.9,-0.4 z"
       fill="#e8eaee"
       id="path738" />
    <path
       d="m 653.3,78.2 -2.3,-0.1 -0.5,18.9 2.3,0.1 z"
       fill="#e1e4e8"
       id="path740" />
    <path
       d="m 659.2,76.8 -2.3,-0.3 -2.8,18.7 2.3,0.3 z"
       fill="#e8eaee"
       id="path742" />
    <path
       d="m 659.4,90.9 h -16.6 v 21.8 h 16.6 z"
       fill="#e8eaee"
       id="path744" />
    <path
       d="m 638.6,103.6 h -44.8 v 9.2 h 44.8 z"
       fill="#e1e4e8"
       id="path746" />
    <path
       d="m 636.7,97.5 h -37.4 v 6.9 h 37.4 z"
       fill="#e8eaee"
       id="path748" />
    <path
       d="M 502.3,211.1 H 386.5 v 3.8 h 115.7 z"
       fill="#d1d5da"
       id="path750" />
    <path
       d="m 504.3,210.2 h -121 v 1.6 h 121 z"
       fill="#e8eaee"
       id="path752" />
    <path
       d="m 441.7,207.7 c 0,5 -2,9.1 -4.5,9.1 -2.5,0 -4.5,-4.1 -4.5,-9.1 0,-2.2 2.6,-9.1 2.6,-9.1 0.6,-0.1 1.2,-0.1 1.9,-0.1 2.6,0.1 4.5,4.2 4.5,9.2 z"
       fill="#e8eaee"
       id="path754" />
    <path
       d="m 435.5,216.8 c 2.5,0 4.5,-4.1 4.5,-9.1 0,-5 -2,-9.1 -4.5,-9.1 -2.5,0 -4.5,4.1 -4.5,9.1 0,5 2,9.1 4.5,9.1 z m -1.5,-19.4 0.5,0.4 -2.6,0.5 -0.2,-0.6 z m 6.1,0.4 0.5,0.9 -2.6,0.9 -0.2,-1.2 z"
       fill="#f6f8fa"
       id="path756" />
    <path
       d="m 435.2,210.8 c 0.6,0 1.1,-1 1.1,-2.1 0,-1.2 -0.5,-2.1 -1.1,-2.1 -0.6,0 -1.1,0.9 -1.1,2.1 0,1.1 0.5,2.1 1.1,2.1 z"
       fill="#e8eaee"
       id="path758" />
    <path
       d="m 374.5,209.1 h -16.1 v 8 h 16.1 z"
       fill="#d1d5da"
       id="path760" />
    <path
       d="M 474.8,285.4 H 408.9 L 408.1,217 H 476 Z"
       fill="#e8eaee"
       id="path762" />
    <path
       d="m 475.9,216.6 h -67.8 v 7.6 h 67.8 z"
       fill="#d1d5da"
       id="path764" />
    <path
       d="m 396.5,284.6 12.4,0.6 -0.8,-68.2 h -12.8 z m 56.8,-28.2 h -3.6 v -8 h 1.7 c 9.4,0 20,0.1 26.3,-6.2 4.1,-4.1 6.2,-10.9 6.2,-20.2 h 8 c 0,11.6 -2.8,20.1 -8.6,25.8 -8,8.2 -19.9,8.6 -30,8.6 z"
       fill="#d1d5da"
       id="path766" />
    <path
       d="M 449.3,248 H 449 v 8 h 0.4 v -8 z m 3.8,8 -0.1,-8 h 0.7 l 0.1,8 z m 4.5,-0.1 -0.4,-8 h 0.7 l 0.4,8 z m 4.5,-0.3 -0.7,-8 0.7,-0.1 0.9,8 z m 4.7,-0.6 -1.4,-7.9 0.7,-0.1 1.5,7.9 z m 4.7,-1.1 -2.2,-7.7 c 0.2,-0.1 0.4,-0.1 0.6,-0.2 l 2.4,7.7 z m 4.7,-1.7 -3.3,-7.3 0.6,-0.3 3.5,7.2 z m 4.5,-2.6 -4.7,-6.5 0.5,-0.4 4.9,6.3 z m 3.9,-3.5 -6.1,-5.3 0.4,-0.4 6.2,5.1 z m 3,-4.3 -7,-3.9 0.3,-0.5 7.2,3.7 c -0.2,0.2 -0.3,0.5 -0.5,0.7 z m 2,-4.7 -7.6,-2.6 c 0.1,-0.2 0.1,-0.4 0.2,-0.6 l 7.7,2.3 c -0.1,0.5 -0.2,0.7 -0.3,0.9 z m 1.3,-4.7 -7.9,-1.5 c 0,-0.2 0.1,-0.4 0.1,-0.6 l 7.9,1.3 c 0,0.3 -0.1,0.5 -0.1,0.8 z m 0.6,-4.8 -8,-0.6 0.1,-0.7 8,0.5 c 0,0.4 -0.1,0.6 -0.1,0.8 z m 0.2,-4.7 h -8 v -0.3 l 8,-0.1 z"
       fill="#e1e4e8"
       id="path768" />
    <path
       d="m 454,257.7 c -2,0 -4,-0.6 -5.6,-1.7 -1.7,-1.1 -3,-2.7 -3.7,-4.5 -0.8,-1.8 -1,-3.9 -0.6,-5.8 0.4,-2 1.4,-3.8 2.8,-5.2 4,-4 10.4,-3.9 14.4,0 0.5,0.5 0.9,1 1.2,1.5 1.1,1.7 1.7,3.6 1.7,5.6 0,2.7 -1.1,5.2 -3,7.1 -1.9,1.9 -4.5,3 -7.2,3 z m 0,-17.2 c -1.4,0 -2.8,0.4 -4,1.2 -1.2,0.8 -2.1,1.9 -2.7,3.2 -1.1,2.7 -0.5,5.8 1.6,7.8 2.8,2.8 7.4,2.8 10.2,0 0.3,-0.3 0.6,-0.7 0.9,-1.1 0.8,-1.2 1.2,-2.6 1.2,-4 0,-2.9 -1.8,-5.5 -4.4,-6.7 -0.9,-0.3 -1.9,-0.5 -2.8,-0.4 z"
       fill="#e1e4e8"
       id="path770" />
    <path
       d="m 447.9,243.9 c 1.3,0 2.4,-1.1 2.4,-2.4 0,-1.3 -1.1,-2.4 -2.4,-2.4 -1.3,0 -2.4,1.1 -2.4,2.4 0,1.3 1.1,2.4 2.4,2.4 z"
       fill="#d1d5da"
       id="path772" />
    <path
       d="m 673.2,293.8 -111,-3.4 V 111.8 h 111 z"
       fill="#e8eaee"
       id="path774" />
    <path
       d="m 673.2,111.8 13.6,12.1 v 156.8 l -13.6,13.1 z m -7,7.9 -98.6,1.2 0.2,15.2 98.6,-1.2 c -0.1,0 -0.2,-15.2 -0.2,-15.2 z"
       fill="#e1e4e8"
       id="path776" />
    <path
       d="m 668.4,115.2 -103.5,1.3 0.1,6.2 103.5,-1.3 c 0,0 -0.1,-6.1 -0.1,-6.2 z"
       fill="#f6f8fa"
       id="path778" />
    <path
       d="m 666.2,147 -98.6,0.5 0.1,23.4 98.6,-0.5 z"
       fill="#e1e4e8"
       id="path780" />
    <path
       d="M 668.5,142.6 565,143.1 v 6.2 l 103.5,-0.5 z"
       fill="#f6f8fa"
       id="path782" />
    <path
       d="m 666.2,182.5 h -98.6 v 23.4 h 98.6 z"
       fill="#e1e4e8"
       id="path784" />
    <path
       d="m 668.5,179 -103.5,-1.5 -0.1,6.2 103.5,1.5 z"
       fill="#f6f8fa"
       id="path786" />
    <path
       d="m 666.1,217.3 -98.6,1.2 0.3,23.4 98.6,-1.2 z"
       fill="#e1e4e8"
       id="path788" />
    <path
       d="m 668.3,212.9 -103.5,1.3 0.1,6.2 103.5,-1.3 z"
       fill="#f6f8fa"
       id="path790" />
    <path
       d="m 666.2,253.1 h -98.6 v 23.4 h 98.6 z"
       fill="#e1e4e8"
       id="path792" />
    <path
       d="m 668.6,249.3 -103.6,-1.1 -0.1,6.2 103.5,1.2 z"
       fill="#f6f8fa"
       id="path794" />
    <path
       d="m 201.6,140.4 h 2.7 l -0.6,-21.9 -2.7,0.1 z"
       fill="#e1e4e8"
       id="path796" />
    <path
       d="m 199.4,140.8 2.7,-0.3 -3.4,-21.7 -2.7,0.2 z"
       fill="#e8eaee"
       id="path798" />
    <path
       d="m 194,152.5 h 19.3 V 128.3 H 194 Z"
       fill="#f6f8fa"
       id="path800" />
    <path
       d="m 221.7,152.5 h 27.1 v -7.9 h -27.1 z"
       fill="#e8eaee"
       id="path802" />
    <path
       d="m 156.4,292.9 129.2,-2.6 V 152.1 H 156.4 Z"
       fill="#e1e4e8"
       id="path804" />
    <path
       d="m 156.4,152.1 -15.9,9.4 v 121.3 l 15.9,10.1 z m 8,21.6 114.7,0.9 0.2,-11.8 -114.7,-0.9 z"
       fill="#e8eaee"
       id="path806" />
    <path
       d="m 161.9,163.3 120.5,1 0.1,-4.8 -120.5,-1 z"
       fill="#f6f8fa"
       id="path808" />
    <path
       d="m 164.4,201.1 114.8,0.4 0.1,-18.1 -114.7,-0.4 z"
       fill="#e8eaee"
       id="path810" />
    <path
       d="m 163.1,184.4 119.3,0.4 V 180 l -119.3,-0.4 z"
       fill="#f6f8fa"
       id="path812" />
    <path
       d="M 164.5,228.6 H 279.3 V 210.5 H 164.5 Z"
       fill="#e8eaee"
       id="path814" />
    <path
       d="m 161.9,212.5 120.5,-1.1 -0.1,-4.8 -120.5,1.1 z"
       fill="#f6f8fa"
       id="path816" />
    <path
       d="m 164.3,255.4 114.7,0.9 0.3,-18.1 -114.7,-0.9 z"
       fill="#e8eaee"
       id="path818" />
    <path
       d="m 162,238.7 120.5,1 0.1,-4.8 -120.5,-1 z"
       fill="#f6f8fa"
       id="path820" />
    <path
       d="M 164.5,283.2 H 279.3 V 265.1 H 164.5 Z"
       fill="#e8eaee"
       id="path822" />
    <path
       d="m 161.9,267 120.5,-0.9 -0.1,-4.8 -120.5,0.9 z"
       fill="#f6f8fa"
       id="path824" />
    <path
       d="M 517.4,222.4 H 374.5 l -0.5,-8.3 144.1,0.7 z"
       fill="#e8eaee"
       id="path826" />
    <path
       d="m 269.8,217.6 c -0.4,0 -0.9,-0.1 -1.4,-0.2 -9.1,-2.5 -16.3,-16.2 -15,-24.5 l 1.7,0.3 c -1.2,7.5 5.6,20.4 13.8,22.7 2.6,0.7 4.7,-1.7 6.8,-4.1 0.9,-1 1.8,-2 2.7,-2.7 l 1,1.4 c -0.8,0.6 -1.6,1.5 -2.4,2.5 -2,2 -4.3,4.6 -7.2,4.6 z"
       fill="#0366d6"
       id="path828" />
    <path
       d="m 287.9,207.1 -9.8,8 -24.7,-22.4 c -4,-3.7 -4.3,-9.7 -0.2,-13.1 4.1,-3.5 10.4,-2.5 13.9,1.7 z"
       fill="#ffab70"
       id="path830" />
    <path
       d="m 280.2,208.4 c -2.7,2.4 -3.7,5.2 -2.3,6.3 1.4,1.2 4.4,0.1 6.9,-2.1 2.6,-2.2 3.7,-5 2.5,-6.2 -1.1,-1.2 -4.4,-0.4 -7.1,2 z"
       fill="#fb8532"
       id="path832" />
    <path
       d="m 288.7,211.7 c -1.4,0.1 -3.6,-1.8 -3.6,-1.8 -1.4,-0.3 -3.1,0.9 -3.1,2 0.5,1.3 0.8,2.7 1,4.1 z"
       fill="#ffab70"
       id="path834" />
    <path
       d="m 282.1,211.3 c 1.3,1.8 5.9,0.2 5.9,0.2 l -2.3,2.8 -2.6,1.8 -1.2,-4.3 z"
       fill="#fb8532"
       id="path836" />
    <path
       d="m 285.1,213.4 c -2.2,1.9 -3.5,3.9 -2.9,4.5 0.6,0.5 2.8,-0.6 5,-2.5 2.2,-1.9 3.5,-3.9 2.9,-4.4 -0.5,-0.6 -2.8,0.4 -5,2.4 z"
       fill="#ffab70"
       id="path838" />
    <path
       d="m 282.2,217.9 1,1 7.8,-6.3 -0.8,-1.6 -4.7,2.6 z"
       fill="#ffab70"
       id="path840" />
    <path
       d="m 285.8,214.3 c -2.2,1.9 -3.5,3.9 -2.8,4.4 0.6,0.5 2.8,-0.6 4.9,-2.4 2.1,-1.8 3.5,-3.8 2.9,-4.4 -0.6,-0.6 -2.8,0.5 -5,2.4 z"
       fill="#fb8532"
       id="path842" />
    <path
       d="m 315.3,243.9 -1.9,1.6 -27.4,-29 c 0,-0.6 0.3,-1.1 0.8,-1.4 0.4,-0.4 1,-0.6 1.5,-0.6 z"
       fill="#c8e1ff"
       id="path844" />
    <path
       d="m 279.1,214.3 c 1.1,-2 1.8,-4.2 2.1,-6.5 -1.5,0.8 -3.2,1.2 -4.9,1.4 -1.8,-0.1 -3.4,-0.8 -4.8,-1.9 -2.1,-1.5 -4.2,-3.1 -6.1,-4.9 -4.4,-4.1 -8.4,-8.6 -11.9,-13.6 -0.5,-0.7 -1.7,-3 -2.9,-5 -0.4,1.6 -0.3,3.3 0.2,4.8 0.5,1.6 1.4,3 2.7,4.1 l 24.7,22.4 z"
       fill="#fb8532"
       id="path846" />
    <path
       d="m 281.3,210.8 -1.8,1.5 -22.6,-22.4 1.9,-2.8 z m 4.8,-3.2 -1.2,1 -21.5,-25.1 2.2,-0.6 z"
       fill="#fb8532"
       id="path848" />
    <path
       d="m 341.9,221.4 c -4.3,0 -8.9,-0.6 -14.1,-1.7 -16.5,-3.6 -25.2,-10 -28.1,-20.7 -2.9,-10.5 -4.8,-25.6 2.9,-38.1 l 0.3,0.2 c -0.8,-3.6 -1.9,-9.9 -1.4,-12.8 v -0.2 l 0.1,-0.1 c 2.7,-4.1 13.6,-9.1 21.8,-7.2 13.9,-5.8 31.6,-1.5 43.1,5.4 7.5,0.4 17.5,6.6 17.9,8.5 0.2,1.2 0.1,13.1 -3.8,17.9 0.5,7.8 -1.2,17.5 -4.6,26.5 -3.3,8.8 -7.6,15.1 -11.3,16.8 -8.4,3.6 -15.2,5.5 -22.8,5.5 z M 303.3,163 c -6.5,11.7 -4.7,25.7 -2,35.5 2.8,10.1 11,16.1 26.9,19.5 13.9,3.1 23,2.1 35.9,-3.8 6.4,-2.9 16.1,-24.8 14.9,-42 v -0.4 l 0.2,-0.3 c 3.4,-3.8 3.8,-15.1 3.6,-16.6 -0.9,-1.3 -9.4,-6.9 -16.5,-7.2 h -0.2 l -0.2,-0.1 c -15.6,-9.4 -32.3,-9.4 -42,-5.2 l -0.3,0.1 -0.3,-0.1 c -7.1,-1.7 -17.6,2.6 -20.2,6.3 -0.6,3.8 2,14.5 2,14.6 l -1.6,0.4 c 0,-0.1 -0.1,-0.3 -0.2,-0.7 z"
       fill="#0366d6"
       id="path850" />
    <path
       d="m 368.2,213 -1.2,-1.2 c 2.8,-2.7 1.5,-5.4 0.3,-8 -0.5,-1.1 -1,-2.1 -1.1,-3 -0.1,-1.4 0.6,-2.7 1.7,-4.4 1.5,-2.5 3.7,-5.9 4.5,-11.8 0.6,-4.2 -0.9,-7.9 -3.9,-9.9 -2.5,-1.7 -5.7,-2 -8.1,-0.6 -4.7,2.6 -14.7,6.7 -28.6,4.5 -7.1,-1.1 -11.7,-5.2 -15,-8.2 -1.8,-1.6 -3.4,-3 -4.5,-3.1 -1,-0.1 -2.2,0.4 -3.3,1.5 -2.3,2.2 -3.5,6 -3.2,9.7 0.2,2.6 0.6,4.7 0.8,6.4 0.4,2.7 0.7,4.6 0.3,6.5 -0.2,1.1 -0.7,2 -1.1,2.8 -0.7,1.4 -1.3,2.6 -1.3,5.3 0,3.4 0.8,8 4.8,10.5 l -0.9,1.4 c -4.6,-2.9 -5.6,-8.1 -5.6,-11.9 0,-3 0.8,-4.6 1.5,-6 0.4,-0.8 0.7,-1.5 0.9,-2.5 0.3,-1.5 0.1,-3.3 -0.4,-5.8 -0.3,-1.7 -0.6,-3.8 -0.9,-6.5 -0.4,-4.1 1.1,-8.5 3.7,-11.1 1.4,-1.4 3.1,-2.1 4.7,-2 1.7,0.2 3.4,1.7 5.5,3.6 3.2,2.8 7.6,6.7 14.2,7.8 13.4,2.1 23,-1.8 27.6,-4.3 3,-1.6 6.8,-1.4 9.8,0.7 3.6,2.4 5.2,6.6 4.6,11.5 -0.9,6.2 -3.2,10 -4.7,12.4 -0.9,1.5 -1.6,2.5 -1.5,3.4 0.1,0.6 0.5,1.5 1,2.5 1.3,2.6 3.1,6.2 -0.6,9.8 z"
       fill="#0366d6"
       id="path852" />
    <path
       d="m 358.6,316 c -8.4,0 -16.7,-2.4 -24,-7 -0.7,-0.3 -1.3,-0.9 -1.7,-1.5 -0.5,-0.7 -0.7,-1.5 -0.7,-2.3 -1.6,-9.8 -0.9,-20.9 -0.3,-31.7 0.4,-6.5 0.7,-12.7 0.6,-18.6 h 1.7 c 0.1,5.9 -0.2,12.1 -0.6,18.7 -0.6,10.7 -1.2,21.7 0.3,31.4 v 0.1 c 0,0.5 0.1,1 0.5,1.4 0.3,0.4 0.7,0.8 1.2,1 4.9,3.2 10.3,5.2 15.9,6.2 v -0.1 c 4,-0.9 9.5,-2.5 13.1,-5.3 1.3,-1.1 2.9,-1.9 4.4,-2.3 1.9,-0.4 4.2,0.3 5,2.2 v 0.1 c 0.5,1.8 -0.1,3.7 -1.5,4.8 -1.3,1 -2.8,1.6 -4.4,1.9 -3.2,0.7 -6.4,1 -9.5,1 z m -2.7,-1.8 c 3.9,0.3 7.9,0 11.9,-0.9 1.3,-0.2 2.6,-0.7 3.7,-1.5 0.8,-0.6 1.2,-1.8 0.9,-2.9 -0.5,-1 -1.9,-1.4 -3,-1.2 -1.2,0.3 -2.5,1 -3.7,2 -2.9,2.1 -6.5,3.5 -9.8,4.5 z M 332.6,206.1 h -0.8 c -1.7,-0.2 -3.1,-1 -3.9,-2 -0.4,-0.6 -0.6,-1.2 -0.5,-1.8 0.3,-1.8 2.5,-2.8 5.2,-2.4 1.7,0.2 3.1,1 3.8,2 0.4,0.6 0.6,1.2 0.5,1.8 -0.1,0.5 -0.3,1 -0.8,1.4 -0.7,0.6 -2,1 -3.5,1 z m -1,-4.6 c -1.4,0 -2.4,0.5 -2.5,1.1 0,0.2 0.1,0.4 0.2,0.5 0.4,0.5 1.3,1.1 2.7,1.3 1.5,0.1 2.6,-0.2 3.1,-0.6 0.1,-0.1 0.2,-0.2 0.2,-0.3 v -0.1 c 0,-0.2 -0.1,-0.4 -0.2,-0.5 -0.4,-0.5 -1.3,-1.1 -2.7,-1.3 -0.2,-0.1 -0.5,-0.1 -0.8,-0.1 z"
       fill="#0366d6"
       id="path854" />
    <path
       d="m 373.4,307.9 -1.7,-0.3 c 0.5,-2.8 0.6,-5.6 0.2,-8.2 -0.3,-2.7 -1.6,-5.1 -3.6,-6.9 -1.3,-1 -2.7,-1.8 -4.3,-2.2 -5.8,-1.9 -11.7,-2.3 -17.8,-1 l -0.4,-1.7 c 6.4,-1.4 12.6,-1 18.6,1 1.7,0.5 3.3,1.3 4.9,2.5 2.4,2.1 3.9,4.9 4.2,8 0.5,2.9 0.5,5.8 -0.1,8.8 z"
       fill="#0366d6"
       id="path856" />
    <path
       d="m 306.8,314 -0.2,-0.1 c -5.2,0.2 -10.4,-0.6 -15.3,-2.3 -1.5,-0.5 -2.9,-1.3 -3.8,-2.3 -1.3,-1.3 -1.6,-3.3 -0.7,-4.9 l 0.1,-0.1 c 1.2,-1.5 3.3,-2.1 5,-1.4 1.4,0.6 2.7,1.5 4,2.8 2.8,2.7 6.1,4.7 9.6,6 0.2,-0.1 0.4,0 0.6,0.1 0.2,0.1 0.3,0.2 0.4,0.5 5.7,-0.2 11.3,-1.5 16.4,-4.1 h 0.1 c 0.4,-0.1 0.9,-0.4 1.2,-0.8 0.3,-0.5 0.5,-1 0.6,-1.4 3.2,-11.2 3.9,-24.1 4.6,-36.6 0.2,-3.9 0.4,-7.9 0.7,-11.7 l 1.7,0.1 c -0.3,3.8 -0.5,7.6 -0.7,11.6 -0.7,12.6 -1.4,25.6 -4.6,36.8 -0.1,0.5 -0.3,1.2 -0.8,1.9 l -0.1,0.1 c -0.5,0.6 -1.2,1.1 -1.9,1.4 -5.5,2.6 -11.2,4.1 -16.9,4.4 z m -1.1,-2.2 c 0.1,0 0.1,0 0.2,0.1 l -0.1,0.3 h 0.3 c 0,-0.1 -0.1,-0.3 -0.4,-0.4 z m -17.6,-6.5 c -0.5,0.9 -0.3,2.1 0.5,2.8 0.8,0.8 1.9,1.5 3.2,1.9 3.3,1.2 6.8,1.9 10.2,2.1 -2.7,-1.3 -5.2,-3.1 -7.4,-5.2 -1.1,-1.1 -2.3,-1.9 -3.4,-2.4 -1.1,-0.5 -2.4,-0.1 -3.1,0.8 z m 66.6,-16.8 c -3.9,-11.5 -7.7,-24.6 -6.5,-35.2 -0.1,-0.4 0,-0.8 0.2,-1.2 l 2,-3.1 -0.5,3.6 c -1.4,10.4 2.4,23.7 6.4,35.3 z"
       fill="#0366d6"
       id="path858" />
    <path
       d="m 288,305.5 -1.6,-0.4 c 1.7,-7.6 6.6,-14.2 12.6,-17.4 1.7,-0.9 3.4,-1.6 5,-2 4.9,-10.6 7.9,-23.5 7.7,-33.2 h 1.7 c 0.2,11.5 -3.6,24.2 -7.4,32.8 2.9,-0.3 5.9,0.3 9.2,2.6 l -0.9,1.4 c -4.7,-3.2 -8.5,-3.2 -14.5,0 -5.6,2.9 -10.1,9.1 -11.8,16.2 z m -19.6,-88.1 c -9.1,-2.5 -16.3,-16.2 -15,-24.5 l 0.8,0.1 -0.8,-0.1 c 1,-6.5 3.6,-10.1 8.9,-12.3 12,-5.1 26.8,-2.7 36.9,6 l -1.1,1.3 c -9.4,-8.2 -23.9,-10.5 -35.1,-5.8 -4.7,2 -7,5.1 -7.9,11.1 -1.2,7.5 5.6,20.4 13.8,22.7 z m 109.2,-43.5 -1.4,-1 c 1.7,-2.4 3.4,-12.8 3.3,-14.6 -1.3,-0.7 -9,-1.7 -13,0.3 l -0.8,-1.5 c 4.1,-2.1 14.3,-1.5 15.2,0.4 1.1,1.9 -1.8,14.3 -3.3,16.4 z m -15.4,53.6 c -0.4,0 -0.7,-0.3 -0.8,-0.6 -0.5,-1.7 -1.1,-3.4 -2.2,-4.4 -0.8,-0.7 -2.1,-1.1 -3,-0.8 0.7,1.3 1.3,2.7 1.7,4.1 l -1.6,0.4 c -0.7,-2.6 -2,-4.9 -3.9,-6.7 l 1.2,-1.2 c 0.6,0.6 1.2,1.2 1.7,1.9 0.6,-0.3 1.3,-0.4 2,-0.3 1.1,0.1 2.2,0.6 3.1,1.3 1.4,1.2 2.1,2.9 2.5,4.4 0.3,0.4 0.4,1 0.2,1.4 -0.3,0.4 -0.6,0.5 -0.9,0.5 z m -0.8,-1.2 c -0.1,0.2 0,0.4 0.2,0.5 l 0.2,-0.4 z"
       fill="#0366d6"
       id="path860" />
    <path
       d="m 378.7,226.6 c -3.1,0 -6.1,-0.5 -8.9,-1.6 l 0.6,-1.6 c 6.9,2.7 15.4,1.8 22.8,-2.6 6,-3.6 11.2,-9.4 15.9,-17.7 l 0.3,-0.6 c 1,-1.8 2.1,-3.6 4,-4.7 1.2,-0.7 2.4,-1.1 3.7,-1.3 4.5,-1.1 9,-3.1 13.3,-5.9 2.4,-1.6 6.2,-4.8 5.2,-8.5 l -0.3,-1 1,-0.1 h 0.6 c 0.3,0 1.2,0 1.3,-0.2 v -0.3 c -0.2,-0.9 -3.2,-1.2 -4.8,-1.4 -0.3,0 -0.6,-0.1 -0.9,-0.1 -7.9,-1.2 -15.8,-1.2 -23.7,0 -4.2,0.6 -8.9,1.7 -12.1,5 -2.7,2.7 -3.9,6.5 -5.1,10.4 -0.8,2.5 -1.6,5.1 -2.8,7.4 -2.1,3.8 -5.3,6.9 -9,8.9 -3.7,1.9 -7.9,2.8 -12.3,2.5 l 0.1,-1.7 c 4,0.3 7.9,-0.5 11.3,-2.3 3.4,-1.8 6.3,-4.7 8.3,-8.2 1.2,-2.2 1.9,-4.7 2.7,-7.1 1.3,-4 2.6,-8 5.5,-11.1 3.6,-3.6 8.6,-4.8 13.1,-5.4 8,-1.2 16.1,-1.2 24.2,0 0.3,0 0.6,0.1 0.9,0.1 2.6,0.3 5.7,0.7 6.2,2.7 0.1,0.7 0,1.3 -0.3,1.7 -0.5,0.7 -1.4,0.8 -2.2,0.8 0.4,4.2 -3.6,7.6 -6.1,9.3 -4.5,2.9 -9.1,4.9 -13.9,6.1 -1.1,0.2 -2.1,0.5 -3.2,1.1 -1.5,0.9 -2.4,2.4 -3.3,4.1 l -0.3,0.6 c -4.8,8.5 -10.2,14.5 -16.5,18.3 -4.8,2.9 -10.2,4.4 -15.3,4.4 z m -74.9,-20 -5.2,-3.6 c -2.2,-1.5 -4.3,-2.9 -6.6,-3.5 -2.2,-0.5 -2.8,-0.2 -4.6,0.8 l -0.5,-0.7 -0.3,-0.8 c 1.9,-1 3,-1.6 5.8,-0.9 2.6,0.6 5,2.2 7.2,3.7 l 5.2,3.6 z m 2,-45.3 c -1.2,-3.8 -2.2,-10.9 -1.1,-12.7 0.3,-0.4 0.6,-0.6 0.9,-0.6 4.5,-0.8 12.7,6 14.1,7.5 l -1.2,1.2 c -1.4,-1.5 -8.7,-7.3 -12.3,-7 -0.4,1.1 -0.1,6.4 1.3,11.1 z m 0.1,-11.6 c -0.1,0 0,0 0,0 z"
       fill="#0366d6"
       id="path862" />
    <path
       d="m 372,220.5 c -0.8,0 -1.7,0 -2.5,-0.1 -1.5,0 -3,-0.1 -4.6,-0.3 l 0.2,-1.7 c 1.5,0.2 2.9,0.3 4.4,0.3 6.9,0.3 11.3,-0.6 12.2,-1.3 -0.9,-0.7 -5.3,-1.9 -12.2,-2.1 -1.7,-0.1 -3.4,-0.1 -5,0 l -0.1,-1.7 c 1.7,-0.1 3.5,-0.1 5.2,0 0.5,0 13.9,0.4 13.9,3.8 0,0.3 -0.1,0.7 -0.5,1.1 -1.4,1.4 -6.3,2 -11,2 z m 17.7,-7.3 c -0.6,0 -0.9,-0.2 -1.1,-0.5 -1.9,-1.7 1.5,-7.3 5.5,-11.8 4.7,-5.1 6.9,-7.4 8.5,-7.5 0.5,0 0.9,0.1 1.2,0.4 1.6,1.4 0.3,6.2 -4.6,11.7 -6.9,7.7 -8.8,7.7 -9.5,7.7 0.1,0 0.1,0 0,0 z m 12.9,-18 c -1,0 -4.8,4.2 -7.3,6.9 -4.7,5.2 -5.8,8.8 -5.5,9.4 0,0 1.5,0.1 8.1,-7.1 4.7,-5.1 5.1,-8.7 4.7,-9.2 z m 9.9,-8.7 c -8.9,0 -9.8,-1.9 -9.9,-2.6 0,-3.3 12.4,-4.1 13.8,-4.2 1.4,-0.1 14,-0.9 14.2,2.5 0,3.3 -12.4,4.1 -13.8,4.2 -1.6,0 -3,0.1 -4.3,0.1 z m -8,-2.8 c 1,0.6 5,1.3 12.3,0.9 6.8,-0.4 11.2,-1.7 12.1,-2.4 -1,-0.6 -5.4,-1.4 -12.3,-0.9 -6.9,0.4 -11.2,1.7 -12.1,2.4 z m -130.9,28.2 -1.7,-0.3 c 0.7,-4.1 3.3,-7.6 7,-9.7 1.2,-0.7 2.6,-1.1 3.9,-1.1 1,0 2,0.4 2.8,1.1 1.3,-3.3 -1.4,-7.2 -3.4,-10.2 -2.3,-3.4 -5.6,-5.8 -9.7,-7 l 0.5,-1.6 c 4.5,1.3 8.2,3.9 10.7,7.6 2.4,3.4 5.9,8.7 2.9,13.1 -0.2,0.2 -0.4,0.4 -0.7,0.4 -0.3,0 -0.5,-0.2 -0.7,-0.4 -0.5,-0.8 -1.4,-1.3 -2.3,-1.3 -1,0 -2.1,0.3 -3.1,0.9 -3.3,1.9 -5.5,5 -6.2,8.5 z"
       fill="#0366d6"
       id="path864" />
    <path
       d="m 255.2,227.5 2.2,1.2 -26.5,42.9 -2.2,-1 z"
       fill="#e8eaee"
       id="path866" />
    <path
       d="m 246.7,244.1 -1.8,0.1 c -1.7,0.1 -3.1,1.5 -3.2,3.2 l -0.5,6.3 5.1,-0.4 z"
       fill="#f6f8fa"
       id="path868" />
    <path
       d="m 268.7,316.7 c 3.6,0 6.5,-2.9 6.5,-6.4 0,-3.5 -2.9,-6.4 -6.5,-6.4 -3.6,0 -6.5,2.9 -6.5,6.4 0,3.5 2.9,6.4 6.5,6.4 z"
       fill="#959da5"
       id="path870" />
    <path
       d="m 247.1,252.4 c 1.2,0 2.2,-1.8 2.2,-4.1 0,-2.3 -1,-4.1 -2.2,-4.1 -1.2,0 -2.2,1.8 -2.2,4.1 0,2.3 1,4.1 2.2,4.1 z"
       fill="#e8eaee"
       id="path872" />
    <path
       d="m 269.4,303.2 c -4.2,3.4 -5.2,11.6 -2.3,13.6 h 4 c -3,-4.1 0.5,-12.6 0.5,-12.6 z"
       fill="#d1d5da"
       id="path874" />
    <path
       d="M 274.8,306.6 H 260 l -0.3,-51.7 H 275 Z"
       fill="#d1d5da"
       id="path876" />
    <path
       d="m 274.8,306.6 2.7,-1.5 0.3,-50.2 H 275 Z"
       fill="#959da5"
       id="path878" />
    <path
       d="m 373.6,291.8 -97.4,-1 -0.1,8.2 97.4,1 z"
       fill="#d1d5da"
       id="path880" />
    <path
       d="m 373.6,290 -97.4,-1 v 1.8 l 97.4,1 z"
       fill="#e1e4e8"
       id="path882" />
    <path
       d="m 374.7,316.7 c 3.6,0 6.5,-2.9 6.5,-6.4 0,-3.5 -2.9,-6.4 -6.5,-6.4 -3.6,0 -6.5,2.9 -6.5,6.4 0,3.5 2.9,6.4 6.5,6.4 z"
       fill="#959da5"
       id="path884" />
    <path
       d="m 375.5,303.2 c -4.2,3.4 -5.2,11.6 -2.3,13.6 h 4 c -3,-4.1 0.5,-12.6 0.5,-12.6 z"
       fill="#d1d5da"
       id="path886" />
    <path
       d="m 380.9,306.6 h -14.8 l -0.3,-51.7 h 15.3 z"
       fill="#d1d5da"
       id="path888" />
    <path
       d="m 380.9,306.6 2.7,-1.5 0.3,-50.2 h -2.8 z M 244,329.4 c 3.6,0 6.5,-2.9 6.5,-6.4 0,-3.5 -2.9,-6.4 -6.5,-6.4 -3.6,0 -6.5,2.9 -6.5,6.4 0,3.6 2.9,6.4 6.5,6.4 z"
       fill="#959da5"
       id="path890" />
    <path
       d="m 244.7,315.9 c -4.2,3.4 -5.2,11.6 -2.3,13.6 h 4 c -3,-4.1 0.5,-12.6 0.5,-12.6 z"
       fill="#d1d5da"
       id="path892" />
    <path
       d="m 373.8,268.3 13.9,-14.9 -0.4,-6.6 -13.5,11.7 z"
       fill="#959da5"
       id="path894" />
    <path
       d="M 373.8,258.4 H 235 v 9.8 h 138.8 z"
       fill="#d1d5da"
       id="path896" />
    <path
       d="m 228.1,254.8 c 1.5,-0.4 35.1,-14.9 35.1,-14.9 l 125.6,2.5 -12.4,14.9 z"
       fill="#959da5"
       id="path898" />
    <path
       d="m 228.1,254.8 1.1,5.1 146.8,1.8 0.4,-4.4 z"
       fill="#6a737d"
       id="path900" />
    <path
       d="m 388.7,242.4 0.4,4.7 -13.1,14.6 0.4,-4.4 z"
       fill="#6a737d"
       id="path902" />
    <path
       d="m 250.1,319.2 h -14.8 l -0.3,-51 h 15.3 z"
       fill="#d1d5da"
       id="path904" />
    <path
       d="m 250.1,319.2 2.7,-1.5 0.3,-49.5 h -2.8 z"
       fill="#959da5"
       id="path906" />
    <path
       d="m 358,299.9 -106.6,-1.1 -0.1,9 106.6,1.1 z"
       fill="#d1d5da"
       id="path908" />
    <path
       d="m 358.1,297.8 -106.6,-1.1 v 2 l 106.6,1.1 z"
       fill="#e1e4e8"
       id="path910" />
    <path
       d="m 363.5,329.2 c 3.6,0 6.5,-2.8 6.5,-6.2 0,-3.4 -2.9,-6.2 -6.5,-6.2 -3.6,0 -6.5,2.8 -6.5,6.2 0,3.5 2.9,6.2 6.5,6.2 z"
       fill="#959da5"
       id="path912" />
    <path
       d="m 364.2,316 c -4.2,3.3 -5.2,11.4 -2.3,13.2 h 4 c -3.1,-4 0.5,-12.3 0.5,-12.3 z"
       fill="#d1d5da"
       id="path914" />
    <path
       d="m 369.6,319.3 h -14.8 l -0.3,-51 h 15.3 z"
       fill="#d1d5da"
       id="path916" />
    <path
       d="m 369.6,320 2.7,-1.4 0.3,-49.6 h -2.8 z"
       fill="#959da5"
       id="path918" />
    <ellipse
       cx="256.70001"
       cy="227.89999"
       fill="#e8eaee"
       rx="2.7"
       ry="2.5"
       id="ellipse920" />
    <path
       d="m 229.7,273.9 c 1.5,0 2.7,-1.1 2.7,-2.5 0,-1.4 -1.2,-2.5 -2.7,-2.5 -1.5,0 -2.7,1.1 -2.7,2.5 0,1.4 1.2,2.5 2.7,2.5 z"
       fill="#e8eaee"
       id="path922" />
    <ellipse
       cx="568.90002"
       cy="307.39999"
       fill="#e8eaee"
       rx="35.099998"
       ry="4.4000001"
       id="ellipse924" />
    <path
       d="m 547.7,303.2 c -0.8,0.8 -1.9,1.1 -3,0.9 -2,-0.4 -2.5,-1.4 -2.5,-1.4 l 3.6,-42.4 7,0.7 z m 43.5,-10.1 c -0.2,0.5 -0.5,1 -0.9,1.4 -0.4,0.4 -0.9,0.6 -1.5,0.7 -1.9,0.5 -2.8,-0.2 -2.8,-0.2 l -15.2,-39.7 6.6,-2.4 z"
       fill="#959da5"
       id="path926" />
    <path
       d="m 579.5,278.2 -30.6,4.7 c -0.5,-0.6 -0.8,-1.3 -0.7,-2.1 0.1,-0.8 0.3,-1.7 0.6,-2.5 l 29.8,-5.1 z"
       fill="#959da5"
       id="path928" />
    <path
       d="m 529.6,256.3 c 0.7,4.2 4,8.9 6.2,9 0,0 17.7,0.4 28.6,-2 10.9,-2.4 15.3,-3.9 16.7,-4.9 1.3,-1.1 3.2,-6.5 2.4,-10.5 z"
       fill="#d1d5da"
       id="path930" />
    <path
       d="m 557.3,256.7 c 14.9,-2.3 26.6,-6.2 26.2,-8.8 -0.4,-2.5 -12.8,-2.7 -27.7,-0.4 -14.9,2.3 -26.6,6.2 -26.2,8.8 0.4,2.5 12.8,2.7 27.7,0.4 z"
       fill="#e1e4e8"
       id="path932" />
    <path
       d="m 541.8,310.1 c -0.9,0.8 -2.2,1.1 -3.4,0.8 -2.1,-0.5 -2.6,-1.7 -2.6,-1.7 l 6.2,-46 7.6,1.1 z m 48.4,-7.1 c -0.5,1.1 -1.5,1.9 -2.7,2.2 -2.1,0.5 -3.1,-0.4 -3.1,-0.4 l -14.9,-45.7 7.3,-2.2 z"
       fill="#d1d5da"
       id="path934" />
    <path
       d="m 578,284.2 -33.6,3.5 c -0.5,-0.7 -0.8,-1.5 -0.7,-2.3 0.2,-0.9 0.4,-1.8 0.8,-2.6 l 32.8,-3.9 z"
       fill="#d1d5da"
       id="path936" />
    <path
       d="m 298.9,234.3 -1.5,3.1 -6.1,-3.5 -5.2,1.9 -4.2,3.2 -2.9,-1 1.1,-2.7 4.6,-2.7 7,-1.6 z"
       fill="#959da5"
       id="path938" />
    <path
       d="m 299.1,236.5 -1.5,3.1 -6.1,-3.5 -5.5,1 -5,2.1 -1.9,-1.3 5.8,-3.1 7.1,-1.6 z m 19.9,17.9 c 16.1,0 29.2,-1.2 29.2,-2.7 0,-1.5 -13.1,-2.7 -29.2,-2.7 -16.1,0 -29.2,1.2 -29.2,2.7 0,1.5 13.1,2.7 29.2,2.7 z"
       fill="#6a737d"
       id="path940" />
    <path
       d="m 442.8,337.5 c -11.9,0 -22.8,-1.2 -33,-3.7 -3.8,-0.9 -9.2,-2.6 -11.4,-6.9 -1.2,-2.4 -1.2,-5.1 -1.2,-7.8 v -48.9 c 0,-4.8 -0.5,-10.5 -4.7,-12.7 -4,-2.2 -8.9,-1.8 -13.7,-1.4 -2,0.1 -3.8,0.3 -5.6,0.3 -2.6,0.1 -5,-0.4 -7.2,-1.7 -1.5,-1 -2.7,-2.3 -3.8,-3.7 -0.7,-0.8 -1.4,-1.6 -2.1,-2.3 -2.4,-2.3 -5.4,-3.6 -8.8,-3.8 v -0.8 c 3.6,0.2 6.9,1.6 9.4,4 0.8,0.7 1.5,1.6 2.2,2.4 1.1,1.3 2.2,2.6 3.6,3.5 2,1.1 4.3,1.6 6.8,1.5 1.8,0 3.6,-0.1 5.6,-0.3 4.9,-0.4 9.9,-0.8 14.1,1.5 4.5,2.4 5.1,8.5 5.1,13.5 v 48.9 c 0,2.6 0,5.2 1.2,7.4 2,4 7.1,5.6 10.8,6.5 20,4.8 42.5,4.9 70.8,0.2 5,-0.8 11.8,-2.5 13.4,-7.9 1.3,-4.4 -2.2,-9.1 -6.2,-11.1 -3.7,-1.8 -7.9,-2.1 -12,-2.4 -0.6,0 -1.3,-0.1 -1.9,-0.1 -5.9,-0.4 -12.6,-1.2 -18.3,-4.6 -0.9,-0.5 -1.6,-1.1 -2,-1.9 -0.4,-0.8 -0.4,-1.7 -0.1,-2.5 0.7,-1.7 2.7,-3 4.4,-3.6 6.9,-2.3 14.3,-1.5 21.5,-0.7 7.5,0.8 15.3,1.6 22.3,-1.2 2.9,-1.1 5.5,-2.9 7.3,-5.4 2.3,-3.5 2.6,-7.9 2.6,-11.7 0,-5.1 -0.5,-10.4 -1.4,-15.8 -0.4,-2.1 -1,-4.7 -2.8,-6 -0.9,-0.6 -2,-0.9 -3.2,-0.7 l -0.1,-0.8 c 1.4,-0.2 2.7,0.1 3.8,0.9 2.1,1.5 2.8,4.3 3.2,6.6 0.9,5.5 1.4,10.9 1.4,16 0,4 -0.3,8.5 -2.8,12.2 -2,2.6 -4.6,4.5 -7.7,5.7 -7.1,2.8 -15,2 -22.6,1.2 -7.1,-0.7 -14.5,-1.5 -21.2,0.7 -1.5,0.5 -3.3,1.6 -3.9,3.1 -0.3,0.6 -0.2,1.2 0.1,1.8 0.3,0.7 0.8,1.1 1.6,1.5 5.5,3.3 12.2,4.1 17.9,4.5 0.6,0.1 1.3,0.1 1.9,0.1 4.2,0.3 8.5,0.6 12.3,2.5 4.3,2.1 8,7.2 6.6,12.1 -1.7,5.9 -8.8,7.7 -14,8.5 -14,2.1 -26.6,3.3 -38.2,3.3 z"
       fill="#ffd1ac"
       id="path942" />
    <path
       d="m 300.8,232.2 -3.2,1.7 -2.8,-6.8 -6.4,-0.3 -7.7,-0.8 1.4,-1.3 5.9,-2.3 8.8,1.5 z"
       fill="#6a737d"
       id="path944" />
    <path
       d="m 300.8,233 -3.2,1.7 -3.7,-6.2 -5.5,-1.7 -6.4,1.2 -1.3,-2.1 7.4,-2.8 8.9,2.3 z"
       fill="#959da5"
       id="path946" />
    <path
       d="m 301.1,238.7 -6.2,6.3 -6.3,1.8 h -6.2 l -0.3,-1.8 1.2,-2.6 5,1.2 5,-1.2 5.4,-6.9 z"
       fill="#d1d5da"
       id="path948" />
    <path
       d="m 301.5,239.6 -6.2,6.2 -6.3,1.8 -6.6,-0.9 1.4,-3.5 5,1.2 5.2,-0.8 5.4,-6.2 z"
       fill="#6a737d"
       id="path950" />
    <path
       d="m 297.7,245.9 6.1,0.9 v -3.3 c -2.4,0.1 -4.7,-0.1 -7,-0.7 0.1,1.1 0.5,2.1 0.9,3.1 z"
       fill="#d1d5da"
       id="path952" />
    <path
       d="m 299,223.8 c -0.9,3 -2.2,6.7 -2.6,9.4 2.4,-0.5 4.9,-0.4 7.2,0.3 l -0.1,-9.5 z"
       fill="#959da5"
       id="path954" />
    <path
       d="m 296.6,242.9 c 2.3,0.5 4.7,0.6 7.1,0.4 l -0.5,-10 c -2.4,-0.5 -4.3,-0.8 -6.8,-0.1 -0.6,3.2 -0.5,6.5 0.2,9.7 z"
       fill="#b2bbc4"
       id="path956" />
    <path
       d="m 298.1,234 c -0.1,5.1 1.4,10 4.2,14.2 3.2,-0.3 6.5,-0.9 9.9,-1.1 -2,-6.2 -2.7,-12.6 -2.2,-19.1 -1.9,-2.3 -3.3,-4.9 -4.3,-7.7 -1.2,0.5 -2.4,1.1 -3.5,1.8 -1.2,0.8 -3.9,4.9 -4.1,11.9 z"
       fill="#6a737d"
       id="path958" />
    <path
       d="m 312.5,218.2 c 17.2,-4.6 34,2.1 37.4,4.1 3.5,5.3 5.4,20.2 -0.5,26.6 -8.8,5 -22.9,7.4 -35.1,4.6 -4.2,-9.9 -7,-24.1 -1.8,-35.3 z"
       fill="#fff4b5"
       id="path960" />
    <path
       d="m 352.2,243.7 c -0.5,1.9 -1.5,3.6 -2.8,5.1 -8.8,5 -22.9,7.4 -35.1,4.6 -2.9,-7 -5.2,-16.4 -4.3,-25.3 2.5,3.1 8.9,10.5 18,6.2 16.4,-7.7 29.2,-10.1 24.2,9.4 z"
       fill="#ffdf5d"
       id="path962" />
    <path
       d="m 305.7,220.5 c 1.1,2.7 2.5,5.2 4.1,7.5 0.3,-3.4 1.2,-6.7 2.6,-9.8 -2.2,0.6 -4.5,1.3 -6.7,2.3 z"
       fill="#959da5"
       id="path964" />
    <path
       d="m 314.2,253.4 c -0.5,-1.3 -2.6,-6.7 -3,-8.4 -2.9,-1.2 -9.7,-4.8 -12.4,-4.5 0.7,3.5 2.4,6.7 5,9.2 3.3,1.7 6.8,3 10.4,3.7 z"
       fill="#586069"
       id="path966" />
    <path
       d="m 349.3,248.8 c -8.8,5 -22.9,7.4 -35.1,4.6 -0.8,-1.8 -2.4,-6.3 -3,-8.4 7.3,2.7 27.5,2.6 38.1,3.8 z M 310,227.3 c 0,0 1.3,-6.4 1.9,-7.8 l 27.2,1.1 -1.3,6 z"
       fill="#f9c513"
       id="path968" />
    <path
       d="m 304,237.7 h -0.1 c -0.6,0 -0.7,-0.4 -0.7,-0.5 h 0.7 l -0.2,-0.3 c 0.5,-0.3 0.8,-0.6 1.2,-0.9 0.3,-0.5 0.5,-0.9 0.6,-1.3 0.2,-1.2 0.3,-2.2 0.2,-3.2 0,-2.1 0.4,-3.8 1.1,-5.3 0.4,-0.8 1.1,-1.6 1.8,-2.2 0.8,-0.5 1.6,-0.9 2.6,-1 1.7,-0.1 3.4,0.8 5.1,2.5 l -0.6,0.6 c -1.6,-1.6 -3.1,-2.3 -4.5,-2.3 -0.8,0.1 -1.5,0.4 -2.2,0.8 -0.6,0.5 -1.2,1.1 -1.6,1.8 -0.7,1.4 -1.1,3 -1.1,4.9 0.1,1 0,2.1 -0.2,3.4 -0.1,0.6 -0.4,1.1 -0.8,1.6 l -0.1,0.1 c -0.1,0.6 -0.5,0.9 -1.2,1.3 z m -0.1,-0.5 h 0.1 c 0,-0.1 -0.1,-0.2 -0.1,-0.3 z"
       fill="#fb8532"
       id="path970" />
    <path
       d="m 302.7,231.2 v -0.8 c 0.3,0 0.6,-0.3 0.7,-0.6 0.1,-0.5 0.1,-0.9 0.1,-1.4 0,-1.6 0.2,-3.6 1.5,-5 1.2,-1 2.6,-1.3 3.6,-1.4 2.6,-0.3 6,0.6 7.4,3.1 l -0.7,0.4 c -1.3,-2.2 -4.2,-2.9 -6.6,-2.7 -0.9,0.1 -2.1,0.3 -3.1,1.2 -1.1,1.1 -1.3,2.8 -1.3,4.4 0,0.5 0,1 -0.1,1.6 -0.1,0.7 -0.8,1.2 -1.5,1.2 z"
       fill="#79b8ff"
       id="path972" />
    <path
       d="m 343.9,226.4 c -0.5,0 -1.1,-0.5 -1.8,-1.1 -0.1,-0.1 -0.2,-0.2 -0.3,-0.2 l -0.1,0.1 c -0.1,-0.2 -0.3,-0.6 0,-0.8 0.3,-0.2 0.6,0 1,0.4 0.2,0.2 1,0.9 1.2,0.9 0.2,-1 0.7,-1.9 1.5,-2.6 1,-0.6 1.8,-0.8 2.7,-0.8 0.7,-0.1 1.7,0 2.6,0.2 0.4,0.1 0.8,0.3 1.2,0.5 0.3,0.1 0.5,0.2 0.8,0.3 1.7,0.5 3.7,0.1 5.1,-1.2 l 0.6,0.6 c -1.6,1.5 -3.9,2 -5.9,1.4 -0.3,-0.1 -0.6,-0.2 -0.9,-0.4 -0.3,-0.2 -0.7,-0.3 -1,-0.4 -0.8,-0.2 -1.7,-0.3 -2.3,-0.2 -0.8,0 -1.5,0.2 -2.2,0.6 -0.6,0.5 -1,1.2 -1.2,2 -0.1,0.4 -0.3,0.6 -0.5,0.7 z"
       fill="#fb8532"
       id="path974" />
    <path
       d="m 346.2,227.3 h -33.8 c 2.6,-3.4 5.4,-8.7 4.7,-12.9 l 34,-0.1 c 0.1,5.4 -4.9,13 -4.9,13 z"
       fill="#ffdf5d"
       id="path976" />
    <path
       d="m 316.4,212.9 h 34 l 0.7,1.3 h -34 z"
       fill="#fff4b5"
       id="path978" />
    <path
       d="m 316.4,212.9 c 0.8,4.2 -3.5,14.7 -4,14.3 1.7,-1.6 3.1,-3.7 3.9,-5.9 0.8,-2.3 1.1,-4.7 0.8,-7.1 z"
       fill="#ffd33d"
       id="path980" />
    <path
       d="m 342.9,253.8 c -2.2,0 -4.4,-0.3 -6.3,-0.7 -0.9,-0.2 -1.8,-0.6 -2.5,-1 0,0 -0.1,0 -0.1,-0.1 -0.7,-0.5 -1.2,-1.3 -1.3,-2.1 -0.4,0.1 -0.8,0.1 -1.3,0.1 h -0.1 c -1.1,-0.3 -2,-1 -2.4,-1.9 -0.9,-1.8 -0.1,-3.8 0.6,-5.2 2.6,-5 7.8,-8.2 12,-10.4 l 0.6,-0.3 c 2.4,-1.3 4.8,-2.4 6.1,-4.5 0.3,-0.7 0.9,-1.8 1.9,-2.6 0.1,0 0.1,-0.1 0.2,-0.1 0.9,-0.3 1.9,-0.5 2.9,-0.3 5.7,0.4 11.4,1.6 16.8,3.6 l -0.6,1.6 c -5.3,-2 -10.8,-3.2 -16.4,-3.5 -0.7,-0.1 -1.4,0 -2,0.2 -0.5,0.4 -1,1 -1.3,1.9 0,0 0,0.1 -0.1,0.1 -1.6,2.5 -4.2,3.9 -6.8,5.2 l -0.6,0.3 c -4,2.1 -8.8,5 -11.2,9.6 -0.8,1.7 -1,2.9 -0.6,3.7 0.2,0.5 0.6,0.8 1.2,0.9 0.3,0 0.9,0 1.3,-0.4 0.3,-0.3 0.7,-0.4 1.1,-0.2 0.4,0.2 0.5,0.6 0.4,1 -0.3,0.7 0,1.4 0.6,1.9 0.6,0.3 1.3,0.6 2,0.8 6.3,1.5 14.4,0.7 18.4,-4.4 2.8,-3.6 3.7,-9.8 2.1,-14.7 l 1.6,-0.5 c 1.8,5.4 0.8,12.2 -2.3,16.3 -3.4,4.2 -8.8,5.7 -13.9,5.7 z"
       fill="#0366d6"
       id="path982" />
    <path
       d="m 367.1,250.9 c -4.4,0 -8.1,-1.1 -10.9,-3.2 l 1,-1.4 c 5.5,4.1 13.5,3.1 19.2,1.5 1.5,-0.5 3,-1 3.9,-2.1 1,-1.4 0.8,-3.4 -0.6,-6.3 -4.3,-9.2 -10.9,-16.9 -19,-22.5 l 0.9,-1.4 c 8.4,5.7 15.2,13.7 19.6,23.1 1.1,2.2 2.3,5.5 0.4,8 -1.2,1.5 -3,2.2 -4.7,2.7 -3.6,1.1 -6.8,1.6 -9.8,1.6 z"
       fill="#0366d6"
       id="path984" />
    <path
       d="m 483.5,102.1 h 0.5 l 0.6,-2.7 h -1.7 z"
       fill="#c8e1ff"
       id="path986" />
    <path
       d="m 503.7,102.1 h 0.5 l 0.6,-2.7 h -1.7 z"
       fill="#f6f8fa"
       id="path988" />
    <path
       d="m 513.8,103.4 h 0.5 l 0.5,-2.7 h -1.5 z m 10.1,-6.5 h 0.5 l 0.6,-2.7 h -1.7 z m -27.8,6.1 h -4.4 l 1.1,-5 h 2.2 z"
       fill="#c8e1ff"
       id="path990" />
    <g
       fill="#0366d6"
       id="g1014">
      <path
         d="m 489.2,165.9 c -5.8,0 -11.5,-1.3 -16.7,-3.8 -9.4,-4.5 -14.5,-9.8 -17.1,-13.4 -3.2,-4.5 -4.5,-9 -3.4,-12.1 0.7,-1.9 2.5,-3.1 4,-4.1 0.9,-0.6 1.8,-1.2 1.9,-1.6 0.2,-0.6 0.4,-2.6 0.6,-4.7 0.3,-3.3 0.7,-7.9 1.7,-12.1 1.7,-7.3 10.7,-18.5 29,-19.8 h 0.7 c -0.7,-2.3 -1.3,-4 -1.5,-4.3 l 0.6,-0.3 0.8,-0.8 c 0.7,0.7 5.1,13.6 3.2,18 l -1.5,-0.7 c 0.9,-2 0,-6.5 -1,-10.3 h -1.1 c -9.1,0.6 -24.6,6.2 -27.4,18.4 -1,4.2 -1.4,8.6 -1.7,11.9 -0.3,2.9 -0.4,4.5 -0.8,5.2 -0.4,0.9 -1.4,1.6 -2.5,2.4 -1.3,0.9 -2.8,1.9 -3.3,3.3 -0.9,2.5 0.3,6.6 3.1,10.6 2.5,3.5 7.4,8.6 16.4,12.9 7.7,3.7 16.5,4.6 24.8,2.5 l 0.4,1.6 c -3,0.9 -6.1,1.2 -9.2,1.2 z m 18.2,-4.8 -0.9,-1.4 c 7.3,-4.4 12.7,-11.6 15.7,-20.8 4.5,-13.7 -2.5,-33.2 -21.6,-40.9 l 0.6,-1.6 c 15.6,6.2 28.6,24.4 22.6,42.9 -3.1,9.7 -8.8,17.3 -16.4,21.8 z"
         id="path992" />
      <path
         d="m 503.7,103.3 c -3.6,-7.8 -8.9,-12 -12.2,-13.2 -1.1,-0.4 -1.8,-0.4 -1.9,-0.3 -0.6,0.3 -0.7,0.7 -0.7,2.2 0,0.9 0,2.1 -0.3,3.5 l -1.7,-0.3 c 0.2,-1.3 0.2,-2.3 0.2,-3.1 0,-1.5 0,-2.9 1.6,-3.7 1,-0.5 2.3,-0.1 3.3,0.2 3.9,1.4 9.4,5.8 13.2,14.1 z"
         id="path994" />
      <path
         d="m 480.7,96.3 c -0.2,-1.9 0.7,-6.3 1.8,-7.7 0.3,-0.4 0.6,-0.6 1,-0.6 1.8,-0.2 4,2.8 5,4.9 l -1.6,0.7 c -0.9,-2.1 -2.5,-3.7 -3.1,-3.9 -0.7,0.7 -1.6,4.6 -1.4,6.5 z"
         id="path996" />
      <path
         d="m 483.8,95.4 c -0.3,-2.1 -0.7,-3.9 -1.3,-5.6 l 1.6,-0.5 c 0.6,1.7 1,3.6 1.3,5.8 z m -29.4,40.2 c -1.3,-0.3 -1.7,-1 -1.9,-1.5 -0.3,-0.9 0.1,-1.9 1.1,-2.9 1,-0.9 1.8,-0.9 2.3,-0.7 0.7,0.2 1.3,0.9 1.5,1.9 l -1.6,0.4 c -0.1,-0.5 -0.3,-0.7 -0.4,-0.7 -0.1,0 -0.3,0 -0.6,0.3 -0.6,0.6 -0.7,1.1 -0.7,1.2 0,0.1 0.2,0.2 0.6,0.3 z m 13.7,22.6 c -2.1,0 -4.3,-0.7 -6.1,-2.2 l 1.1,-1.3 c 2.7,2.2 6.5,2.4 9.3,0.5 1,-0.7 1.8,-1.5 2.2,-2.4 1.6,-2.9 1,-5.9 0.5,-8.9 -0.3,-1.8 -0.7,-3.5 -0.5,-5.1 0.5,-3.8 1.8,-6.3 4.1,-10.3 l 1.2,-2.1 c 2.7,-4.8 6.7,-12 1.9,-16.9 -2.3,-2.4 -5.6,-2.7 -7.9,-2.5 -4.6,0.4 -9.6,2.9 -11.6,5.9 l -1.4,-0.9 c 2.3,-3.4 7.7,-6.2 12.8,-6.6 3.9,-0.3 7.1,0.7 9.3,3 5.6,5.8 1,14 -1.7,18.9 l -1.2,2.1 c -2.2,4 -3.5,6.3 -3.9,9.7 -0.2,1.3 0.1,2.9 0.5,4.6 0.6,3.1 1.3,6.6 -0.7,10 -0.6,1.1 -1.5,2.1 -2.8,3 -1.4,0.9 -3.2,1.5 -5.1,1.5 z m 18.2,-12.1 -0.9,-1.4 c 6.3,-3.8 15.6,-5.8 19.7,-5.7 v 1.7 c -4,-0.1 -13,1.9 -18.8,5.4 z m 14.6,4.6 c -1.8,-1.7 -10,-2.1 -13.5,-0.6 l -0.7,-1.6 c 3.8,-1.6 12.8,-1.4 15.3,1 z"
         id="path998" />
      <path
         d="m 501.4,150.9 c -0.2,0 -0.4,-0.1 -0.6,-0.2 -0.9,-0.8 -3.4,-1.4 -6.4,-1.5 -0.5,0 -0.8,-0.4 -0.8,-0.9 0,-0.5 0.4,-0.8 0.9,-0.8 1.3,0 5.7,0.3 7.4,1.9 0.3,0.3 0.4,0.8 0.1,1.2 -0.1,0.3 -0.4,0.3 -0.6,0.3 z m -6.8,-8.5 c -0.4,0 -0.7,-0.2 -0.8,-0.6 -0.1,-0.4 0.1,-0.9 0.5,-1.1 3.5,-1.1 7.1,-1.7 10.7,-1.8 0.5,0 0.9,0.4 0.9,0.8 0,0.5 -0.4,0.9 -0.8,0.9 -3.5,0.1 -7,0.7 -10.3,1.8 z m -1.6,68.1 h -27 v -1.7 h 27 c 7.4,0 12.7,-6.8 16.6,-11.8 4.9,-6.1 8.9,-12.7 5.6,-20 -3.3,-7.4 -7.1,-13.9 -11.5,-19.9 -0.8,-1.2 -1.8,-2.3 -3.1,-3.1 -1.1,-0.6 -2.4,-0.5 -3.3,0.3 -0.8,0.8 -0.8,2.3 -0.1,4.5 0.7,2.2 1.4,4.3 2.1,6.3 0.7,2.1 1.5,4.2 2.2,6.4 0.2,0.5 0.4,1.1 0.6,1.7 1.2,3.2 2.7,7.6 1,10.5 -2.7,4.7 -6.6,8.6 -11.4,11.1 l -0.8,-1.5 c 4.5,-2.4 8.3,-6 10.8,-10.5 1.3,-2.2 -0.1,-6.2 -1.2,-9.1 l -0.6,-1.8 c -0.6,-2.1 -1.4,-4.3 -2.1,-6.3 -0.7,-2.1 -1.5,-4.2 -2.2,-6.4 -0.9,-2.8 -0.8,-4.9 0.5,-6.2 1.5,-1.4 3.6,-1.6 5.3,-0.6 1.5,1 2.7,2.2 3.6,3.6 4.5,6.1 8.3,12.7 11.7,20.2 3.7,8.2 -0.9,15.6 -5.8,21.8 -4,5.4 -9.6,12.5 -17.9,12.5 z"
         id="path1000" />
      <path
         d="m 466.3,205 -1.6,-0.6 c 2.1,-5.4 5.4,-9.1 10.3,-11.6 5.2,-2.7 11.3,-2.8 16.6,-0.1 2.5,1.3 4.1,3.1 4.5,5.2 l -1.6,0.4 c -0.5,-2 -2.3,-3.3 -3.7,-4 -4.8,-2.4 -10.3,-2.4 -15,0.1 -4.6,2.2 -7.5,5.5 -9.5,10.6 z"
         id="path1002" />
      <path
         d="m 467,210.5 c -1.5,0 -2.8,-0.6 -4.2,-1.3 -1.4,-0.7 -3.7,-1.9 -3.8,-4.2 0,-0.8 0.3,-1.5 0.7,-1.9 l 0.1,-0.1 c 1,-0.7 2.3,-0.4 3.1,-0.2 2.1,0.6 4,1.5 5.9,2.7 0.5,0.3 1,0.6 1.5,1 1.9,1.3 3.8,2.4 5.8,2.3 l 0.1,1.7 c -2.6,0.2 -4.7,-1.2 -6.8,-2.6 l -1.5,-0.9 c -1.7,-1.1 -3.5,-2 -5.4,-2.5 -0.6,-0.2 -1.2,-0.3 -1.6,-0.1 -0.1,0.1 -0.2,0.4 -0.2,0.7 0.1,1.2 1.4,2 2.9,2.8 1.4,0.6 2.7,1.3 4,1 l 0.3,1.7 c -0.3,-0.1 -0.6,-0.1 -0.9,-0.1 z m 88.3,37.1 c -17.8,-15.2 -32,-33.5 -42,-54.4 l 1.5,-0.7 c 9.9,20.7 23.9,38.8 41.6,53.8 z"
         id="path1004" />
      <path
         d="m 551.6,254.8 c -1.7,0 -3.5,-0.1 -5.2,-0.3 -0.4,0 -0.7,-0.2 -0.9,-0.3 l -0.3,-0.1 -0.1,-0.3 c -0.1,-0.2 -0.3,-0.6 -0.3,-1 -0.2,-2.4 0.8,-4.7 2.8,-6.2 1.7,-1.1 3.7,-1.6 5.7,-1.4 1.7,0.2 3.5,0.7 5.4,1.5 l -0.6,1.6 c -1.8,-0.7 -3.4,-1.2 -5,-1.3 -1.6,-0.2 -3.2,0.2 -4.5,1.1 -1.5,1.1 -2.3,2.9 -2.1,4.7 7,0.9 14,-0.1 20.3,-2.7 0.4,-5.1 -2.3,-10.2 -4.9,-14.5 -5.1,-8.5 -10.8,-16.8 -17,-24.5 l 1.3,-1.1 c 6.3,7.8 12.1,16.1 17.2,24.7 2.8,4.7 5.7,10.2 5.1,16 l -0.1,0.5 -0.4,0.2 c -5.2,2.2 -10.7,3.4 -16.4,3.4 z"
         id="path1006" />
      <path
         d="m 560.6,215.2 c -5.7,0 -11.6,-1.6 -17.1,-4.8 -11.1,-6.3 -20.6,-16.1 -27.6,-23.9 l 1.3,-1.1 c 6.9,7.7 16.3,17.3 27.2,23.5 10.9,6.2 22.8,6 32.7,-0.5 0.3,-0.2 0.7,-0.2 1,0 0.8,0.6 1.7,1.1 3,1.6 h 0.1 c 4.9,2.5 12,2.4 18.1,-0.1 0.4,-0.2 0.8,0 1,0.3 0.5,0.8 1.5,1.2 2.4,1.1 0.4,-0.1 0.8,-0.3 1.1,-0.6 0.1,-0.2 0.2,-0.5 0.3,-1 -0.1,-0.3 -0.2,-0.6 -0.4,-0.9 -6.6,-11.1 -13.3,-17.9 -21.1,-21.5 -2.4,-1.1 -5.8,-2.1 -8,-0.4 -0.8,0.6 -1.4,1.5 -2.1,2.5 -0.3,0.4 -0.6,0.8 -0.8,1.2 -4.4,6.1 -12.9,7.4 -19.4,5.9 -7,-1.6 -13,-5.9 -18.1,-9.8 -10.1,-7.5 -20.3,-16 -27.3,-27 l 1.4,-0.9 c 6.8,10.8 17,19.2 26.9,26.6 5,3.8 10.9,7.9 17.5,9.5 5.9,1.3 13.6,0.2 17.6,-5.3 0.3,-0.4 0.6,-0.8 0.8,-1.1 0.7,-1 1.4,-2 2.5,-2.8 2.9,-2.2 6.9,-1.1 9.8,0.2 8.1,3.8 15,10.8 21.8,22.1 0.3,0.5 0.6,1 0.7,1.6 v 0.2 c 0,0.6 -0.1,1.5 -0.7,2.2 -0.6,0.6 -1.3,1 -2.1,1.1 -1.4,0.1 -2.7,-0.4 -3.6,-1.3 -6.3,2.5 -13.7,2.4 -18.9,-0.1 -1.2,-0.4 -2.2,-0.9 -3,-1.5 -5.4,3.3 -11.1,5 -17,5 z"
         id="path1008" />
      <path
         d="m 543.7,190 c -2,0 -3.9,-0.1 -5.8,-0.3 l 0.2,-1.7 c 4.8,0.6 9.7,0.4 14.8,-0.5 3.1,-0.5 5.7,-1.2 8.1,-2.2 3.8,-1.5 7.3,-3.9 10.7,-6.2 1.7,-1.1 3.4,-2.3 5.2,-3.4 7,-4.2 12.9,-5.8 18.3,-4.8 1.7,0.2 3.3,0.9 4.9,2.1 0.4,0.3 0.7,0.6 1,1 0.6,0.6 1.1,1.2 1.8,1.4 0.7,0.2 1.4,-0.2 1.8,-0.4 0.8,-0.6 1.4,-1.5 1.4,-2.4 0.1,-1.6 -0.6,-3.3 -2.3,-5.2 -2.7,-3 -5.8,-5.4 -9.2,-7 -3.5,-1.7 -7.2,-2.7 -11.2,-2.9 -7.9,-0.4 -15.5,1.7 -22.1,6.2 -2.1,1.3 -4.1,2.9 -6,4.5 -4.9,3.9 -10,7.8 -16.4,8.6 -4.8,0.6 -10.3,-0.8 -16.1,-4.3 -2.5,-1.5 -4.9,-3.2 -7.2,-4.9 -2.1,-1.5 -4.2,-3.1 -6.4,-4.4 l 0.9,-1.4 c 2.3,1.4 4.4,3 6.6,4.5 2.3,1.6 4.6,3.3 7,4.8 5.5,3.3 10.6,4.7 15.1,4.1 5.9,-0.7 10.6,-4.4 15.5,-8.2 2,-1.6 4,-3.2 6.1,-4.5 6.9,-4.6 14.9,-6.8 23.1,-6.4 4.2,0.2 8.2,1.2 11.8,3.1 3.6,1.7 6.9,4.2 9.8,7.4 2,2.3 2.9,4.4 2.7,6.4 -0.1,1.4 -0.9,2.8 -2.1,3.7 -1,0.7 -2.2,1 -3.3,0.6 -1.1,-0.3 -1.9,-1.2 -2.5,-1.9 -0.3,-0.3 -0.5,-0.6 -0.8,-0.8 -1.2,-0.9 -2.6,-1.5 -4,-1.7 -5,-0.9 -10.6,0.6 -17.2,4.6 -1.7,1 -3.4,2.2 -5.1,3.3 -3.5,2.3 -7.1,4.8 -11,6.4 -2.6,1 -5.3,1.8 -8.5,2.3 -3.3,0.2 -6.5,0.5 -9.6,0.5 z m -88,-40.8 c -5.5,-0.9 -10.5,-3.4 -14.8,-5.7 -28.2,-15.1 -49.6,-33.9 -63.5,-55.8 -1.3,-1.7 -1.6,-3.3 -0.9,-4.5 0.8,-1.7 3,-2.3 5.9,-1.4 8.6,2.5 16.2,7.7 23.9,13.2 13.9,10 28,21.4 41.9,33.8 l 0.4,0.3 c 1.5,1.2 3,2.5 4.8,3.1 l -0.5,1.6 c -2.1,-0.7 -3.7,-2.1 -5.4,-3.4 l -0.4,-0.3 c -13.9,-12.3 -27.9,-23.7 -41.8,-33.7 -7.5,-5.5 -15,-10.6 -23.3,-13 -0.5,-0.2 -3.2,-0.9 -3.9,0.5 -0.3,0.7 -0.1,1.6 0.8,2.8 13.8,21.7 35,40.3 62.9,55.3 4.1,2.2 9,4.7 14.2,5.5 z"
         id="path1010" />
      <path
         d="m 414.8,116.7 c -2.3,0 -6.4,-2.1 -10.5,-5.6 -4.3,-3.6 -7.3,-7.5 -7.5,-9.8 -0.1,-0.8 0.2,-1.3 0.5,-1.6 0.2,-0.3 0.7,-0.7 1.5,-0.7 2.3,-0.2 6.6,2 10.9,5.6 4.3,3.6 7.3,7.5 7.4,9.8 0.1,0.8 -0.2,1.3 -0.4,1.6 -0.2,0.3 -0.7,0.7 -1.5,0.7 z m -15.6,-16 H 399 c -0.1,0 -0.3,0 -0.4,0.1 -0.1,0.1 -0.1,0.2 -0.1,0.4 0.1,1.5 2.6,5 6.9,8.6 4.4,3.6 8.2,5.3 9.6,5.2 0.1,0 0.3,0 0.4,-0.1 0.1,-0.1 0.1,-0.2 0,-0.4 -0.1,-1.5 -2.6,-5 -6.9,-8.6 -4,-3.5 -7.7,-5.2 -9.3,-5.2 z m 43.2,37.3 c -2.7,0 -7,-2.1 -10.6,-4.4 -4.6,-3.2 -7.9,-6.7 -8.3,-9 -0.2,-0.8 0.1,-1.4 0.3,-1.7 1.7,-2.4 7.9,0.1 12.9,3.6 4.6,3.1 7.9,6.5 8.3,8.8 0.2,0.8 -0.1,1.4 -0.3,1.7 -0.5,0.7 -1.3,1 -2.3,1 z M 426,123.6 c -0.4,0 -0.7,0.1 -0.8,0.3 -0.1,0.1 -0.1,0.3 0,0.5 0.3,1.5 3,4.7 7.6,7.9 6,3.9 10,4.6 10.5,3.9 0.1,-0.1 0.1,-0.3 0,-0.5 -0.3,-1.5 -3,-4.7 -7.6,-7.8 -4.5,-3.1 -8.1,-4.3 -9.7,-4.3 z m 127.6,59.1 c -1.7,0 -3,-0.4 -3.4,-1.5 -1.1,-2.6 3.9,-6.3 9.3,-8.6 4.9,-2.1 9.4,-2.8 11.5,-2 0.8,0.3 1.1,0.8 1.2,1.2 1.1,2.6 -3.9,6.3 -9.3,8.6 -3.2,1.3 -6.8,2.3 -9.3,2.3 z M 568.8,172 c -1.9,0 -5,0.7 -8.7,2.2 -6.2,2.7 -8.7,5.7 -8.4,6.4 0.4,0.8 4.4,0.9 10.5,-1.8 6.2,-2.7 8.7,-5.7 8.5,-6.4 0,-0.1 -0.1,-0.2 -0.3,-0.2 -0.4,-0.2 -0.9,-0.2 -1.6,-0.2 z m -33.9,15.2 v -1.7 c 4.6,-0.1 6.7,-0.9 6.9,-1.3 -0.1,-0.6 -3.8,-2.4 -10.1,-3 -1.9,-0.2 -3.6,-0.3 -5.1,-0.2 l -0.1,-1.7 c 1.6,-0.1 3.4,0 5.3,0.2 4.1,0.4 11.7,1.9 11.5,4.9 0,2.3 -5.3,2.8 -8.4,2.8 z m 55.4,-18.7 c -1.7,0 -3.3,-0.1 -4.4,-0.3 -5.8,-0.7 -10,-1.2 -9.8,-3.6 0,-0.4 0.2,-1 0.9,-1.6 1.6,-1.4 5.5,-2.5 9.9,-1.9 4.6,0.6 10,2.3 9.8,4.9 v 0.1 c -0.3,1.9 -3.4,2.4 -6.4,2.4 z m -5.9,-5.8 c -3,0 -5.4,0.8 -6.3,1.6 -0.3,0.3 -0.3,0.4 -0.3,0.4 -0.1,0.9 5.8,1.6 8.4,1.9 6,0.7 8.7,-0.2 8.9,-0.6 0,-0.6 -2.6,-2.3 -8.4,-3.1 -0.9,-0.2 -1.6,-0.2 -2.3,-0.2 z"
         id="path1012" />
    </g>
  </g>
</svg>
